G04*
G04 #@! TF.GenerationSoftware,Altium Limited,Altium Designer,20.1.14 (287)*
G04*
G04 Layer_Color=8421376*
%FSLAX44Y44*%
%MOMM*%
G71*
G04*
G04 #@! TF.SameCoordinates,66B91B26-6BD7-4DB9-BD5C-0B8DAFF097A8*
G04*
G04*
G04 #@! TF.FilePolarity,Negative*
G04*
G01*
G75*
G04:AMPARAMS|DCode=46|XSize=2.12mm|YSize=1.78mm|CornerRadius=0.47mm|HoleSize=0mm|Usage=FLASHONLY|Rotation=180.000|XOffset=0mm|YOffset=0mm|HoleType=Round|Shape=RoundedRectangle|*
%AMROUNDEDRECTD46*
21,1,2.1200,0.8400,0,0,180.0*
21,1,1.1800,1.7800,0,0,180.0*
1,1,0.9400,-0.5900,0.4200*
1,1,0.9400,0.5900,0.4200*
1,1,0.9400,0.5900,-0.4200*
1,1,0.9400,-0.5900,-0.4200*
%
%ADD46ROUNDEDRECTD46*%
G04:AMPARAMS|DCode=50|XSize=1.7mm|YSize=1.85mm|CornerRadius=0.45mm|HoleSize=0mm|Usage=FLASHONLY|Rotation=270.000|XOffset=0mm|YOffset=0mm|HoleType=Round|Shape=RoundedRectangle|*
%AMROUNDEDRECTD50*
21,1,1.7000,0.9500,0,0,270.0*
21,1,0.8000,1.8500,0,0,270.0*
1,1,0.9000,-0.4750,-0.4000*
1,1,0.9000,-0.4750,0.4000*
1,1,0.9000,0.4750,0.4000*
1,1,0.9000,0.4750,-0.4000*
%
%ADD50ROUNDEDRECTD50*%
G04:AMPARAMS|DCode=53|XSize=1.7mm|YSize=1.85mm|CornerRadius=0.45mm|HoleSize=0mm|Usage=FLASHONLY|Rotation=0.000|XOffset=0mm|YOffset=0mm|HoleType=Round|Shape=RoundedRectangle|*
%AMROUNDEDRECTD53*
21,1,1.7000,0.9500,0,0,0.0*
21,1,0.8000,1.8500,0,0,0.0*
1,1,0.9000,0.4000,-0.4750*
1,1,0.9000,-0.4000,-0.4750*
1,1,0.9000,-0.4000,0.4750*
1,1,0.9000,0.4000,0.4750*
%
%ADD53ROUNDEDRECTD53*%
%ADD59C,0.7000*%
%ADD60C,1.4000*%
G04:AMPARAMS|DCode=61|XSize=1.4mm|YSize=1.4mm|CornerRadius=0.375mm|HoleSize=0mm|Usage=FLASHONLY|Rotation=270.000|XOffset=0mm|YOffset=0mm|HoleType=Round|Shape=RoundedRectangle|*
%AMROUNDEDRECTD61*
21,1,1.4000,0.6500,0,0,270.0*
21,1,0.6500,1.4000,0,0,270.0*
1,1,0.7500,-0.3250,-0.3250*
1,1,0.7500,-0.3250,0.3250*
1,1,0.7500,0.3250,0.3250*
1,1,0.7500,0.3250,-0.3250*
%
%ADD61ROUNDEDRECTD61*%
%ADD62R,1.4000X1.4000*%
%ADD63C,1.4370*%
G04:AMPARAMS|DCode=64|XSize=1.437mm|YSize=1.437mm|CornerRadius=0.3843mm|HoleSize=0mm|Usage=FLASHONLY|Rotation=270.000|XOffset=0mm|YOffset=0mm|HoleType=Round|Shape=RoundedRectangle|*
%AMROUNDEDRECTD64*
21,1,1.4370,0.6685,0,0,270.0*
21,1,0.6685,1.4370,0,0,270.0*
1,1,0.7685,-0.3343,-0.3343*
1,1,0.7685,-0.3343,0.3343*
1,1,0.7685,0.3343,0.3343*
1,1,0.7685,0.3343,-0.3343*
%
%ADD64ROUNDEDRECTD64*%
%ADD65C,1.7000*%
%ADD66R,1.7000X1.7000*%
%ADD67P,2.4042X4X270.0*%
%ADD68R,1.5000X1.5000*%
%ADD69C,1.5000*%
%ADD70C,1.6000*%
%ADD71R,1.6000X1.6000*%
%ADD72C,1.7500*%
%ADD73R,1.7500X1.7500*%
%ADD74R,1.6000X1.6000*%
%ADD75R,1.7500X1.7500*%
%ADD76C,1.6150*%
%ADD77C,2.0500*%
%ADD78R,2.0500X2.0500*%
%ADD79R,2.0500X2.0500*%
%ADD80C,4.1000*%
%ADD81R,1.7000X1.7000*%
G04:AMPARAMS|DCode=113|XSize=1.35mm|YSize=0.7mm|CornerRadius=0.2mm|HoleSize=0mm|Usage=FLASHONLY|Rotation=0.000|XOffset=0mm|YOffset=0mm|HoleType=Round|Shape=RoundedRectangle|*
%AMROUNDEDRECTD113*
21,1,1.3500,0.3000,0,0,0.0*
21,1,0.9500,0.7000,0,0,0.0*
1,1,0.4000,0.4750,-0.1500*
1,1,0.4000,-0.4750,-0.1500*
1,1,0.4000,-0.4750,0.1500*
1,1,0.4000,0.4750,0.1500*
%
%ADD113ROUNDEDRECTD113*%
%ADD114R,0.7000X1.5000*%
G04:AMPARAMS|DCode=115|XSize=2.22mm|YSize=1.88mm|CornerRadius=0.52mm|HoleSize=0mm|Usage=FLASHONLY|Rotation=180.000|XOffset=0mm|YOffset=0mm|HoleType=Round|Shape=RoundedRectangle|*
%AMROUNDEDRECTD115*
21,1,2.2200,0.8400,0,0,180.0*
21,1,1.1800,1.8800,0,0,180.0*
1,1,1.0400,-0.5900,0.4200*
1,1,1.0400,0.5900,0.4200*
1,1,1.0400,0.5900,-0.4200*
1,1,1.0400,-0.5900,-0.4200*
%
%ADD115ROUNDEDRECTD115*%
%ADD116R,6.7500X3.4000*%
G04:AMPARAMS|DCode=117|XSize=5.7mm|YSize=2.4mm|CornerRadius=0.625mm|HoleSize=0mm|Usage=FLASHONLY|Rotation=180.000|XOffset=0mm|YOffset=0mm|HoleType=Round|Shape=RoundedRectangle|*
%AMROUNDEDRECTD117*
21,1,5.7000,1.1500,0,0,180.0*
21,1,4.4500,2.4000,0,0,180.0*
1,1,1.2500,-2.2250,0.5750*
1,1,1.2500,2.2250,0.5750*
1,1,1.2500,2.2250,-0.5750*
1,1,1.2500,-2.2250,-0.5750*
%
%ADD117ROUNDEDRECTD117*%
%ADD118R,3.4600X4.9600*%
%ADD119R,1.4900X1.5000*%
D46*
X1574000Y823000D02*
D03*
X291000Y259000D02*
D03*
X591000D02*
D03*
X891000D02*
D03*
X1191000D02*
D03*
X401000D02*
D03*
X701000D02*
D03*
X1001000D02*
D03*
X1301000D02*
D03*
D50*
X1173000Y748000D02*
D03*
Y768000D02*
D03*
X873000Y748000D02*
D03*
Y768000D02*
D03*
X573000Y748000D02*
D03*
Y768000D02*
D03*
X273000Y748000D02*
D03*
Y768000D02*
D03*
X1319000Y748000D02*
D03*
Y768000D02*
D03*
X1019000Y748000D02*
D03*
Y768000D02*
D03*
X719000Y748000D02*
D03*
Y768000D02*
D03*
X419000Y748000D02*
D03*
Y768000D02*
D03*
X1507000Y1336000D02*
D03*
Y1356000D02*
D03*
Y1311500D02*
D03*
Y1291500D02*
D03*
X1607000Y944000D02*
D03*
Y964000D02*
D03*
X1596000Y888000D02*
D03*
Y908000D02*
D03*
X1585000Y927000D02*
D03*
Y947000D02*
D03*
X1596000Y869000D02*
D03*
Y849000D02*
D03*
X1241914Y1286400D02*
D03*
Y1306400D02*
D03*
X257251Y259000D02*
D03*
Y239000D02*
D03*
X557251D02*
D03*
Y259000D02*
D03*
X857251Y239000D02*
D03*
Y259000D02*
D03*
X1157251Y239000D02*
D03*
Y259000D02*
D03*
X435000Y260000D02*
D03*
Y240000D02*
D03*
X735000D02*
D03*
Y260000D02*
D03*
X1035000Y240000D02*
D03*
Y260000D02*
D03*
X1335000Y240000D02*
D03*
Y260000D02*
D03*
X311501Y794401D02*
D03*
Y774401D02*
D03*
X611501D02*
D03*
Y794401D02*
D03*
X911501Y774401D02*
D03*
Y794401D02*
D03*
X1211501Y774401D02*
D03*
Y794401D02*
D03*
X380501Y794401D02*
D03*
Y774401D02*
D03*
X680501D02*
D03*
Y794401D02*
D03*
X980501Y774401D02*
D03*
Y794401D02*
D03*
X1280501Y774401D02*
D03*
Y794401D02*
D03*
X332000Y794401D02*
D03*
Y774401D02*
D03*
X632000D02*
D03*
Y794401D02*
D03*
X932000Y774401D02*
D03*
Y794401D02*
D03*
X1232000Y774401D02*
D03*
Y794401D02*
D03*
X360000Y794401D02*
D03*
Y774401D02*
D03*
X660000D02*
D03*
Y794401D02*
D03*
X960000Y774401D02*
D03*
Y794401D02*
D03*
X1260000Y774401D02*
D03*
Y794401D02*
D03*
X437000Y768000D02*
D03*
Y748000D02*
D03*
X737000Y768000D02*
D03*
Y748000D02*
D03*
X1037000Y768000D02*
D03*
Y748000D02*
D03*
X1337000Y768000D02*
D03*
Y748000D02*
D03*
X255000Y768000D02*
D03*
Y748000D02*
D03*
X555000Y768000D02*
D03*
Y748000D02*
D03*
X855000Y768000D02*
D03*
Y748000D02*
D03*
X1155000Y768000D02*
D03*
Y748000D02*
D03*
D53*
X1501000Y1220000D02*
D03*
X1481000D02*
D03*
X1501000Y1170000D02*
D03*
X1481000D02*
D03*
X1501000Y1195000D02*
D03*
X1481000D02*
D03*
X1348000Y1281000D02*
D03*
X1328000Y1281000D02*
D03*
X1501000Y1245000D02*
D03*
X1481000D02*
D03*
X1629000Y1207000D02*
D03*
X1609000D02*
D03*
X721000Y1555000D02*
D03*
X741000D02*
D03*
X721000Y1489000D02*
D03*
X741000D02*
D03*
X694000Y1555000D02*
D03*
X674000D02*
D03*
X694000Y1489000D02*
D03*
X674000D02*
D03*
X833000Y1555000D02*
D03*
X853000D02*
D03*
X833000Y1489000D02*
D03*
X853000D02*
D03*
X806000Y1555000D02*
D03*
X786000D02*
D03*
X806000Y1489000D02*
D03*
X786000D02*
D03*
X944800Y1555000D02*
D03*
X964800D02*
D03*
X944800Y1489000D02*
D03*
X964800D02*
D03*
X918000Y1555000D02*
D03*
X898000D02*
D03*
X918000Y1489000D02*
D03*
X898000D02*
D03*
X332000Y814401D02*
D03*
X312000D02*
D03*
X612000D02*
D03*
X632000D02*
D03*
X912000D02*
D03*
X932000D02*
D03*
X1212000D02*
D03*
X1232000D02*
D03*
X360000Y814401D02*
D03*
X380000D02*
D03*
X680000D02*
D03*
X660000D02*
D03*
X980000D02*
D03*
X960000D02*
D03*
X1280000D02*
D03*
X1260000D02*
D03*
D59*
X1606500Y1492999D02*
D03*
Y1449000D02*
D03*
D60*
X682200Y1509800D02*
D03*
X707600D02*
D03*
X733000D02*
D03*
X682200Y1586000D02*
D03*
X707600D02*
D03*
X819400D02*
D03*
X794000D02*
D03*
X844800Y1509800D02*
D03*
X819400D02*
D03*
X794000D02*
D03*
X931400Y1586000D02*
D03*
X906000D02*
D03*
X956800Y1509800D02*
D03*
X931400D02*
D03*
X906000D02*
D03*
X1448000Y1306400D02*
D03*
X1371800D02*
D03*
Y1281000D02*
D03*
X682200Y1509800D02*
D03*
X707600D02*
D03*
X733000D02*
D03*
X682200Y1535200D02*
D03*
X707600D02*
D03*
X819400D02*
D03*
X794000D02*
D03*
X844800Y1509800D02*
D03*
X819400D02*
D03*
X794000D02*
D03*
X931400Y1535200D02*
D03*
X906000D02*
D03*
X956800Y1509800D02*
D03*
X931400D02*
D03*
X906000D02*
D03*
D61*
X733000Y1586000D02*
D03*
X844800D02*
D03*
X956800D02*
D03*
X733000Y1535200D02*
D03*
X844800D02*
D03*
X956800D02*
D03*
D62*
X1448000Y1281000D02*
D03*
D63*
X1487000Y1287000D02*
D03*
Y1311500D02*
D03*
Y1336000D02*
D03*
D64*
Y1360500D02*
D03*
D65*
X1103700Y1315159D02*
D03*
X1241914Y1265461D02*
D03*
X1278684Y1228691D02*
D03*
X1314039Y1193336D02*
D03*
X1511000Y823000D02*
D03*
X1350809Y1156566D02*
D03*
X426000Y1053000D02*
D03*
Y723000D02*
D03*
X726000Y1053000D02*
D03*
Y723000D02*
D03*
X1026000D02*
D03*
Y1053000D02*
D03*
X1326000D02*
D03*
Y723000D02*
D03*
X266000Y1053000D02*
D03*
Y723000D02*
D03*
X566000Y1053000D02*
D03*
Y723000D02*
D03*
X866000D02*
D03*
Y1053000D02*
D03*
X1166000D02*
D03*
Y723000D02*
D03*
X952344Y1305944D02*
D03*
Y1331344D02*
D03*
X1318000Y1393100D02*
D03*
X1087000Y1391600D02*
D03*
Y1442400D02*
D03*
Y1417000D02*
D03*
D66*
X1078300Y1315159D02*
D03*
D67*
X1223954Y1247500D02*
D03*
X1260723Y1210730D02*
D03*
X1296079Y1175375D02*
D03*
X1332848Y1138606D02*
D03*
D68*
X1552000Y799000D02*
D03*
X1565000Y925000D02*
D03*
D69*
X1602000Y799000D02*
D03*
X1615000Y925000D02*
D03*
D70*
X1475900Y377000D02*
D03*
X1439000D02*
D03*
X1452000Y857000D02*
D03*
Y907000D02*
D03*
X284300Y1053000D02*
D03*
X584300Y1053000D02*
D03*
X884300D02*
D03*
X1184300Y1053000D02*
D03*
X407700Y1053000D02*
D03*
X707700Y1053000D02*
D03*
X1007700D02*
D03*
X1307700Y1053000D02*
D03*
X1589000Y345000D02*
D03*
D71*
X1552100Y377000D02*
D03*
X1589000D02*
D03*
X309700Y1053000D02*
D03*
X609700Y1053000D02*
D03*
X909700D02*
D03*
X1209700Y1053000D02*
D03*
X382300Y1053000D02*
D03*
X682300Y1053000D02*
D03*
X982300D02*
D03*
X1282300Y1053000D02*
D03*
X1439000Y345000D02*
D03*
D72*
X1440000Y309000D02*
D03*
X1535842Y1181750D02*
D03*
X1536000Y1232000D02*
D03*
X314000Y299000D02*
D03*
X614000D02*
D03*
X914000D02*
D03*
X1214000D02*
D03*
X378000D02*
D03*
X678000D02*
D03*
X978000D02*
D03*
X1278000D02*
D03*
D73*
X1588000Y309000D02*
D03*
X1387842Y1181750D02*
D03*
X1388000Y1232000D02*
D03*
D74*
X1511000Y973000D02*
D03*
D75*
X314000Y447000D02*
D03*
X614000D02*
D03*
X914000D02*
D03*
X1214000D02*
D03*
X378000D02*
D03*
X678000D02*
D03*
X978000D02*
D03*
X1278000D02*
D03*
D76*
X260000Y374000D02*
D03*
Y425000D02*
D03*
X560000D02*
D03*
Y374000D02*
D03*
X860000D02*
D03*
Y425000D02*
D03*
X1160000D02*
D03*
Y374000D02*
D03*
X269950Y450500D02*
D03*
X250050Y348500D02*
D03*
X550050D02*
D03*
X569950Y450500D02*
D03*
X869950D02*
D03*
X850050Y348500D02*
D03*
X1150050D02*
D03*
X1169950Y450500D02*
D03*
X432000Y374000D02*
D03*
Y425000D02*
D03*
X732000D02*
D03*
Y374000D02*
D03*
X1032000D02*
D03*
Y425000D02*
D03*
X1332000D02*
D03*
Y374000D02*
D03*
X441900Y450500D02*
D03*
X422000Y348500D02*
D03*
X722000D02*
D03*
X741900Y450500D02*
D03*
X1041900D02*
D03*
X1022000Y348500D02*
D03*
X1322000D02*
D03*
X1341900Y450500D02*
D03*
D77*
X346000Y220000D02*
D03*
X396000D02*
D03*
X646000D02*
D03*
X696000D02*
D03*
X946000D02*
D03*
X996000D02*
D03*
X1246000D02*
D03*
X1296000D02*
D03*
X1514000D02*
D03*
X1564000D02*
D03*
X1606000Y1281750D02*
D03*
Y1231750D02*
D03*
D78*
X296000Y220000D02*
D03*
X596000D02*
D03*
X896000D02*
D03*
X1196000D02*
D03*
X1464000D02*
D03*
D79*
X1606000Y1181750D02*
D03*
D80*
X226000Y1578000D02*
D03*
X1634000D02*
D03*
X226000Y196000D02*
D03*
X1634000D02*
D03*
X473000Y621000D02*
D03*
X773000D02*
D03*
X1073000D02*
D03*
X1373000D02*
D03*
X219000D02*
D03*
X519000D02*
D03*
X819000D02*
D03*
X1119000D02*
D03*
D81*
X952344Y1280544D02*
D03*
X1318000Y1367700D02*
D03*
X1087000Y1467800D02*
D03*
D113*
X1556500Y1197500D02*
D03*
Y1207000D02*
D03*
Y1216500D02*
D03*
X1581500D02*
D03*
Y1207000D02*
D03*
Y1197500D02*
D03*
D114*
X1577400Y907000D02*
D03*
X1564700D02*
D03*
X1552000D02*
D03*
X1577400Y847000D02*
D03*
X1564700D02*
D03*
X1552000D02*
D03*
X1539300Y907000D02*
D03*
Y847000D02*
D03*
D115*
X1530000Y823000D02*
D03*
X335000Y259000D02*
D03*
X635000D02*
D03*
X935000D02*
D03*
X1235000D02*
D03*
X357000D02*
D03*
X657000D02*
D03*
X957000D02*
D03*
X1257000D02*
D03*
D116*
X1493000Y858000D02*
D03*
Y906000D02*
D03*
D117*
X302000Y341000D02*
D03*
Y415000D02*
D03*
X602000Y341000D02*
D03*
Y415000D02*
D03*
X902000D02*
D03*
Y341000D02*
D03*
X1202000D02*
D03*
Y415000D02*
D03*
X380000Y341000D02*
D03*
Y415000D02*
D03*
X680000Y341000D02*
D03*
Y415000D02*
D03*
X980000D02*
D03*
Y341000D02*
D03*
X1280000D02*
D03*
Y415000D02*
D03*
D118*
X257251Y277812D02*
D03*
X557251D02*
D03*
X857251D02*
D03*
X1157251D02*
D03*
X435000Y278812D02*
D03*
X735000D02*
D03*
X1035000D02*
D03*
X1335000D02*
D03*
D119*
X247853Y238188D02*
D03*
X266649Y238188D02*
D03*
X566649D02*
D03*
X547853Y238188D02*
D03*
X866649Y238188D02*
D03*
X847853Y238188D02*
D03*
X1166649Y238188D02*
D03*
X1147853Y238188D02*
D03*
X425602Y239188D02*
D03*
X444398Y239188D02*
D03*
X744398D02*
D03*
X725602Y239188D02*
D03*
X1044398Y239188D02*
D03*
X1025602Y239188D02*
D03*
X1344398Y239188D02*
D03*
X1325602Y239188D02*
D03*
M02*
