M48
;Layer_Color=12566272
;FILE_FORMAT=4:4
METRIC,LZ
;TYPE=PLATED
T1F00S00C0.3000
T2F00S00C0.7800
T3F00S00C0.8000
T4F00S00C0.8890
T5F00S00C0.9000
T6F00S00C1.0000
T7F00S00C1.0100
T8F00S00C1.1000
T9F00S00C1.3000
T10F00S00C3.2000
%
T01
X0027Y0018
X003
X0033
X0036
X0039
X0036Y0024
X0033
X0021
Y003
Y0036
X00225Y0039
X00345
X00465
X00495
X00525
X0051Y0036
X0048
X00495Y0033
X0051Y003
X0048
X00495Y0027
X0051Y0024
X0048
X00495Y0021
X00525
X0054Y0018
X0057
X006
X0063
X0066
X0069
X0072
X0075
X0078
X00765Y0021
X0078Y0024
Y003
Y0036
X00765Y0039
X00645
X0066Y0024
X0063
X0051Y0018
X0048
X0045
X0042
X00465Y0021
X00795
X00825
X0084Y0018
X0087
X009
X0093
X0096
X0099
X0102
X0105
X0108
X0111
X0114
X0117
X01125Y0021
X01095
X01065
X0108Y0024
X0111
X01095Y0027
X0111Y003
X0108
X01095Y0033
X0111Y0036
X0108
X01095Y0039
X01125
X01065
X00945
X00825
X00795
X0081Y0036
X00795Y0033
X0081Y003
X00795Y0027
X0081Y0024
Y0018
X0093Y0024
X0096
X0123
X0126
Y0018
X0129
X0132
X0135
X0138
X0141
X0144
X0147
X015
X0153
X0156
X01575Y0021
X01545
X0156Y0024
X0153
X015
X0147
X0144
X0141
X0138
X01395Y0027
X01425
X01455
X01485
X01545
X01575
X0156Y003
X01515Y0033
Y0039
X01485
X01455
X01425
X01395
X01365
X0138Y0036
X0141
X01395Y0033
X0141Y003
X0138
X01395Y0021
X01425
X01365
X0123Y0018
X012
X01245Y0039
X01605
X01635
X0162Y0036
X01635Y0033
X0162Y003
X01635Y0027
X01605
X0162Y0024
X0159
X01605Y0021
X0159Y0018
Y0042
X0162
X01635Y0045
X01605
X0162Y0048
X0159
X01605Y0051
X01635
X0162Y0054
X0159
X01605Y0057
X01635
X0162Y006
X0159
X01605Y0063
X01635
X0162Y0066
X0159
X01605Y0069
X01635
X0162Y0072
X0159
X01605Y0075
X01635
X0162Y0078
X0159
X01575Y0075
Y0069
Y0063
Y0057
Y0051
Y0045
X01515
X01485
X01455
X01425
X01395
X01365
X0138Y0048
X0141
X0144
X0147
X015
X0153
X01515Y0051
X01485
X01455
X01425
X01395
X01365
X0138Y0054
X0141
X0144
X0147
X015
X0153
X01515Y0057
X01485
X01455
X01425
X01395
X01365
X01335
X0135Y006
X0132
X0129
X0128Y00621
Y00627
X01274
X01268
X01268Y00620961
X01274Y00621
X01224Y00621039
X01224Y00615
X01218
Y00621
X01212
Y00615
X012324Y00605882
X0123Y0066
X01245Y0069
X01215
X0123Y0072
X012
X01215Y0075
X01232Y00758
X0129Y0072
X0138
X0141
X0144
X0147
X015
X0153
X01515Y0075
X01485
X01455
X01425
X01395
X01365
X0138Y0078
X0141
X0144
X0147
X015
X0153
X01515Y0069
X01485
X01455
X01425
X01395
X0141Y0066
X0144
X0147
X015
X0153
X01515Y0063
X01485
X01455
X01425
X0144Y006
X0147
X015
X0153
X0141
X0138Y0066
X0135Y0078
Y0054
X0123
X01215Y0051
X0123Y0048
X01245Y0045
X0138Y0042
X0141
X0144
X0147
X015
X0153
X0111
X0108
X01095Y0045
X01125
X0111Y0048
X0108
X01095Y0051
X01125
X0111Y0054
X0108
X0105
X01065Y0057
X01095
X01125
X01035
X0105Y006
X0102
X0099
X0098Y00621
Y00627
X00974
X00968
X00968Y00620961
X00974Y00621
X00924Y00621039
X00924Y00615
X00918
Y00621
X00912
Y00615
X009324Y00605882
X0093Y0066
X00945Y0069
X00915
X0093Y0072
X009
X00915Y0075
X00932Y00758
X0087Y0078
X0084
X00825Y0075
X00795
X0081Y0072
X00825Y0069
X00795
X0081Y0066
X00825Y0057
X00795
X0081Y0054
X00825Y0051
X00795
X0081Y0048
X00825Y0045
X00795
X0081Y0042
X00945Y0045
X0093Y0048
X00915Y0051
X0093Y0054
X01065Y0051
Y0045
X0108Y0066
X0111
X01125Y0069
X01095
X0111Y0072
X0108
X01095Y0075
X01125
X0114Y0078
X0111
X0108
X0105
X0102
X01065Y0075
X0099Y0072
X0078
X00765Y0075
X0078Y0078
X0075
X0072
X00697233Y00774787
X0069Y0072
X0063
X006
X00615Y0075
X00632Y00758
X00645Y0069
X00615
X0063Y0066
X00624Y00621039
X00624Y00615
X00618
Y00621
X00612
Y00615
X006324Y00605882
X00668Y00620961
X00674Y00621
Y00627
X00668
X0068
Y00621
X0069Y006
X0072
X0075
X00765Y0057
X00735
X0075Y0054
X0078
X00765Y0051
X0078Y0048
X00765Y0045
X0078Y0042
X00645Y0045
X0063Y0048
X00615Y0051
X0063Y0054
X0051
X0048
X0045
X00465Y0057
X00495
X00525
Y0051
X00495
X00465
X0048Y0048
X0051
X00525Y0045
X00495
X00465
X0048Y0042
X0051
X00435Y0057
X0045Y006
X0042
X0048Y0066
X0051
X00525Y0069
X00495
X0051Y0072
X0048
X00495Y0075
X00525
X0054Y0078
X0057
X0051
X0048
X00465Y0075
X0078Y0066
X0038Y00627
Y00621
X00374
Y00627
X00368
X00368Y00620961
X0039Y006
X003324Y00605882
X00324Y00615
X00318
Y00621
X00312
Y00615
X00324Y00621039
X0033Y0066
X00345Y0069
X00315
X0033Y0072
X003
X00315Y0075
X00332Y00758
X00367091Y007505
X0027Y0078
X0024
X0021
X00225Y0075
X0021Y0072
X00225Y0069
X0021Y0066
X00225Y0057
X0021Y0054
X00225Y0051
X0021Y0048
X00225Y0045
X0021Y0042
X00345Y0045
X0033Y0048
X00315Y0051
X0033Y0054
X00285Y0081
X00255
X00225
X0024Y0084
X0027
X003
X00315Y0087
X00345
X00375
X0039Y009
X00375Y0093
X00345
X00315
X00285
X00255
X00225
X0024Y0096
X0027
X003
X00315Y0099
X00345
X00375
X0039Y0102
Y0108
X0036
X0033
X003
X0027
X0024
X0021
X00225Y0111
X00255
X00285
X00315
X00345
X00375
X0039Y0114
X0036
X0033
X003
X0027
X0024
X0021
X00225Y0117
X00255
X00285
X00315
X00345
X00375
X00345Y0105
X003Y0102
X0027
X0024
X0021
X00225Y0105
Y0099
X00255
X00285
X003Y009
X0027
X0024
X0021
X00225Y0087
X00255
X00285
X0021Y0084
Y0096
X0039
X0042
X00435Y0099
X00405
X0042Y0102
Y0108
X00435Y0111
X00405
X0042Y0114
X0045
X0048
X00495Y0117
X00465
X00435
X00405
X00555
X00585
X00615
X00645
X0066Y0114
X0069
X0072
X00705Y0117
X0076Y01169
X0078Y0114
Y0108
Y0102
Y0096
Y009
Y0084
X0069
X00705Y0087
X00675
X00645
X00615
X00585
X006Y009
X0057
X0054
X00525Y0093
X0054Y0096
X0057
X006
X00615Y0099
X00645
X00675
X00705
X0072Y0102
X0069
Y0108
X0072
X00705Y0111
X00675
X00645
X00615
X00617Y01134
X00598873Y01147
X00566Y01129
X0054Y0114
X00495Y0111
X0048Y0108
X0054Y0102
X0057
X006
X00585Y0099
Y0093
X00615
X00645
X00675
X00705
X0072Y0096
X0069
Y009
X0072
X00705Y0081
X00585
X006Y0084
X0057
X0054
X0051
X0048
X00479879Y00857879
X00525Y0087
Y0081
X00495
X00453Y00799
X00432Y00834
X0042Y009
X00435Y0093
X00405
X00525Y0099
X00645Y0105
X00638Y0108
X0066Y0108
X0081
X0084
X0087
X009
X0093
X0096
X0099
X00979786Y01124
X00975Y0117
X00945
X00915
X00885
X00858189Y01142
X00855Y0111
X00825
X0081Y0114
X00825Y0105
X0084Y0102
X0087
X009
X00915Y0099
X00945
X00975
X01005
X01035
X01065
X01095
X0111Y0096
X0114
X01155Y0099
X01185
X0117Y0102
X0114
X01125Y0105
X01095
X0111Y0108
X0114
X0117
X0108
Y0102
X0105
X0102
X0099
Y0096
X0102
X0105
X0108
X01095Y0093
X01125
X01155
X01185
Y0087
X01155
X01125
X01095
X01065
X01035
X01005
X00975
X00945
X00915
X009Y009
X0087
X00885Y0093
X00915
X00945
X00975
X01005
X01035
X01065
X0108Y009
X0111
X0114
Y0084
X0111
X0108
X0105
X0102
X0099
X01005Y0081
X01043Y00814265
X01065Y0081
X01095
X01125
X01155
X01185
X0105Y009
X0102
X0099
X009Y0096
X0087
X0084
X00817Y00959977
X00825Y0099
X00855
X00885
X00855Y0093
Y0087
X00825
X0081Y009
Y0084
X00825Y0081
X00855
X00885
X0087Y0084
X0081Y0102
X00945Y0105
X01035Y0111
Y0117
X01065
X01095
X01125
X01155
X012Y0108
X0123
X0126
X01245Y0105
Y0099
X01275
X01305
X01335
X01365
X01395
X01425
X0144Y0096
X0147
X015
X0153
X0156
X01575Y0099
X01545
X01515
X01485
X015Y0102
X0153
X0156
X01575Y0105
X01545
X01515
X01485
X01455
X01425
X0144Y0108
X0147
X015
X0153
X0156
X01575Y0111
X01545
X01515
X01485
X01455
X01425
X01395
X01365
X0138Y0114
X0141
X0144
X0147
X015
X0153
X0156
X0147Y0102
X0141
X0138
X01365Y0105
X0141Y0108
Y0096
X0138
X01395Y0093
X01425
X0144Y009
X0141
X0138
X01395Y0087
X01425
X01455
X0144Y0084
X0141
X0138
X01395Y0081
X01425
X01455
X01485
X01515
X01575
Y0087
X01545
X01515Y0093
X01485
X01365
X01335
X01305
X01275
X01245
X01215
X012Y0096
X01215Y0099
X012Y0102
X0129
Y0096
Y009
X01305Y0087
X01335
X01365
Y0081
X01335
X01305
X0129Y0084
X01275Y0087
X01245
X01215
X012Y009
Y0084
X0135Y0114
X01365Y0117
X0159Y0114
X0162
X01605Y0111
X0162Y0108
X0159
X01605Y0105
X0162Y0102
X0159
X01605Y0099
X0162Y009
X01635Y0087
X0162Y0084
X01635Y0081
Y0135
X0162Y0138
X0159
X01605Y0141
X01635
Y0147
X01605
X0162Y015
X0159
X01605Y0153
X0159Y0156
X0156
X0153
X015
X0147
X0144
X0141
X0138
X0135
X0132
X0129
X0126
X0123
X012
Y015
X0123
X0126
X0129
X0132
X0135
X0138
X0141
X0144
X0147
X015
X0156
X01545Y0153
X01575Y0141
Y0135
X01545
X0153Y0138
X01526Y0139175
X015Y0138
X0147
X0144
X0141
Y0135
X01425
X01455
Y0141
X01485
X01425
X01395
X01365
X01335
X01305
X0129Y0138
X0126
X01275Y0135
X01245
X0126Y0132
X0129
X01305Y0129
X01275
X0129Y0126
X0132
X01335
X0135
X01365Y0123
X01335
X01305
X0135Y012
Y0132
X0138
X0141
X01425Y0129
X01395
Y0135
X01365
X0138Y0138
X0135
X01245Y0141
X01215
X0123Y0144
X0126
X012Y0138
Y0132
X0123
X01215Y0129
X0123Y0126
X0126
X012
X01392427Y01518
X0117Y015
X0114
X01155Y0147
X01185
X0117Y0144
X0114
X0111
X01125Y0147
Y0153
X01095
X01065
X01035
X01005
X00975
X00945
X00885
X0087Y0156
X00885Y0147
X00912Y0145
X00945Y0141
X01005
X01035
X01065
X0108Y0138
X0111
X01125Y0141
X01185
X0117Y0138
X01185Y0135
X01155
X01125
X0114Y0132
X01185Y0129
X01155Y0123
X01124Y01232
X01095Y0123
X01065
X01035
X01005
X00975
X0099Y0126
X0096
X00975Y0129
X00996Y01327
X0099Y0138
X0102
X0105
Y015
X0108
Y0156
X0111
X0114
X0117
X0105
X0102
X0099
Y015
X0102
X00825Y0147
X00833Y0145
X0084Y0144
X0081
X00795Y0147
X008075Y013765
X008175
X008275
X008375
X008475
X008425Y013485
X008325
X008225
X008125
X008025
X0081Y0132
X00806382Y01301618
X00808031Y01280544
X0081Y0126
X0084
X0087
X008575Y0129
X00854Y013325
X0084Y0132
X00915Y0129
Y0123
X00885
X009Y012
X0093
X0102
X0105
X0108
X0111
X0114
X01102751Y01261
X01095Y0129
X0084Y012
X0078Y0126
X0078Y01274
X007715Y012975
Y013075
X00789575Y01299
Y013325
X007925Y013485
X00765Y0135
X007875Y013765
X00702Y01397
X00705Y0141
X00675
X00645
X00615
X00585
X00555
X00525
X00495
X00465
X00435
X00405
X0042Y0144
X0045
X0048
X0051
X0054
X0057
X006
X0063
X0066
X00645Y0147
X00615
X00585
X00555
X00525
X00495
X00465
X00435
X00405
X0042Y015
X0045
X0048
X0051
X0054
X0057
X006
X0063
X00645Y0153
X00615
X00585
X00555
X00525
X00495
X00465
X00435
X00405
X0042Y0156
X0045
X0048
X0051
X0054
X0057
X006
X0063
X0066
X00694Y01468
X00705Y0147
X0072Y0144
X00705Y0135
X0066Y0138
X0063
X006
X0057
X0054
X0051
X0048
X0045
X0042
X00435Y0135
X00465
X00495
X00525
X00555
X00585
X00615
X0063Y0132
X0066
Y0126
X0063
X006
X0057
X0054
X0051
X0048
X0045
X0042
X00435Y0129
X00465
X00495
X00525
X00555
X00585
X00616Y01294
X006Y0132
X0057
X0054
X0051
X0048
X0045
X0042
X00405Y0135
Y0129
Y0123
X00435
X00465
X00495
X00525
X00555
X0054Y012
X0051
X0048
X0045
X0042
X006
X00615Y0123
X00645
X0072Y012
X00737Y01296
X007435Y013025
X00765Y0153
X00375
X00345
X00315
X00285
X00255
X00225
X0024Y015
X0027
X003
X0033
X0036
X0039
X00375Y0147
X00345
X00315
X00285
X00255
X00225
X0024Y0144
X0027
X003
X0033
X0036
X0039
X00375Y0141
X00345
X00315
X00285
X00255
X00225
X0024Y0138
X0027
X003
X0033
X0036
X0039
X00375Y0135
X00345
X00315
X00285
X00255
X00225
X0024Y0132
X0027
X003
X0033
X0036
X0039
X00375Y0129
X00345
X00315
X00285
X00255
X00225
X0024Y0126
X0027
X003
X0033
X0036
X0039
X00375Y0123
X00345
X00315
X00285
X00255
X00225
X0024Y012
X0027
X003
X0033
X0036
X0039
X0021
Y0126
Y0132
Y0138
Y0144
Y015
X0027Y0156
X003
X0033
X0036
X0039
T02
X01487Y01287
Y013115
Y01336
Y013605
T03
X01552Y00799
X01565Y00925
X01615
X01602Y00799
X01448Y01281
Y013064
X013718
Y01281
X009568Y015098
X009314
X00906
Y015352
X009314
X009568
Y01586
X009314
X00906
X008448
X008194
X00794
Y015352
Y015098
X008194
X008448
Y015352
X008194
X00733
Y015098
X007076
X006822
Y015352
X007076
Y01586
X006822
X00733
T04
X002843Y01053
X003097
X003823Y01053
X004077
X005843Y01053
X006097
X006823Y01053
X007077
X008843Y01053
X009097
X009823Y01053
X010077
X011843Y01053
X012097
X012823Y01053
X013077
X01332848Y01138606
X01350809Y01156566
X01296079Y01175375
X01314039Y01193336
X01278684Y01228691
X01260723Y0121073
X01223954Y012475
X01241914Y01265461
X01318Y013677
Y013931
X011037Y01315159
X010783
T05
X014759Y00377
X015521
X01452Y00857
Y00907
X016065Y01449
Y01492999
T06
X01439Y00345
X01439Y00377
X01589
X01589Y00345
X01326Y00723
X01166
X01026
X00866
X00726
X00566
X00426
X00266
Y01053
X00426
X00566
X00726
X00866
X01026
X01166
X01326
X01511Y00973
Y00823
T07
X0025005Y003485
X0026Y00374
X00432Y00374
X00422Y003485
X0055005Y003485
X0056Y00374
X00732Y00374
X00722Y003485
X0085005Y003485
X0086Y00374
X01032Y00374
X01022Y003485
X0115005Y003485
X0116Y00374
X01332Y00374
X01322Y003485
X01332Y00425
X013419Y004505
X0116995Y004505
X0116Y00425
X01032Y00425
X010419Y004505
X0086995Y004505
X0086Y00425
X00732Y00425
X007419Y004505
X0056995Y004505
X0056Y00425
X00432Y00425
X004419Y004505
X0026995Y004505
X0026Y00425
T08
X00314Y00299
X00378
X00614
X00678
X00914
X00978
X01214
X01278
X0144Y00309
X01588
X01278Y00447
X01214
X00978
X00914
X00678
X00614
X00378
X00314
X01387842Y0118175
X01535842
X01536Y01232
X01388
X01087Y013916
Y01417
Y014424
Y014678
X00952344Y01331344
Y01305944
Y01280544
T09
X00296Y0022
X00346
X00396
X00596
X00646
X00696
X00896
X00946
X00996
X01196
X01246
X01296
X01464
X01514
X01564
X01606Y0118175
Y0123175
Y0128175
T10
X00226Y00196
X01634
X01373Y00621
X01119
X01073
X00819
X00773
X00519
X00473
X00219
X01634Y01578
X00226
M30
