G04*
G04 #@! TF.GenerationSoftware,Altium Limited,Altium Designer,20.1.14 (287)*
G04*
G04 Layer_Color=128*
%FSLAX44Y44*%
%MOMM*%
G71*
G04*
G04 #@! TF.SameCoordinates,3D168701-3FA7-4EF5-9C64-F6DF4846A73D*
G04*
G04*
G04 #@! TF.FilePolarity,Positive*
G04*
G01*
G75*
G04:AMPARAMS|DCode=25|XSize=2.02mm|YSize=1.68mm|CornerRadius=0.42mm|HoleSize=0mm|Usage=FLASHONLY|Rotation=180.000|XOffset=0mm|YOffset=0mm|HoleType=Round|Shape=RoundedRectangle|*
%AMROUNDEDRECTD25*
21,1,2.0200,0.8400,0,0,180.0*
21,1,1.1800,1.6800,0,0,180.0*
1,1,0.8400,-0.5900,0.4200*
1,1,0.8400,0.5900,0.4200*
1,1,0.8400,0.5900,-0.4200*
1,1,0.8400,-0.5900,-0.4200*
%
%ADD25ROUNDEDRECTD25*%
G04:AMPARAMS|DCode=29|XSize=1.6mm|YSize=1.75mm|CornerRadius=0.4mm|HoleSize=0mm|Usage=FLASHONLY|Rotation=270.000|XOffset=0mm|YOffset=0mm|HoleType=Round|Shape=RoundedRectangle|*
%AMROUNDEDRECTD29*
21,1,1.6000,0.9500,0,0,270.0*
21,1,0.8000,1.7500,0,0,270.0*
1,1,0.8000,-0.4750,-0.4000*
1,1,0.8000,-0.4750,0.4000*
1,1,0.8000,0.4750,0.4000*
1,1,0.8000,0.4750,-0.4000*
%
%ADD29ROUNDEDRECTD29*%
G04:AMPARAMS|DCode=32|XSize=1.6mm|YSize=1.75mm|CornerRadius=0.4mm|HoleSize=0mm|Usage=FLASHONLY|Rotation=0.000|XOffset=0mm|YOffset=0mm|HoleType=Round|Shape=RoundedRectangle|*
%AMROUNDEDRECTD32*
21,1,1.6000,0.9500,0,0,0.0*
21,1,0.8000,1.7500,0,0,0.0*
1,1,0.8000,0.4000,-0.4750*
1,1,0.8000,-0.4000,-0.4750*
1,1,0.8000,-0.4000,0.4750*
1,1,0.8000,0.4000,0.4750*
%
%ADD32ROUNDEDRECTD32*%
G04:AMPARAMS|DCode=106|XSize=1.25mm|YSize=0.6mm|CornerRadius=0.15mm|HoleSize=0mm|Usage=FLASHONLY|Rotation=0.000|XOffset=0mm|YOffset=0mm|HoleType=Round|Shape=RoundedRectangle|*
%AMROUNDEDRECTD106*
21,1,1.2500,0.3000,0,0,0.0*
21,1,0.9500,0.6000,0,0,0.0*
1,1,0.3000,0.4750,-0.1500*
1,1,0.3000,-0.4750,-0.1500*
1,1,0.3000,-0.4750,0.1500*
1,1,0.3000,0.4750,0.1500*
%
%ADD106ROUNDEDRECTD106*%
%ADD107R,0.6000X1.4000*%
%ADD108R,6.5500X3.2000*%
G04:AMPARAMS|DCode=109|XSize=0.8mm|YSize=0.6mm|CornerRadius=0.15mm|HoleSize=0mm|Usage=FLASHONLY|Rotation=180.000|XOffset=0mm|YOffset=0mm|HoleType=Round|Shape=RoundedRectangle|*
%AMROUNDEDRECTD109*
21,1,0.8000,0.3000,0,0,180.0*
21,1,0.5000,0.6000,0,0,180.0*
1,1,0.3000,-0.2500,0.1500*
1,1,0.3000,0.2500,0.1500*
1,1,0.3000,0.2500,-0.1500*
1,1,0.3000,-0.2500,-0.1500*
%
%ADD109ROUNDEDRECTD109*%
G04:AMPARAMS|DCode=110|XSize=5.6mm|YSize=2.3mm|CornerRadius=0.575mm|HoleSize=0mm|Usage=FLASHONLY|Rotation=180.000|XOffset=0mm|YOffset=0mm|HoleType=Round|Shape=RoundedRectangle|*
%AMROUNDEDRECTD110*
21,1,5.6000,1.1500,0,0,180.0*
21,1,4.4500,2.3000,0,0,180.0*
1,1,1.1500,-2.2250,0.5750*
1,1,1.1500,2.2250,0.5750*
1,1,1.1500,2.2250,-0.5750*
1,1,1.1500,-2.2250,-0.5750*
%
%ADD110ROUNDEDRECTD110*%
%ADD111R,3.3600X4.8600*%
%ADD112R,1.3900X1.4000*%
D25*
X1574000Y823000D02*
D03*
X1530000D02*
D03*
X335000Y259000D02*
D03*
X291000D02*
D03*
X591000D02*
D03*
X635000D02*
D03*
X891000D02*
D03*
X935000D02*
D03*
X1191000D02*
D03*
X1235000D02*
D03*
X357000D02*
D03*
X401000D02*
D03*
X701000D02*
D03*
X657000D02*
D03*
X1001000D02*
D03*
X957000D02*
D03*
X1301000D02*
D03*
X1257000D02*
D03*
D29*
X1507000Y1336000D02*
D03*
Y1356000D02*
D03*
Y1311500D02*
D03*
Y1291500D02*
D03*
X1607000Y944000D02*
D03*
Y964000D02*
D03*
X1596000Y888000D02*
D03*
Y908000D02*
D03*
X1585000Y927000D02*
D03*
Y947000D02*
D03*
X1596000Y869000D02*
D03*
Y849000D02*
D03*
X1241914Y1286400D02*
D03*
Y1306400D02*
D03*
X257251Y259000D02*
D03*
Y239000D02*
D03*
X557251D02*
D03*
Y259000D02*
D03*
X857251Y239000D02*
D03*
Y259000D02*
D03*
X1157251Y239000D02*
D03*
Y259000D02*
D03*
X435000Y260000D02*
D03*
Y240000D02*
D03*
X735000D02*
D03*
Y260000D02*
D03*
X1035000Y240000D02*
D03*
Y260000D02*
D03*
X1335000Y240000D02*
D03*
Y260000D02*
D03*
X311501Y794401D02*
D03*
Y774401D02*
D03*
X611501D02*
D03*
Y794401D02*
D03*
X911501Y774401D02*
D03*
Y794401D02*
D03*
X1211501Y774401D02*
D03*
Y794401D02*
D03*
X380501Y794401D02*
D03*
Y774401D02*
D03*
X680501D02*
D03*
Y794401D02*
D03*
X980501Y774401D02*
D03*
Y794401D02*
D03*
X1280501Y774401D02*
D03*
Y794401D02*
D03*
X332000Y794401D02*
D03*
Y774401D02*
D03*
X632000D02*
D03*
Y794401D02*
D03*
X932000Y774401D02*
D03*
Y794401D02*
D03*
X1232000Y774401D02*
D03*
Y794401D02*
D03*
X360000Y794401D02*
D03*
Y774401D02*
D03*
X660000D02*
D03*
Y794401D02*
D03*
X960000Y774401D02*
D03*
Y794401D02*
D03*
X1260000Y774401D02*
D03*
Y794401D02*
D03*
X437000Y768000D02*
D03*
Y748000D02*
D03*
X737000Y768000D02*
D03*
Y748000D02*
D03*
X1037000Y768000D02*
D03*
Y748000D02*
D03*
X1337000Y768000D02*
D03*
Y748000D02*
D03*
X255000Y768000D02*
D03*
Y748000D02*
D03*
X555000Y768000D02*
D03*
Y748000D02*
D03*
X855000Y768000D02*
D03*
Y748000D02*
D03*
X1155000Y768000D02*
D03*
Y748000D02*
D03*
D32*
X1501000Y1220000D02*
D03*
X1481000D02*
D03*
X1501000Y1170000D02*
D03*
X1481000D02*
D03*
X1501000Y1195000D02*
D03*
X1481000D02*
D03*
X1348000Y1281000D02*
D03*
X1328000Y1281000D02*
D03*
X1501000Y1245000D02*
D03*
X1481000D02*
D03*
X1629000Y1207000D02*
D03*
X1609000D02*
D03*
X721000Y1555000D02*
D03*
X741000D02*
D03*
X721000Y1489000D02*
D03*
X741000D02*
D03*
X694000Y1555000D02*
D03*
X674000D02*
D03*
X694000Y1489000D02*
D03*
X674000D02*
D03*
X833000Y1555000D02*
D03*
X853000D02*
D03*
X833000Y1489000D02*
D03*
X853000D02*
D03*
X806000Y1555000D02*
D03*
X786000D02*
D03*
X806000Y1489000D02*
D03*
X786000D02*
D03*
X944800Y1555000D02*
D03*
X964800D02*
D03*
X944800Y1489000D02*
D03*
X964800D02*
D03*
X918000Y1555000D02*
D03*
X898000D02*
D03*
X918000Y1489000D02*
D03*
X898000D02*
D03*
X332000Y814401D02*
D03*
X312000D02*
D03*
X612000D02*
D03*
X632000D02*
D03*
X912000D02*
D03*
X932000D02*
D03*
X1212000D02*
D03*
X1232000D02*
D03*
X360000Y814401D02*
D03*
X380000D02*
D03*
X680000D02*
D03*
X660000D02*
D03*
X980000D02*
D03*
X960000D02*
D03*
X1280000D02*
D03*
X1260000D02*
D03*
D106*
X1556500Y1197500D02*
D03*
Y1207000D02*
D03*
Y1216500D02*
D03*
X1581500D02*
D03*
Y1207000D02*
D03*
Y1197500D02*
D03*
D107*
X1577400Y907000D02*
D03*
X1564700D02*
D03*
X1552000D02*
D03*
X1577400Y847000D02*
D03*
X1564700D02*
D03*
X1552000D02*
D03*
X1539300Y907000D02*
D03*
Y847000D02*
D03*
D108*
X1493000Y858000D02*
D03*
Y906000D02*
D03*
D109*
X419000Y750500D02*
D03*
Y765500D02*
D03*
X719000Y750500D02*
D03*
Y765500D02*
D03*
X1019000Y750500D02*
D03*
Y765500D02*
D03*
X1319000Y750500D02*
D03*
Y765500D02*
D03*
X273000Y750500D02*
D03*
Y765500D02*
D03*
X573000Y750500D02*
D03*
Y765500D02*
D03*
X873000Y750500D02*
D03*
Y765500D02*
D03*
X1173000Y750500D02*
D03*
Y765500D02*
D03*
D110*
X302000Y341000D02*
D03*
Y415000D02*
D03*
X602000Y341000D02*
D03*
Y415000D02*
D03*
X902000D02*
D03*
Y341000D02*
D03*
X1202000D02*
D03*
Y415000D02*
D03*
X380000Y341000D02*
D03*
Y415000D02*
D03*
X680000Y341000D02*
D03*
Y415000D02*
D03*
X980000D02*
D03*
Y341000D02*
D03*
X1280000D02*
D03*
Y415000D02*
D03*
D111*
X257251Y277812D02*
D03*
X557251D02*
D03*
X857251D02*
D03*
X1157251D02*
D03*
X435000Y278812D02*
D03*
X735000D02*
D03*
X1035000D02*
D03*
X1335000D02*
D03*
D112*
X247853Y238188D02*
D03*
X266649Y238188D02*
D03*
X566649D02*
D03*
X547853Y238188D02*
D03*
X866649Y238188D02*
D03*
X847853Y238188D02*
D03*
X1166649Y238188D02*
D03*
X1147853Y238188D02*
D03*
X425602Y239188D02*
D03*
X444398Y239188D02*
D03*
X744398D02*
D03*
X725602Y239188D02*
D03*
X1044398Y239188D02*
D03*
X1025602Y239188D02*
D03*
X1344398Y239188D02*
D03*
X1325602Y239188D02*
D03*
M02*
