G04*
G04 #@! TF.GenerationSoftware,Altium Limited,Altium Designer,20.1.14 (287)*
G04*
G04 Layer_Color=10085887*
%FSLAX44Y44*%
%MOMM*%
G71*
G04*
G04 #@! TF.SameCoordinates,3D168701-3FA7-4EF5-9C64-F6DF4846A73D*
G04*
G04*
G04 #@! TF.FilePolarity,Positive*
G04*
G01*
G75*
%ADD10C,0.2500*%
%ADD11C,0.1500*%
%ADD12C,0.2000*%
%ADD13C,0.1000*%
%ADD14C,0.2540*%
G36*
X513579Y1322609D02*
X515000D01*
Y1321578D01*
X513579D01*
Y1319550D01*
X512652D01*
X508161Y1321371D01*
Y1322609D01*
X512606D01*
Y1323170D01*
X513579D01*
Y1322609D01*
D02*
G37*
G36*
X515000Y1317740D02*
X509639D01*
Y1316560D01*
X508917D01*
Y1316583D01*
X508906Y1316652D01*
X508894Y1316766D01*
X508871Y1316892D01*
X508848Y1317041D01*
X508803Y1317202D01*
X508745Y1317362D01*
X508677Y1317511D01*
X508665Y1317522D01*
X508642Y1317568D01*
X508596Y1317637D01*
X508539Y1317717D01*
X508459Y1317809D01*
X508367Y1317901D01*
X508276Y1317981D01*
X508161Y1318049D01*
Y1318771D01*
X515000D01*
Y1317740D01*
D02*
G37*
G36*
X513545Y1315976D02*
X513614D01*
X513694Y1315965D01*
X513866Y1315930D01*
X514072Y1315884D01*
X514278Y1315804D01*
X514473Y1315690D01*
X514656Y1315541D01*
X514679Y1315518D01*
X514725Y1315461D01*
X514794Y1315357D01*
X514874Y1315231D01*
X514954Y1315060D01*
X515023Y1314853D01*
X515069Y1314613D01*
X515092Y1314338D01*
Y1314258D01*
X515080Y1314212D01*
Y1314143D01*
X515069Y1314063D01*
X515034Y1313891D01*
X514989Y1313696D01*
X514908Y1313490D01*
X514805Y1313295D01*
X514656Y1313112D01*
X514633Y1313089D01*
X514576Y1313043D01*
X514473Y1312975D01*
X514336Y1312894D01*
X514152Y1312814D01*
X513946Y1312746D01*
X513694Y1312700D01*
X513419Y1312677D01*
X513213D01*
X513121Y1313674D01*
X513339D01*
X513350D01*
X513373D01*
X513408D01*
X513465Y1313685D01*
X513591Y1313708D01*
X513728Y1313754D01*
X513877Y1313834D01*
X514003Y1313948D01*
X514061Y1314017D01*
X514095Y1314109D01*
X514118Y1314200D01*
X514129Y1314315D01*
Y1314361D01*
X514118Y1314418D01*
X514106Y1314487D01*
X514084Y1314556D01*
X514061Y1314636D01*
X514015Y1314704D01*
X513958Y1314773D01*
X513946Y1314785D01*
X513923Y1314796D01*
X513877Y1314830D01*
X513820Y1314865D01*
X513751Y1314888D01*
X513660Y1314922D01*
X513557Y1314934D01*
X513442Y1314945D01*
X512732D01*
X512709D01*
X512663D01*
X512594Y1314934D01*
X512503Y1314922D01*
X512400Y1314899D01*
X512308Y1314865D01*
X512216Y1314819D01*
X512136Y1314762D01*
X512125Y1314750D01*
X512102Y1314727D01*
X512079Y1314682D01*
X512044Y1314624D01*
X512010Y1314533D01*
X511976Y1314429D01*
X511964Y1314315D01*
X511953Y1314166D01*
Y1313754D01*
X510968D01*
Y1314166D01*
X510956Y1314235D01*
X510945Y1314326D01*
X510922Y1314429D01*
X510887Y1314521D01*
X510842Y1314613D01*
X510784Y1314693D01*
X510773Y1314704D01*
X510750Y1314727D01*
X510704Y1314750D01*
X510635Y1314785D01*
X510555Y1314819D01*
X510452Y1314853D01*
X510338Y1314865D01*
X510189Y1314876D01*
X509662D01*
X509650D01*
X509616D01*
X509559Y1314865D01*
X509490Y1314853D01*
X509341Y1314819D01*
X509261Y1314773D01*
X509204Y1314727D01*
X509192Y1314716D01*
X509181Y1314704D01*
X509158Y1314670D01*
X509123Y1314613D01*
X509089Y1314556D01*
X509066Y1314487D01*
X509055Y1314395D01*
X509043Y1314292D01*
Y1314269D01*
X509055Y1314200D01*
X509078Y1314109D01*
X509135Y1314006D01*
X509215Y1313891D01*
X509272Y1313845D01*
X509341Y1313799D01*
X509421Y1313765D01*
X509524Y1313731D01*
X509627Y1313719D01*
X509753Y1313708D01*
X509914D01*
Y1312711D01*
X509685D01*
X509673D01*
X509650D01*
X509616D01*
X509559Y1312723D01*
X509421Y1312734D01*
X509261Y1312769D01*
X509066Y1312814D01*
X508871Y1312894D01*
X508677Y1312998D01*
X508505Y1313135D01*
X508482Y1313158D01*
X508436Y1313215D01*
X508367Y1313307D01*
X508287Y1313444D01*
X508207Y1313605D01*
X508138Y1313811D01*
X508092Y1314052D01*
X508069Y1314315D01*
Y1314384D01*
X508081Y1314441D01*
X508092Y1314578D01*
X508127Y1314750D01*
X508173Y1314934D01*
X508253Y1315128D01*
X508356Y1315323D01*
X508505Y1315495D01*
X508528Y1315518D01*
X508585Y1315564D01*
X508677Y1315632D01*
X508814Y1315712D01*
X508986Y1315781D01*
X509181Y1315850D01*
X509421Y1315896D01*
X509685Y1315919D01*
X510131D01*
X510154D01*
X510212D01*
X510292Y1315907D01*
X510406Y1315896D01*
X510521Y1315873D01*
X510658Y1315838D01*
X510796Y1315793D01*
X510922Y1315724D01*
X510933Y1315712D01*
X510979Y1315690D01*
X511036Y1315644D01*
X511105Y1315587D01*
X511197Y1315518D01*
X511277Y1315415D01*
X511357Y1315312D01*
X511437Y1315186D01*
Y1315197D01*
X511460Y1315220D01*
X511483Y1315254D01*
X511506Y1315312D01*
X511609Y1315438D01*
X511747Y1315587D01*
X511838Y1315667D01*
X511930Y1315735D01*
X512044Y1315804D01*
X512170Y1315862D01*
X512308Y1315919D01*
X512445Y1315953D01*
X512617Y1315976D01*
X512789Y1315988D01*
X513419D01*
X513431D01*
X513453D01*
X513499D01*
X513545Y1315976D01*
D02*
G37*
G36*
X515000Y1309286D02*
X508161D01*
Y1310317D01*
X514026D01*
Y1312173D01*
X515000D01*
Y1309286D01*
D02*
G37*
G36*
Y1305471D02*
X508161D01*
Y1308415D01*
X509146D01*
Y1306502D01*
X511048D01*
Y1308026D01*
X512022D01*
Y1306502D01*
X514026D01*
Y1308415D01*
X515000D01*
Y1305471D01*
D02*
G37*
G36*
X512148Y1301359D02*
X515000D01*
Y1300328D01*
X512148D01*
X508161Y1298942D01*
Y1300042D01*
X510773Y1300843D01*
X508161Y1301668D01*
Y1302745D01*
X512148Y1301359D01*
D02*
G37*
G36*
X513499Y1298369D02*
X513637Y1298358D01*
X513797Y1298323D01*
X513992Y1298277D01*
X514187Y1298197D01*
X514381Y1298083D01*
X514565Y1297934D01*
X514588Y1297911D01*
X514633Y1297854D01*
X514702Y1297762D01*
X514782Y1297625D01*
X514863Y1297453D01*
X514931Y1297258D01*
X514977Y1297017D01*
X515000Y1296754D01*
Y1295024D01*
X508161D01*
Y1296731D01*
X508173Y1296788D01*
X508184Y1296926D01*
X508218Y1297086D01*
X508264Y1297281D01*
X508344Y1297475D01*
X508459Y1297670D01*
X508608Y1297842D01*
X508631Y1297865D01*
X508688Y1297911D01*
X508791Y1297980D01*
X508929Y1298071D01*
X509089Y1298151D01*
X509295Y1298220D01*
X509536Y1298266D01*
X509799Y1298289D01*
X510154D01*
X510166D01*
X510200D01*
X510246D01*
X510303Y1298277D01*
X510383Y1298266D01*
X510464Y1298255D01*
X510670Y1298197D01*
X510887Y1298117D01*
X510991Y1298060D01*
X511105Y1297991D01*
X511208Y1297911D01*
X511300Y1297819D01*
X511392Y1297716D01*
X511472Y1297590D01*
X511483Y1297613D01*
X511506Y1297659D01*
X511540Y1297728D01*
X511598Y1297808D01*
X511678Y1297899D01*
X511758Y1298002D01*
X511861Y1298094D01*
X511987Y1298174D01*
X511999Y1298186D01*
X512044Y1298209D01*
X512125Y1298243D01*
X512216Y1298277D01*
X512342Y1298312D01*
X512480Y1298346D01*
X512640Y1298369D01*
X512812Y1298380D01*
X513373D01*
X513385D01*
X513408D01*
X513442D01*
X513499Y1298369D01*
D02*
G37*
G36*
X515000Y1289251D02*
X508161D01*
Y1292195D01*
X509146D01*
Y1290282D01*
X511048D01*
Y1291805D01*
X512022D01*
Y1290282D01*
X514026D01*
Y1292195D01*
X515000D01*
Y1289251D01*
D02*
G37*
G36*
X513499Y1288197D02*
X513637Y1288185D01*
X513797Y1288151D01*
X513992Y1288105D01*
X514187Y1288025D01*
X514381Y1287910D01*
X514565Y1287761D01*
X514588Y1287738D01*
X514633Y1287681D01*
X514702Y1287590D01*
X514782Y1287452D01*
X514863Y1287280D01*
X514931Y1287086D01*
X514977Y1286856D01*
X515000Y1286593D01*
Y1284966D01*
X508161D01*
Y1286662D01*
X508173Y1286719D01*
X508184Y1286845D01*
X508218Y1287017D01*
X508264Y1287200D01*
X508344Y1287395D01*
X508459Y1287590D01*
X508608Y1287761D01*
X508631Y1287784D01*
X508688Y1287830D01*
X508791Y1287899D01*
X508929Y1287991D01*
X509089Y1288071D01*
X509295Y1288139D01*
X509536Y1288185D01*
X509799Y1288208D01*
X513373D01*
X513385D01*
X513408D01*
X513442D01*
X513499Y1288197D01*
D02*
G37*
G36*
X515000Y1283111D02*
X513488Y1282881D01*
Y1281770D01*
X515000Y1281541D01*
Y1280510D01*
X508161Y1281644D01*
Y1283030D01*
X515000Y1284164D01*
Y1283111D01*
D02*
G37*
G36*
Y1278677D02*
X510315D01*
X515000Y1277703D01*
Y1276982D01*
X510315Y1276020D01*
X515000D01*
Y1275000D01*
X508161D01*
Y1276466D01*
X512537Y1277360D01*
X508161Y1278219D01*
Y1279708D01*
X515000D01*
Y1278677D01*
D02*
G37*
G36*
X507794Y1375284D02*
X508546Y1375216D01*
X509572Y1375011D01*
X510665Y1374669D01*
X511759Y1374191D01*
X512853Y1373507D01*
X513878Y1372619D01*
X514015Y1372482D01*
X514288Y1372140D01*
X514698Y1371525D01*
X515177Y1370705D01*
X515587Y1369611D01*
X515997Y1368381D01*
X516270Y1366945D01*
X516407Y1365305D01*
Y1364211D01*
X510460Y1363596D01*
Y1364758D01*
Y1364895D01*
Y1365168D01*
X510392Y1365578D01*
X510323Y1366057D01*
X510118Y1367219D01*
X509845Y1367834D01*
X509572Y1368313D01*
X509503Y1368381D01*
X509435Y1368517D01*
X509230Y1368723D01*
X508956Y1368928D01*
X508615Y1369133D01*
X508205Y1369338D01*
X507658Y1369474D01*
X507111Y1369543D01*
X506838D01*
X506564Y1369474D01*
X506154Y1369406D01*
X505744Y1369269D01*
X505334Y1369133D01*
X504924Y1368859D01*
X504582Y1368517D01*
X504514Y1368449D01*
X504445Y1368313D01*
X504309Y1368107D01*
X504172Y1367834D01*
X503967Y1367424D01*
X503830Y1366877D01*
X503762Y1366330D01*
X503694Y1365647D01*
Y1365578D01*
Y1365305D01*
X503762Y1364963D01*
X503830Y1364485D01*
X503967Y1363938D01*
X504172Y1363254D01*
X504445Y1362639D01*
X504855Y1361956D01*
X504924Y1361887D01*
X505061Y1361614D01*
X505402Y1361204D01*
X505881Y1360657D01*
X506496Y1359905D01*
X507248Y1359017D01*
X508205Y1357991D01*
X509367Y1356829D01*
X509435Y1356761D01*
X509572Y1356624D01*
X509777Y1356419D01*
X510118Y1356078D01*
X510460Y1355667D01*
X510870Y1355257D01*
X511896Y1354164D01*
X512921Y1353002D01*
X513946Y1351771D01*
X514835Y1350541D01*
X515245Y1349994D01*
X515587Y1349447D01*
X515655Y1349311D01*
X515860Y1348969D01*
X516133Y1348422D01*
X516407Y1347670D01*
X516680Y1346782D01*
X516954Y1345757D01*
X517159Y1344663D01*
X517227Y1343432D01*
Y1343296D01*
Y1342954D01*
X517159Y1342407D01*
X517090Y1341655D01*
X516954Y1340903D01*
X516680Y1340015D01*
X516407Y1339126D01*
X515997Y1338238D01*
X515928Y1338170D01*
X515792Y1337896D01*
X515518Y1337486D01*
X515108Y1336939D01*
X514561Y1336392D01*
X514015Y1335777D01*
X513263Y1335230D01*
X512442Y1334684D01*
X512374Y1334615D01*
X512032Y1334478D01*
X511554Y1334274D01*
X510939Y1334068D01*
X510187Y1333863D01*
X509298Y1333658D01*
X508341Y1333522D01*
X507248Y1333453D01*
X506769D01*
X506222Y1333522D01*
X505539Y1333590D01*
X504719Y1333727D01*
X503830Y1334000D01*
X502942Y1334274D01*
X502053Y1334684D01*
X501985Y1334752D01*
X501711Y1334957D01*
X501301Y1335230D01*
X500754Y1335641D01*
X500207Y1336119D01*
X499661Y1336734D01*
X499046Y1337418D01*
X498567Y1338238D01*
X498499Y1338374D01*
X498362Y1338648D01*
X498157Y1339126D01*
X497952Y1339742D01*
X497747Y1340493D01*
X497542Y1341382D01*
X497405Y1342339D01*
X497337Y1343432D01*
Y1344868D01*
X503283Y1345483D01*
Y1343979D01*
Y1343911D01*
Y1343638D01*
X503352Y1343228D01*
X503420Y1342749D01*
X503557Y1342202D01*
X503694Y1341587D01*
X503967Y1341040D01*
X504309Y1340493D01*
X504377Y1340425D01*
X504514Y1340288D01*
X504719Y1340083D01*
X505061Y1339878D01*
X505471Y1339605D01*
X506017Y1339400D01*
X506564Y1339263D01*
X507248Y1339195D01*
X507521D01*
X507863Y1339263D01*
X508273Y1339332D01*
X508751Y1339468D01*
X509230Y1339605D01*
X509708Y1339878D01*
X510118Y1340220D01*
X510187Y1340288D01*
X510323Y1340425D01*
X510460Y1340630D01*
X510665Y1340972D01*
X510870Y1341382D01*
X511075Y1341929D01*
X511144Y1342476D01*
X511212Y1343091D01*
Y1343159D01*
Y1343432D01*
X511144Y1343843D01*
X511075Y1344321D01*
X510939Y1344868D01*
X510734Y1345483D01*
X510460Y1346167D01*
X510050Y1346850D01*
X509982Y1346918D01*
X509845Y1347192D01*
X509503Y1347602D01*
X509025Y1348149D01*
X508410Y1348901D01*
X507658Y1349789D01*
X506701Y1350746D01*
X505539Y1351908D01*
X505471Y1351976D01*
X505334Y1352113D01*
X505129Y1352318D01*
X504787Y1352660D01*
X504035Y1353412D01*
X503078Y1354437D01*
X501985Y1355531D01*
X500959Y1356761D01*
X500071Y1357923D01*
X499661Y1358538D01*
X499319Y1359085D01*
X499251Y1359222D01*
X499046Y1359563D01*
X498772Y1360179D01*
X498499Y1360930D01*
X498225Y1361887D01*
X497952Y1362913D01*
X497747Y1364075D01*
X497678Y1365305D01*
Y1365373D01*
Y1365510D01*
Y1365784D01*
X497747Y1366057D01*
Y1366467D01*
X497815Y1366945D01*
X498020Y1367971D01*
X498294Y1369133D01*
X498704Y1370363D01*
X499319Y1371525D01*
X500139Y1372619D01*
X500276Y1372755D01*
X500618Y1373029D01*
X501165Y1373507D01*
X501985Y1373986D01*
X502942Y1374464D01*
X504104Y1374942D01*
X505471Y1375216D01*
X507043Y1375353D01*
X507453D01*
X507794Y1375284D01*
D02*
G37*
G36*
X290779Y1334000D02*
X284217D01*
X276083Y1360110D01*
Y1334000D01*
X270000D01*
Y1374806D01*
X276835D01*
X284696Y1347397D01*
Y1374806D01*
X290779D01*
Y1334000D01*
D02*
G37*
G36*
X344571D02*
X337736D01*
X334455Y1360862D01*
X331175Y1334000D01*
X324408D01*
X318393Y1374806D01*
X324613D01*
X328030Y1347192D01*
X331380Y1374806D01*
X337668D01*
X341086Y1347192D01*
X344435Y1374806D01*
X350586D01*
X344571Y1334000D01*
D02*
G37*
G36*
X483803Y1374738D02*
X484555Y1374669D01*
X485580Y1374464D01*
X486674Y1374191D01*
X487836Y1373712D01*
X488998Y1373029D01*
X490023Y1372140D01*
X490160Y1372003D01*
X490433Y1371662D01*
X490843Y1371046D01*
X491390Y1370226D01*
X491869Y1369269D01*
X492279Y1368039D01*
X492552Y1366604D01*
X492689Y1365032D01*
Y1360520D01*
Y1360384D01*
Y1360042D01*
X492621Y1359563D01*
X492552Y1358880D01*
X492416Y1358128D01*
X492210Y1357308D01*
X491937Y1356419D01*
X491595Y1355599D01*
X491527Y1355531D01*
X491390Y1355257D01*
X491117Y1354847D01*
X490775Y1354369D01*
X490365Y1353822D01*
X489818Y1353207D01*
X489203Y1352660D01*
X488451Y1352182D01*
X493646Y1334000D01*
X487221D01*
X482710Y1350815D01*
X479497D01*
Y1334000D01*
X473345D01*
Y1374806D01*
X483461D01*
X483803Y1374738D01*
D02*
G37*
G36*
X468151Y1368928D02*
X456736D01*
Y1357581D01*
X465827D01*
Y1351771D01*
X456736D01*
Y1339810D01*
X468151D01*
Y1334000D01*
X450584D01*
Y1374806D01*
X468151D01*
Y1368928D01*
D02*
G37*
G36*
X435479Y1374738D02*
X436231Y1374669D01*
X437256Y1374464D01*
X438349Y1374191D01*
X439511Y1373712D01*
X440673Y1373029D01*
X441699Y1372140D01*
X441835Y1372003D01*
X442109Y1371662D01*
X442519Y1371046D01*
X443066Y1370226D01*
X443544Y1369269D01*
X443954Y1368039D01*
X444228Y1366604D01*
X444364Y1365032D01*
Y1343706D01*
Y1343638D01*
Y1343501D01*
Y1343296D01*
X444296Y1342954D01*
X444228Y1342134D01*
X444023Y1341177D01*
X443749Y1340015D01*
X443271Y1338853D01*
X442587Y1337691D01*
X441699Y1336597D01*
X441562Y1336461D01*
X441220Y1336187D01*
X440673Y1335777D01*
X439853Y1335299D01*
X438828Y1334820D01*
X437666Y1334410D01*
X436299Y1334137D01*
X434727Y1334000D01*
X425021D01*
Y1374806D01*
X435137D01*
X435479Y1374738D01*
D02*
G37*
G36*
X409164Y1339810D02*
X420236D01*
Y1334000D01*
X403012D01*
Y1374806D01*
X409164D01*
Y1339810D01*
D02*
G37*
G36*
X372664Y1368928D02*
X361591D01*
Y1356966D01*
X370340D01*
Y1351156D01*
X361591D01*
Y1334000D01*
X355439D01*
Y1374806D01*
X372664D01*
Y1368928D01*
D02*
G37*
G36*
X315112D02*
X303697D01*
Y1357581D01*
X312788D01*
Y1351771D01*
X303697D01*
Y1339810D01*
X315112D01*
Y1334000D01*
X297546D01*
Y1374806D01*
X315112D01*
Y1368928D01*
D02*
G37*
G36*
X387564Y1375284D02*
X388385Y1375216D01*
X389410Y1375011D01*
X390504Y1374669D01*
X391734Y1374191D01*
X392896Y1373507D01*
X393989Y1372619D01*
X394126Y1372482D01*
X394400Y1372140D01*
X394878Y1371525D01*
X395356Y1370705D01*
X395835Y1369748D01*
X396313Y1368517D01*
X396587Y1367082D01*
X396724Y1365510D01*
Y1343228D01*
Y1343159D01*
Y1343022D01*
Y1342817D01*
X396655Y1342476D01*
X396587Y1341655D01*
X396382Y1340699D01*
X396040Y1339536D01*
X395561Y1338374D01*
X394878Y1337213D01*
X393989Y1336119D01*
X393853Y1335982D01*
X393511Y1335709D01*
X392896Y1335299D01*
X392076Y1334820D01*
X391050Y1334274D01*
X389820Y1333863D01*
X388385Y1333590D01*
X386813Y1333453D01*
X386403D01*
X386061Y1333522D01*
X385241Y1333590D01*
X384284Y1333795D01*
X383122Y1334137D01*
X381891Y1334547D01*
X380729Y1335230D01*
X379636Y1336119D01*
X379499Y1336256D01*
X379226Y1336597D01*
X378747Y1337213D01*
X378269Y1338033D01*
X377790Y1339058D01*
X377312Y1340220D01*
X377038Y1341655D01*
X376902Y1343228D01*
Y1365510D01*
Y1365578D01*
Y1365715D01*
Y1365920D01*
X376970Y1366262D01*
X377038Y1367082D01*
X377243Y1368039D01*
X377585Y1369201D01*
X378064Y1370363D01*
X378747Y1371525D01*
X379636Y1372619D01*
X379772Y1372755D01*
X380114Y1373029D01*
X380729Y1373507D01*
X381549Y1373986D01*
X382575Y1374464D01*
X383805Y1374942D01*
X385241Y1375216D01*
X386813Y1375353D01*
X387223D01*
X387564Y1375284D01*
D02*
G37*
G36*
X502605Y1274492D02*
X270000D01*
Y1323402D01*
X502605D01*
Y1274492D01*
D02*
G37*
%LPC*%
G36*
X512606Y1321578D02*
X509914D01*
X512606Y1320524D01*
Y1321578D01*
D02*
G37*
G36*
X513396Y1297338D02*
X512709D01*
X512697D01*
X512652D01*
X512583Y1297327D01*
X512503Y1297315D01*
X512411Y1297292D01*
X512319Y1297258D01*
X512239Y1297212D01*
X512159Y1297155D01*
X512148Y1297143D01*
X512125Y1297120D01*
X512102Y1297086D01*
X512067Y1297017D01*
X512033Y1296949D01*
X511999Y1296846D01*
X511987Y1296742D01*
X511976Y1296605D01*
Y1296055D01*
X514026D01*
Y1296754D01*
X514015Y1296811D01*
X514003Y1296880D01*
X513958Y1297029D01*
X513923Y1297097D01*
X513866Y1297166D01*
X513854Y1297178D01*
X513832Y1297189D01*
X513797Y1297224D01*
X513740Y1297258D01*
X513671Y1297281D01*
X513591Y1297315D01*
X513499Y1297327D01*
X513396Y1297338D01*
D02*
G37*
G36*
X510269Y1297246D02*
X509776D01*
X509765D01*
X509730D01*
X509673Y1297235D01*
X509604Y1297224D01*
X509536Y1297201D01*
X509456Y1297178D01*
X509387Y1297132D01*
X509318Y1297075D01*
X509307Y1297063D01*
X509295Y1297040D01*
X509261Y1297006D01*
X509226Y1296960D01*
X509204Y1296891D01*
X509169Y1296811D01*
X509158Y1296720D01*
X509146Y1296616D01*
Y1296055D01*
X511002D01*
Y1296571D01*
X510991Y1296639D01*
X510979Y1296720D01*
X510956Y1296811D01*
X510922Y1296903D01*
X510876Y1296994D01*
X510819Y1297063D01*
X510807Y1297075D01*
X510784Y1297097D01*
X510739Y1297120D01*
X510681Y1297155D01*
X510601Y1297189D01*
X510509Y1297224D01*
X510395Y1297235D01*
X510269Y1297246D01*
D02*
G37*
G36*
X513396Y1287177D02*
X509776D01*
X509765D01*
X509730D01*
X509673Y1287166D01*
X509604Y1287154D01*
X509536Y1287131D01*
X509456Y1287108D01*
X509387Y1287063D01*
X509318Y1287005D01*
X509307Y1286994D01*
X509295Y1286971D01*
X509261Y1286937D01*
X509226Y1286891D01*
X509204Y1286822D01*
X509169Y1286742D01*
X509158Y1286650D01*
X509146Y1286536D01*
Y1285997D01*
X514026D01*
Y1286582D01*
X514015Y1286639D01*
X514003Y1286707D01*
X513958Y1286868D01*
X513923Y1286937D01*
X513866Y1287005D01*
X513854Y1287017D01*
X513832Y1287028D01*
X513797Y1287063D01*
X513740Y1287097D01*
X513671Y1287120D01*
X513591Y1287154D01*
X513499Y1287166D01*
X513396Y1287177D01*
D02*
G37*
G36*
X512491Y1282744D02*
X509627Y1282332D01*
X512491Y1281908D01*
Y1282744D01*
D02*
G37*
G36*
X482710Y1368928D02*
X479497D01*
Y1356624D01*
X482983D01*
X483325Y1356693D01*
X483735Y1356761D01*
X484692Y1357034D01*
X485102Y1357240D01*
X485512Y1357581D01*
X485580Y1357650D01*
X485649Y1357786D01*
X485854Y1357991D01*
X486059Y1358333D01*
X486195Y1358743D01*
X486401Y1359222D01*
X486469Y1359769D01*
X486537Y1360452D01*
Y1365168D01*
Y1365237D01*
Y1365442D01*
X486469Y1365784D01*
X486401Y1366194D01*
X486264Y1366604D01*
X486127Y1367082D01*
X485854Y1367492D01*
X485512Y1367902D01*
X485444Y1367971D01*
X485307Y1368039D01*
X485102Y1368244D01*
X484828Y1368449D01*
X484418Y1368586D01*
X483940Y1368791D01*
X483393Y1368859D01*
X482710Y1368928D01*
D02*
G37*
G36*
X434385D02*
X431173D01*
Y1339810D01*
X434659D01*
X435000Y1339878D01*
X435410Y1339947D01*
X436367Y1340220D01*
X436777Y1340425D01*
X437188Y1340767D01*
X437256Y1340835D01*
X437324Y1340972D01*
X437529Y1341177D01*
X437734Y1341519D01*
X437871Y1341929D01*
X438076Y1342407D01*
X438144Y1342954D01*
X438213Y1343569D01*
Y1365168D01*
Y1365237D01*
Y1365442D01*
X438144Y1365784D01*
X438076Y1366194D01*
X437939Y1366604D01*
X437803Y1367082D01*
X437529Y1367492D01*
X437188Y1367902D01*
X437119Y1367971D01*
X436982Y1368039D01*
X436777Y1368244D01*
X436504Y1368449D01*
X436094Y1368586D01*
X435616Y1368791D01*
X435069Y1368859D01*
X434385Y1368928D01*
D02*
G37*
G36*
X386813Y1369543D02*
X386539D01*
X386197Y1369474D01*
X385856Y1369406D01*
X385377Y1369269D01*
X384967Y1369064D01*
X384489Y1368791D01*
X384078Y1368449D01*
X384010Y1368381D01*
X383942Y1368244D01*
X383805Y1368039D01*
X383600Y1367697D01*
X383395Y1367287D01*
X383258Y1366809D01*
X383190Y1366194D01*
X383122Y1365510D01*
Y1343228D01*
Y1343159D01*
Y1342886D01*
X383190Y1342544D01*
X383258Y1342134D01*
X383532Y1341177D01*
X383737Y1340699D01*
X384078Y1340220D01*
X384147Y1340152D01*
X384284Y1340083D01*
X384489Y1339878D01*
X384830Y1339742D01*
X385172Y1339536D01*
X385651Y1339332D01*
X386197Y1339263D01*
X386813Y1339195D01*
X387086D01*
X387428Y1339263D01*
X387838Y1339332D01*
X388248Y1339468D01*
X388726Y1339605D01*
X389137Y1339878D01*
X389547Y1340220D01*
X389615Y1340288D01*
X389683Y1340425D01*
X389888Y1340699D01*
X390093Y1341040D01*
X390230Y1341450D01*
X390435Y1341929D01*
X390504Y1342544D01*
X390572Y1343228D01*
Y1365510D01*
Y1365578D01*
Y1365852D01*
X390504Y1366194D01*
X390435Y1366604D01*
X390299Y1367082D01*
X390162Y1367561D01*
X389888Y1368039D01*
X389547Y1368449D01*
X389478Y1368517D01*
X389342Y1368654D01*
X389137Y1368791D01*
X388863Y1368996D01*
X388453Y1369201D01*
X387975Y1369406D01*
X387428Y1369474D01*
X386813Y1369543D01*
D02*
G37*
G36*
X397633Y1317894D02*
X391730D01*
X387477Y1305771D01*
X382970Y1317894D01*
X376813D01*
X383859Y1299550D01*
X376306Y1280000D01*
X382272D01*
X386906Y1293203D01*
X391730Y1280000D01*
X397950D01*
X390524Y1299296D01*
X397633Y1317894D01*
D02*
G37*
G36*
X350471D02*
X344568D01*
X340315Y1305771D01*
X335809Y1317894D01*
X329652D01*
X336697Y1299550D01*
X329144Y1280000D01*
X335111D01*
X339744Y1293203D01*
X344568Y1280000D01*
X350789D01*
X343362Y1299296D01*
X350471Y1317894D01*
D02*
G37*
G36*
X459775Y1301708D02*
X446762D01*
Y1296123D01*
X459775D01*
Y1301708D01*
D02*
G37*
G36*
X324828Y1317894D02*
X316576D01*
X311815Y1293647D01*
X306864Y1317894D01*
X298739D01*
Y1280000D01*
X304389D01*
Y1305961D01*
X309721Y1280000D01*
X313720D01*
X319115Y1305961D01*
Y1280000D01*
X324828D01*
Y1317894D01*
D02*
G37*
G36*
X482943D02*
X477230D01*
X472850Y1288061D01*
X468534Y1317894D01*
X462694D01*
X468978Y1280000D01*
X476659D01*
X482943Y1317894D01*
D02*
G37*
G36*
X497605D02*
X493606D01*
X493226Y1317260D01*
X492781Y1316752D01*
X492274Y1316244D01*
X491766Y1315800D01*
X491321Y1315482D01*
X490941Y1315228D01*
X490687Y1315101D01*
X490623Y1315038D01*
X489798Y1314657D01*
X488909Y1314340D01*
X488021Y1314086D01*
X487196Y1313959D01*
X486497Y1313832D01*
X485863Y1313768D01*
X485482Y1313705D01*
X485355D01*
Y1309706D01*
X491893D01*
Y1280000D01*
X497605D01*
Y1317894D01*
D02*
G37*
G36*
X437559D02*
X429878D01*
X423594Y1280000D01*
X429307D01*
X430576Y1288379D01*
X436733D01*
X438003Y1280000D01*
X443842D01*
X437559Y1317894D01*
D02*
G37*
G36*
X284394D02*
X275000D01*
Y1280000D01*
X284013D01*
X285473Y1280127D01*
X286743Y1280381D01*
X287822Y1280762D01*
X288774Y1281206D01*
X289536Y1281650D01*
X290044Y1282031D01*
X290361Y1282285D01*
X290488Y1282412D01*
X291313Y1283428D01*
X291948Y1284507D01*
X292392Y1285586D01*
X292646Y1286665D01*
X292836Y1287554D01*
X292900Y1288315D01*
X292963Y1288633D01*
Y1308817D01*
X292836Y1310277D01*
X292582Y1311610D01*
X292202Y1312753D01*
X291757Y1313642D01*
X291250Y1314403D01*
X290869Y1314975D01*
X290615Y1315292D01*
X290488Y1315419D01*
X289536Y1316244D01*
X288457Y1316879D01*
X287378Y1317323D01*
X286362Y1317577D01*
X285410Y1317767D01*
X284712Y1317831D01*
X284394Y1317894D01*
D02*
G37*
G36*
X411153Y1318402D02*
X410709D01*
X409185Y1318275D01*
X407852Y1318021D01*
X406710Y1317641D01*
X405758Y1317196D01*
X404996Y1316752D01*
X404425Y1316371D01*
X404107Y1316117D01*
X403980Y1315990D01*
X403155Y1315038D01*
X402584Y1313959D01*
X402140Y1312880D01*
X401886Y1311864D01*
X401695Y1310912D01*
X401632Y1310150D01*
X401568Y1309833D01*
Y1309643D01*
Y1309516D01*
Y1309452D01*
Y1306977D01*
X401632Y1306088D01*
X401695Y1305199D01*
X401886Y1304438D01*
X402076Y1303803D01*
X402203Y1303295D01*
X402393Y1302851D01*
X402457Y1302597D01*
X402520Y1302534D01*
X402965Y1301899D01*
X403409Y1301328D01*
X403853Y1300820D01*
X404361Y1300439D01*
X404742Y1300121D01*
X405060Y1299868D01*
X405313Y1299741D01*
X405377Y1299677D01*
X404679Y1299296D01*
X404044Y1298852D01*
X403473Y1298344D01*
X403092Y1297900D01*
X402711Y1297455D01*
X402457Y1297138D01*
X402330Y1296884D01*
X402267Y1296821D01*
X401886Y1296059D01*
X401632Y1295297D01*
X401441Y1294536D01*
X401315Y1293837D01*
X401251Y1293203D01*
X401188Y1292695D01*
Y1288759D01*
X401315Y1287236D01*
X401568Y1285840D01*
X401949Y1284697D01*
X402457Y1283682D01*
X402901Y1282920D01*
X403282Y1282349D01*
X403536Y1282031D01*
X403663Y1281904D01*
X404679Y1281079D01*
X405821Y1280508D01*
X406964Y1280063D01*
X408106Y1279810D01*
X409122Y1279619D01*
X409566Y1279556D01*
X409947D01*
X410264Y1279492D01*
X410709D01*
X412296Y1279619D01*
X413755Y1279873D01*
X414962Y1280254D01*
X415977Y1280698D01*
X416739Y1281143D01*
X417310Y1281523D01*
X417627Y1281777D01*
X417754Y1281904D01*
X418580Y1282920D01*
X419214Y1283999D01*
X419659Y1285141D01*
X419912Y1286284D01*
X420103Y1287236D01*
X420166Y1287681D01*
Y1288061D01*
X420230Y1288315D01*
Y1292251D01*
X420166Y1293203D01*
X420039Y1294091D01*
X419912Y1294853D01*
X419722Y1295551D01*
X419468Y1296059D01*
X419341Y1296503D01*
X419214Y1296757D01*
X419151Y1296821D01*
X418707Y1297519D01*
X418199Y1298090D01*
X417691Y1298535D01*
X417183Y1298979D01*
X416739Y1299296D01*
X416358Y1299487D01*
X416104Y1299614D01*
X416041Y1299677D01*
X416675Y1300121D01*
X417247Y1300566D01*
X417754Y1301010D01*
X418135Y1301518D01*
X418453Y1301899D01*
X418643Y1302216D01*
X418770Y1302470D01*
X418834Y1302534D01*
X419151Y1303295D01*
X419405Y1304057D01*
X419595Y1304755D01*
X419722Y1305453D01*
X419786Y1306088D01*
X419849Y1306532D01*
Y1306850D01*
Y1306977D01*
Y1309452D01*
X419722Y1310912D01*
X419468Y1312245D01*
X419087Y1313388D01*
X418643Y1314276D01*
X418199Y1315038D01*
X417818Y1315546D01*
X417564Y1315863D01*
X417437Y1315990D01*
X416485Y1316815D01*
X415342Y1317387D01*
X414263Y1317831D01*
X413184Y1318085D01*
X412232Y1318275D01*
X411788Y1318339D01*
X411407D01*
X411153Y1318402D01*
D02*
G37*
G36*
X363991D02*
X363547D01*
X362024Y1318275D01*
X360691Y1318021D01*
X359548Y1317641D01*
X358596Y1317196D01*
X357834Y1316752D01*
X357263Y1316371D01*
X356946Y1316117D01*
X356819Y1315990D01*
X355994Y1315038D01*
X355422Y1313959D01*
X354978Y1312880D01*
X354724Y1311864D01*
X354534Y1310912D01*
X354470Y1310150D01*
X354407Y1309833D01*
Y1309643D01*
Y1309516D01*
Y1309452D01*
Y1306977D01*
X354470Y1306088D01*
X354534Y1305199D01*
X354724Y1304438D01*
X354915Y1303803D01*
X355042Y1303295D01*
X355232Y1302851D01*
X355295Y1302597D01*
X355359Y1302534D01*
X355803Y1301899D01*
X356247Y1301328D01*
X356692Y1300820D01*
X357200Y1300439D01*
X357580Y1300121D01*
X357898Y1299868D01*
X358152Y1299741D01*
X358215Y1299677D01*
X357517Y1299296D01*
X356882Y1298852D01*
X356311Y1298344D01*
X355930Y1297900D01*
X355549Y1297455D01*
X355295Y1297138D01*
X355168Y1296884D01*
X355105Y1296821D01*
X354724Y1296059D01*
X354470Y1295297D01*
X354280Y1294536D01*
X354153Y1293837D01*
X354089Y1293203D01*
X354026Y1292695D01*
Y1288759D01*
X354153Y1287236D01*
X354407Y1285840D01*
X354788Y1284697D01*
X355295Y1283682D01*
X355740Y1282920D01*
X356120Y1282349D01*
X356374Y1282031D01*
X356501Y1281904D01*
X357517Y1281079D01*
X358660Y1280508D01*
X359802Y1280063D01*
X360945Y1279810D01*
X361960Y1279619D01*
X362405Y1279556D01*
X362785D01*
X363103Y1279492D01*
X363547D01*
X365134Y1279619D01*
X366594Y1279873D01*
X367800Y1280254D01*
X368815Y1280698D01*
X369577Y1281143D01*
X370148Y1281523D01*
X370466Y1281777D01*
X370593Y1281904D01*
X371418Y1282920D01*
X372053Y1283999D01*
X372497Y1285141D01*
X372751Y1286284D01*
X372941Y1287236D01*
X373005Y1287681D01*
Y1288061D01*
X373068Y1288315D01*
Y1292251D01*
X373005Y1293203D01*
X372878Y1294091D01*
X372751Y1294853D01*
X372561Y1295551D01*
X372307Y1296059D01*
X372180Y1296503D01*
X372053Y1296757D01*
X371989Y1296821D01*
X371545Y1297519D01*
X371037Y1298090D01*
X370529Y1298535D01*
X370022Y1298979D01*
X369577Y1299296D01*
X369196Y1299487D01*
X368942Y1299614D01*
X368879Y1299677D01*
X369514Y1300121D01*
X370085Y1300566D01*
X370593Y1301010D01*
X370974Y1301518D01*
X371291Y1301899D01*
X371481Y1302216D01*
X371608Y1302470D01*
X371672Y1302534D01*
X371989Y1303295D01*
X372243Y1304057D01*
X372434Y1304755D01*
X372561Y1305453D01*
X372624Y1306088D01*
X372687Y1306532D01*
Y1306850D01*
Y1306977D01*
Y1309452D01*
X372561Y1310912D01*
X372307Y1312245D01*
X371926Y1313388D01*
X371481Y1314276D01*
X371037Y1315038D01*
X370656Y1315546D01*
X370402Y1315863D01*
X370275Y1315990D01*
X369323Y1316815D01*
X368181Y1317387D01*
X367102Y1317831D01*
X366023Y1318085D01*
X365070Y1318275D01*
X364626Y1318339D01*
X364245D01*
X363991Y1318402D01*
D02*
G37*
%LPD*%
G36*
X435972Y1293901D02*
X431338D01*
X433686Y1309770D01*
X435972Y1293901D01*
D02*
G37*
G36*
X284331Y1312372D02*
X284839Y1312309D01*
X285283Y1312118D01*
X285664Y1311991D01*
X285918Y1311801D01*
X286108Y1311610D01*
X286235Y1311547D01*
X286299Y1311483D01*
X286616Y1311103D01*
X286870Y1310722D01*
X286997Y1310277D01*
X287124Y1309897D01*
X287187Y1309516D01*
X287251Y1309198D01*
Y1309008D01*
Y1308944D01*
Y1288887D01*
X287187Y1288315D01*
X287124Y1287807D01*
X286933Y1287363D01*
X286806Y1286982D01*
X286616Y1286665D01*
X286425Y1286474D01*
X286362Y1286348D01*
X286299Y1286284D01*
X285918Y1285967D01*
X285537Y1285776D01*
X284648Y1285522D01*
X284267Y1285459D01*
X283950Y1285395D01*
X280713D01*
Y1312436D01*
X283696D01*
X284331Y1312372D01*
D02*
G37*
G36*
X411280Y1312943D02*
X411788Y1312880D01*
X412232Y1312753D01*
X412613Y1312563D01*
X412867Y1312372D01*
X413057Y1312245D01*
X413184Y1312182D01*
X413248Y1312118D01*
X413565Y1311801D01*
X413755Y1311357D01*
X414009Y1310531D01*
X414073Y1310150D01*
X414136Y1309833D01*
Y1309643D01*
Y1309579D01*
Y1306659D01*
X414073Y1305898D01*
X414009Y1305263D01*
X413819Y1304692D01*
X413629Y1304184D01*
X413375Y1303739D01*
X413057Y1303422D01*
X412422Y1302914D01*
X411788Y1302597D01*
X411217Y1302407D01*
X410836Y1302343D01*
X410709D01*
X410137Y1302407D01*
X409566Y1302534D01*
X409122Y1302724D01*
X408741Y1303041D01*
X408106Y1303739D01*
X407725Y1304501D01*
X407472Y1305326D01*
X407345Y1305961D01*
X407281Y1306279D01*
Y1306469D01*
Y1306596D01*
Y1306659D01*
Y1309579D01*
X407345Y1310214D01*
X407408Y1310722D01*
X407535Y1311166D01*
X407725Y1311483D01*
X407916Y1311737D01*
X408043Y1311991D01*
X408106Y1312055D01*
X408170Y1312118D01*
X408551Y1312436D01*
X408931Y1312626D01*
X409757Y1312880D01*
X410137Y1312943D01*
X410455Y1313007D01*
X410709D01*
X411280Y1312943D01*
D02*
G37*
G36*
X411407Y1296821D02*
X411978Y1296694D01*
X412422Y1296567D01*
X412867Y1296376D01*
X413184Y1296123D01*
X413375Y1295996D01*
X413502Y1295869D01*
X413565Y1295805D01*
X413882Y1295361D01*
X414136Y1294853D01*
X414263Y1294345D01*
X414390Y1293837D01*
X414454Y1293330D01*
X414517Y1292949D01*
Y1292695D01*
Y1292568D01*
Y1288633D01*
X414454Y1287934D01*
X414327Y1287363D01*
X414136Y1286855D01*
X413946Y1286411D01*
X413629Y1286094D01*
X413311Y1285776D01*
X412613Y1285332D01*
X411915Y1285014D01*
X411280Y1284888D01*
X411090Y1284824D01*
X410709D01*
X410010Y1284888D01*
X409439Y1285014D01*
X408931Y1285205D01*
X408487Y1285395D01*
X408170Y1285713D01*
X407852Y1286030D01*
X407408Y1286728D01*
X407091Y1287427D01*
X406964Y1288061D01*
X406900Y1288252D01*
Y1288442D01*
Y1288569D01*
Y1288633D01*
Y1292568D01*
X406964Y1293330D01*
X407027Y1294028D01*
X407218Y1294599D01*
X407408Y1295043D01*
X407535Y1295361D01*
X407725Y1295615D01*
X407789Y1295742D01*
X407852Y1295805D01*
X408233Y1296186D01*
X408677Y1296440D01*
X409185Y1296630D01*
X409630Y1296757D01*
X410074Y1296821D01*
X410391Y1296884D01*
X410709D01*
X411407Y1296821D01*
D02*
G37*
G36*
X364118Y1312943D02*
X364626Y1312880D01*
X365070Y1312753D01*
X365451Y1312563D01*
X365705Y1312372D01*
X365896Y1312245D01*
X366023Y1312182D01*
X366086Y1312118D01*
X366403Y1311801D01*
X366594Y1311357D01*
X366848Y1310531D01*
X366911Y1310150D01*
X366975Y1309833D01*
Y1309643D01*
Y1309579D01*
Y1306659D01*
X366911Y1305898D01*
X366848Y1305263D01*
X366657Y1304692D01*
X366467Y1304184D01*
X366213Y1303739D01*
X365896Y1303422D01*
X365261Y1302914D01*
X364626Y1302597D01*
X364055Y1302407D01*
X363674Y1302343D01*
X363547D01*
X362976Y1302407D01*
X362405Y1302534D01*
X361960Y1302724D01*
X361579Y1303041D01*
X360945Y1303739D01*
X360564Y1304501D01*
X360310Y1305326D01*
X360183Y1305961D01*
X360119Y1306279D01*
Y1306469D01*
Y1306596D01*
Y1306659D01*
Y1309579D01*
X360183Y1310214D01*
X360246Y1310722D01*
X360373Y1311166D01*
X360564Y1311483D01*
X360754Y1311737D01*
X360881Y1311991D01*
X360945Y1312055D01*
X361008Y1312118D01*
X361389Y1312436D01*
X361770Y1312626D01*
X362595Y1312880D01*
X362976Y1312943D01*
X363293Y1313007D01*
X363547D01*
X364118Y1312943D01*
D02*
G37*
G36*
X364245Y1296821D02*
X364817Y1296694D01*
X365261Y1296567D01*
X365705Y1296376D01*
X366023Y1296123D01*
X366213Y1295996D01*
X366340Y1295869D01*
X366403Y1295805D01*
X366721Y1295361D01*
X366975Y1294853D01*
X367102Y1294345D01*
X367229Y1293837D01*
X367292Y1293330D01*
X367356Y1292949D01*
Y1292695D01*
Y1292568D01*
Y1288633D01*
X367292Y1287934D01*
X367165Y1287363D01*
X366975Y1286855D01*
X366784Y1286411D01*
X366467Y1286094D01*
X366149Y1285776D01*
X365451Y1285332D01*
X364753Y1285014D01*
X364118Y1284888D01*
X363928Y1284824D01*
X363547D01*
X362849Y1284888D01*
X362278Y1285014D01*
X361770Y1285205D01*
X361325Y1285395D01*
X361008Y1285713D01*
X360691Y1286030D01*
X360246Y1286728D01*
X359929Y1287427D01*
X359802Y1288061D01*
X359739Y1288252D01*
Y1288442D01*
Y1288569D01*
Y1288633D01*
Y1292568D01*
X359802Y1293330D01*
X359865Y1294028D01*
X360056Y1294599D01*
X360246Y1295043D01*
X360373Y1295361D01*
X360564Y1295615D01*
X360627Y1295742D01*
X360691Y1295805D01*
X361072Y1296186D01*
X361516Y1296440D01*
X362024Y1296630D01*
X362468Y1296757D01*
X362912Y1296821D01*
X363230Y1296884D01*
X363547D01*
X364245Y1296821D01*
D02*
G37*
D10*
X1559750Y1455000D02*
G03*
X1559750Y1455000I-1250J0D01*
G01*
X754000Y1350000D02*
G03*
X754000Y1350000I-1250J0D01*
G01*
X1125250Y1279000D02*
G03*
X1125250Y1279000I-1250J0D01*
G01*
D11*
X1073000Y1305159D02*
G03*
X1109000Y1305159I18000J10000D01*
G01*
Y1325159D02*
G03*
X1073000Y1325159I-18000J-10000D01*
G01*
X1227277Y1236681D02*
G03*
X1252733Y1262137I5657J19799D01*
G01*
X1238591Y1276279D02*
G03*
X1213135Y1250823I-5657J-19799D01*
G01*
X1264047Y1199912D02*
G03*
X1289503Y1225368I5657J19799D01*
G01*
X1275360Y1239510D02*
G03*
X1249905Y1214054I-5657J-19799D01*
G01*
X1299402Y1164556D02*
G03*
X1324858Y1190012I5657J19799D01*
G01*
X1310716Y1204154D02*
G03*
X1285260Y1178699I-5657J-19799D01*
G01*
X1628250Y799000D02*
G03*
X1628250Y799000I-51250J0D01*
G01*
X1641250Y925000D02*
G03*
X1641250Y925000I-51250J0D01*
G01*
X1497000Y882000D02*
G03*
X1497000Y882000I-45000J0D01*
G01*
X1347485Y1167385D02*
G03*
X1322030Y1141929I-5657J-19799D01*
G01*
X1336172Y1127787D02*
G03*
X1361627Y1153243I5657J19799D01*
G01*
X315000Y1063000D02*
G03*
X279000Y1063000I-18000J-10000D01*
G01*
Y1043000D02*
G03*
X315000Y1043000I18000J10000D01*
G01*
X579000Y1043000D02*
G03*
X615000Y1043000I18000J10000D01*
G01*
Y1063000D02*
G03*
X579000Y1063000I-18000J-10000D01*
G01*
X879000Y1043000D02*
G03*
X915000Y1043000I18000J10000D01*
G01*
Y1063000D02*
G03*
X879000Y1063000I-18000J-10000D01*
G01*
X1179000Y1043000D02*
G03*
X1215000Y1043000I18000J10000D01*
G01*
Y1063000D02*
G03*
X1179000Y1063000I-18000J-10000D01*
G01*
X377000Y1043000D02*
G03*
X413000Y1043000I18000J10000D01*
G01*
Y1063000D02*
G03*
X377000Y1063000I-18000J-10000D01*
G01*
X713000Y1063000D02*
G03*
X677000Y1063000I-18000J-10000D01*
G01*
Y1043000D02*
G03*
X713000Y1043000I18000J10000D01*
G01*
X1013000Y1063000D02*
G03*
X977000Y1063000I-18000J-10000D01*
G01*
Y1043000D02*
G03*
X1013000Y1043000I18000J10000D01*
G01*
X1313000Y1063000D02*
G03*
X1277000Y1063000I-18000J-10000D01*
G01*
Y1043000D02*
G03*
X1313000Y1043000I18000J10000D01*
G01*
X1308000Y1398400D02*
G03*
X1308000Y1362400I10000J-18000D01*
G01*
X1328000D02*
G03*
X1328000Y1398400I-10000J18000D01*
G01*
X757639Y1497861D02*
Y1597936D01*
X657564Y1497861D02*
X757639D01*
X657564D02*
Y1597936D01*
X757639D01*
X738600Y1597900D02*
X757600Y1578900D01*
X850400Y1597900D02*
X869400Y1578900D01*
X769364Y1597936D02*
X869439D01*
X769364Y1497861D02*
Y1597936D01*
Y1497861D02*
X869439D01*
Y1597936D01*
X962400Y1597900D02*
X981400Y1578900D01*
X881364Y1597936D02*
X981439D01*
X881364Y1497861D02*
Y1597936D01*
Y1497861D02*
X981439D01*
Y1597936D01*
X1067000Y1330159D02*
X1073000D01*
X1070000Y1327159D02*
Y1333159D01*
X1114000Y1308159D02*
Y1322159D01*
X1087000Y1322000D02*
X1106000D01*
X1087000Y1340002D02*
X1106000D01*
X1205357Y1250116D02*
X1209600Y1254359D01*
X1205357D02*
X1209600Y1250116D01*
X1244248Y1277693D02*
X1254147Y1267794D01*
X1225156Y1258602D02*
X1238591Y1272037D01*
X1212427Y1271331D02*
X1225862Y1284766D01*
X1242126Y1213347D02*
X1246369Y1217589D01*
X1242126D02*
X1246369Y1213347D01*
X1281017Y1240924D02*
X1290917Y1231024D01*
X1261925Y1221832D02*
X1275360Y1235267D01*
X1249196Y1234561D02*
X1262631Y1247996D01*
X1277482Y1177991D02*
X1281724Y1182234D01*
X1277482Y1182234D02*
X1281724Y1177991D01*
X1316373Y1205569D02*
X1326272Y1195669D01*
X1297281Y1186477D02*
X1310716Y1199912D01*
X1284552Y1199206D02*
X1297987Y1212641D01*
X1510000Y370000D02*
X1528000D01*
X1510000Y384000D02*
X1528000D01*
X1511500Y382000D02*
X1516500Y377000D01*
X1511500Y372000D02*
X1516500Y377000D01*
X1511500Y372000D02*
Y382000D01*
X1516500Y372000D02*
Y382000D01*
X1044500Y1304000D02*
Y1330000D01*
X1065500Y1304000D02*
Y1330000D01*
X1080500Y1258000D02*
Y1284000D01*
X1059500Y1258000D02*
Y1284000D01*
X1024500Y1258750D02*
Y1284750D01*
X1003500Y1258750D02*
Y1284750D01*
X1540500Y1408000D02*
Y1434000D01*
X1561500Y1408000D02*
Y1434000D01*
X817500Y1406714D02*
X843500D01*
X817500Y1427714D02*
X843500D01*
X892500Y1343950D02*
Y1369950D01*
X913500Y1343950D02*
Y1369950D01*
X754000Y1183500D02*
X780000D01*
X754000Y1204500D02*
X780000D01*
X749000Y1385500D02*
X775000D01*
X749000Y1406500D02*
X775000D01*
X705500Y1272000D02*
Y1298000D01*
X726500Y1272000D02*
Y1298000D01*
X631500Y1343000D02*
Y1369000D01*
X652500Y1343000D02*
Y1369000D01*
X631500Y1271000D02*
Y1297000D01*
X652500Y1271000D02*
Y1297000D01*
X660312Y1210161D02*
X678697Y1228546D01*
X675161Y1195312D02*
X693546Y1213697D01*
X245000Y278500D02*
Y334500D01*
X275000Y464500D02*
Y520500D01*
X245000D02*
X275000D01*
X245000Y359500D02*
Y520500D01*
Y278500D02*
X275000D01*
X275000D01*
Y439500D01*
X575000Y278500D02*
Y439500D01*
X575000Y278500D02*
X575000D01*
X545000D02*
X575000D01*
X545000Y359500D02*
Y520500D01*
X575000D01*
Y464500D02*
Y520500D01*
X545000Y278500D02*
Y334500D01*
X845000Y278500D02*
Y334500D01*
X875000Y464500D02*
Y520500D01*
X845000D02*
X875000D01*
X845000Y359500D02*
Y520500D01*
Y278500D02*
X875000D01*
X875000D01*
Y439500D01*
X1175000Y278500D02*
Y439500D01*
X1175000Y278500D02*
X1175000D01*
X1145000D02*
X1175000D01*
X1145000Y359500D02*
Y520500D01*
X1175000D01*
Y464500D02*
Y520500D01*
X1145000Y278500D02*
Y334500D01*
X416950Y278500D02*
Y334500D01*
X446950Y464500D02*
Y520500D01*
X416950D02*
X446950D01*
X416950Y359500D02*
Y520500D01*
Y278500D02*
X446950D01*
X446950D01*
Y439500D01*
X746950Y278500D02*
Y439500D01*
X746950Y278500D02*
X746950D01*
X716950D02*
X746950D01*
X716950Y359500D02*
Y520500D01*
X746950D01*
Y464500D02*
Y520500D01*
X716950Y278500D02*
Y334500D01*
X1016950Y278500D02*
Y334500D01*
X1046950Y464500D02*
Y520500D01*
X1016950D02*
X1046950D01*
X1016950Y359500D02*
Y520500D01*
Y278500D02*
X1046950D01*
X1046950D01*
Y439500D01*
X1346950Y278500D02*
Y439500D01*
X1346950Y278500D02*
X1346950D01*
X1316950D02*
X1346950D01*
X1316950Y359500D02*
Y520500D01*
X1346950D01*
Y464500D02*
Y520500D01*
X1316950Y278500D02*
Y334500D01*
X1353142Y1168799D02*
X1363042Y1158900D01*
X1314251Y1145464D02*
X1318494Y1141222D01*
X1314251D02*
X1318494Y1145464D01*
X1334050Y1149707D02*
X1347485Y1163142D01*
X1321321Y1162436D02*
X1334756Y1175871D01*
X315000Y1038000D02*
X321000D01*
X318000Y1035000D02*
Y1041000D01*
X274000Y1046000D02*
Y1060000D01*
X574000Y1046000D02*
Y1060000D01*
X618000Y1035000D02*
Y1041000D01*
X615000Y1038000D02*
X621000D01*
X874000Y1046000D02*
Y1060000D01*
X918000Y1035000D02*
Y1041000D01*
X915000Y1038000D02*
X921000D01*
X1174000Y1046000D02*
Y1060000D01*
X1218000Y1035000D02*
Y1041000D01*
X1215000Y1038000D02*
X1221000D01*
X282000Y1025998D02*
X301000D01*
X282000Y1044000D02*
X301000D01*
X582000D02*
X601000D01*
X582000Y1025998D02*
X601000D01*
X882000Y1044000D02*
X901000D01*
X882000Y1025998D02*
X901000D01*
X1182000Y1044000D02*
X1201000D01*
X1182000Y1025998D02*
X1201000D01*
X371000Y1068000D02*
X377000D01*
X374000Y1065000D02*
Y1071000D01*
X418000Y1046000D02*
Y1060000D01*
X718000Y1046000D02*
Y1060000D01*
X674000Y1065000D02*
Y1071000D01*
X671000Y1068000D02*
X677000D01*
X1018000Y1046000D02*
Y1060000D01*
X974000Y1065000D02*
Y1071000D01*
X971000Y1068000D02*
X977000D01*
X1318000Y1046000D02*
Y1060000D01*
X1274000Y1065000D02*
Y1071000D01*
X1271000Y1068000D02*
X1277000D01*
X391000Y1044002D02*
X410000D01*
X391000Y1026000D02*
X410000D01*
X691000D02*
X710000D01*
X691000Y1044002D02*
X710000D01*
X991000Y1026000D02*
X1010000D01*
X991000Y1044002D02*
X1010000D01*
X1291000Y1026000D02*
X1310000D01*
X1291000Y1044002D02*
X1310000D01*
X290634Y194314D02*
X296000D01*
X290634Y175000D02*
Y189314D01*
X296000Y194314D02*
X301366D01*
Y175000D02*
Y189314D01*
X296000Y175000D02*
Y197000D01*
X340634Y194314D02*
X346000D01*
X340634Y175000D02*
Y189314D01*
X346000Y194314D02*
X351366D01*
Y175000D02*
Y189314D01*
X346000Y175000D02*
Y197000D01*
X390634Y194314D02*
X396000D01*
X390634Y175000D02*
Y189314D01*
X396000Y194314D02*
X401366D01*
Y175000D02*
Y189314D01*
X396000Y175000D02*
Y197000D01*
X590634Y194314D02*
X596000D01*
X590634Y175000D02*
Y189314D01*
X596000Y194314D02*
X601366D01*
Y175000D02*
Y189314D01*
X596000Y175000D02*
Y197000D01*
X640634Y194314D02*
X646000D01*
X640634Y175000D02*
Y189314D01*
X646000Y194314D02*
X651366D01*
Y175000D02*
Y189314D01*
X646000Y175000D02*
Y197000D01*
X690634Y194314D02*
X696000D01*
X690634Y175000D02*
Y189314D01*
X696000Y194314D02*
X701366D01*
Y175000D02*
Y189314D01*
X696000Y175000D02*
Y197000D01*
X890634Y194314D02*
X896000D01*
X890634Y175000D02*
Y189314D01*
X896000Y194314D02*
X901366D01*
Y175000D02*
Y189314D01*
X896000Y175000D02*
Y197000D01*
X940634Y194314D02*
X946000D01*
X940634Y175000D02*
Y189314D01*
X946000Y194314D02*
X951366D01*
Y175000D02*
Y189314D01*
X946000Y175000D02*
Y197000D01*
X990634Y194314D02*
X996000D01*
X990634Y175000D02*
Y189314D01*
X996000Y194314D02*
X1001366D01*
Y175000D02*
Y189314D01*
X996000Y175000D02*
Y197000D01*
X1190634Y194314D02*
X1196000D01*
X1190634Y175000D02*
Y189314D01*
X1196000Y194314D02*
X1201366D01*
Y175000D02*
Y189314D01*
X1196000Y175000D02*
Y197000D01*
X1240634Y194314D02*
X1246000D01*
X1240634Y175000D02*
Y189314D01*
X1246000Y194314D02*
X1251366D01*
Y175000D02*
Y189314D01*
X1246000Y175000D02*
Y197000D01*
X1290634Y194314D02*
X1296000D01*
X1290634Y175000D02*
Y189314D01*
X1296000Y194314D02*
X1301366D01*
Y175000D02*
Y189314D01*
X1296000Y175000D02*
Y197000D01*
X1458634Y194314D02*
X1464000D01*
X1458634Y175000D02*
Y189314D01*
X1464000Y194314D02*
X1469366D01*
Y175000D02*
Y189314D01*
X1464000Y175000D02*
Y197000D01*
X1508634Y194314D02*
X1514000D01*
X1508634Y175000D02*
Y189314D01*
X1514000Y194314D02*
X1519366D01*
Y175000D02*
Y189314D01*
X1514000Y175000D02*
Y197000D01*
X1558634Y194314D02*
X1564000D01*
X1558634Y175000D02*
Y189314D01*
X1564000Y194314D02*
X1569366D01*
Y175000D02*
Y189314D01*
X1564000Y175000D02*
Y197000D01*
X1629000Y1281750D02*
X1651000D01*
X1636686Y1287116D02*
X1651000D01*
X1631686Y1281750D02*
Y1287116D01*
X1636686Y1276384D02*
X1651000D01*
X1631686D02*
Y1281750D01*
X1629000Y1231750D02*
X1651000D01*
X1636686Y1237116D02*
X1651000D01*
X1631686Y1231750D02*
Y1237116D01*
X1636686Y1226384D02*
X1651000D01*
X1631686D02*
Y1231750D01*
X1629000Y1181750D02*
X1651000D01*
X1636686Y1187116D02*
X1651000D01*
X1631686Y1181750D02*
Y1187116D01*
X1636686Y1176384D02*
X1651000D01*
X1631686D02*
Y1181750D01*
X350000Y637000D02*
X362000D01*
Y635000D02*
Y637000D01*
X349979Y605025D02*
X361979D01*
Y607025D01*
X329979Y637078D02*
X335000D01*
X329979Y635078D02*
Y637078D01*
X330000Y605000D02*
X342000D01*
X330000D02*
Y607000D01*
X630000Y605000D02*
Y607000D01*
Y605000D02*
X642000D01*
X629979Y635078D02*
Y637078D01*
X635000D01*
X661979Y605025D02*
Y607025D01*
X649979Y605025D02*
X661979D01*
X662000Y635000D02*
Y637000D01*
X650000D02*
X662000D01*
X950000D02*
X962000D01*
Y635000D02*
Y637000D01*
X949979Y605025D02*
X961979D01*
Y607025D01*
X929979Y637078D02*
X935000D01*
X929979Y635078D02*
Y637078D01*
X930000Y605000D02*
X942000D01*
X930000D02*
Y607000D01*
X1230000Y605000D02*
Y607000D01*
Y605000D02*
X1242000D01*
X1229979Y635078D02*
Y637078D01*
X1235000D01*
X1261979Y605025D02*
Y607025D01*
X1249979Y605025D02*
X1261979D01*
X1262000Y635000D02*
Y637000D01*
X1250000D02*
X1262000D01*
X1011000Y1316500D02*
X1037000D01*
X1011000Y1337500D02*
X1037000D01*
X1011000Y1295500D02*
X1037000D01*
X1011000Y1316500D02*
X1037000D01*
X1536500Y1408000D02*
Y1434000D01*
X1515500Y1408000D02*
Y1434000D01*
X1512500Y1495000D02*
Y1521000D01*
X1533500Y1495000D02*
Y1521000D01*
X1520000Y1466500D02*
X1546000D01*
X1520000Y1487500D02*
X1546000D01*
X1520000Y1445500D02*
X1546000D01*
X1520000Y1466500D02*
X1546000D01*
X817500Y1384962D02*
X843500D01*
X817500Y1405961D02*
X843500D01*
X787000Y1391870D02*
Y1417870D01*
X808000Y1391870D02*
Y1417870D01*
X724500Y1352000D02*
Y1378000D01*
X745500Y1352000D02*
Y1378000D01*
X688454Y1238303D02*
X706839Y1256688D01*
X703303Y1223454D02*
X721688Y1241839D01*
X1177426Y1204508D02*
X1195811Y1222893D01*
X1162577Y1219357D02*
X1180962Y1237742D01*
X1214196Y1167738D02*
X1232580Y1186123D01*
X1199346Y1182588D02*
X1217731Y1200972D01*
X1250258Y1131676D02*
X1268643Y1150061D01*
X1235409Y1146525D02*
X1253794Y1164910D01*
X1285614Y1096321D02*
X1303998Y1114705D01*
X1270764Y1111170D02*
X1289149Y1129555D01*
X1192275Y1189659D02*
X1210660Y1208043D01*
X1177426Y1204508D02*
X1195811Y1222893D01*
X1229752Y1152182D02*
X1248137Y1170567D01*
X1214903Y1167031D02*
X1233288Y1185416D01*
X1265107Y1116827D02*
X1283492Y1135211D01*
X1250258Y1131676D02*
X1268643Y1150061D01*
X1300463Y1081471D02*
X1318848Y1099856D01*
X1285614Y1096321D02*
X1303998Y1114705D01*
X1190861Y1237035D02*
X1209246Y1218650D01*
X1205710Y1251884D02*
X1224095Y1233499D01*
X1229045Y1198851D02*
X1247430Y1180466D01*
X1243894Y1213700D02*
X1262279Y1195315D01*
X1264400Y1163496D02*
X1282785Y1145111D01*
X1279249Y1178345D02*
X1297634Y1159960D01*
X1300463Y1127433D02*
X1318848Y1109048D01*
X1315312Y1142282D02*
X1333697Y1123898D01*
X426002Y734999D02*
Y763000D01*
X425998Y1013000D02*
Y1041000D01*
X382000Y1013000D02*
X470000D01*
X382000Y763000D02*
Y1013000D01*
Y763000D02*
X470000D01*
Y1013000D01*
X726002Y734999D02*
Y763000D01*
X725998Y1013000D02*
Y1041000D01*
X682000Y1013000D02*
X770001D01*
X682000Y763000D02*
Y1013000D01*
Y763000D02*
X770000D01*
Y1013000D01*
X1070000Y763000D02*
Y1013000D01*
X982000Y763000D02*
X1070000D01*
X982000D02*
Y1013000D01*
X1070001D01*
X1025998Y1013000D02*
Y1041000D01*
X1026002Y734999D02*
Y763000D01*
X1326002Y734999D02*
Y763000D01*
X1325998Y1013000D02*
Y1041000D01*
X1282000Y1013000D02*
X1370000D01*
X1282000Y763000D02*
Y1013000D01*
Y763000D02*
X1370000D01*
Y1013000D01*
X266002Y734999D02*
Y763000D01*
X265998Y1013000D02*
Y1041000D01*
X222000Y1013000D02*
X310000D01*
X222000Y763000D02*
Y1013000D01*
Y763000D02*
X310000D01*
Y1013000D01*
X566002Y734999D02*
Y763000D01*
X565998Y1013000D02*
Y1041000D01*
X522000Y1013000D02*
X610000D01*
X522000Y763000D02*
Y1013000D01*
Y763000D02*
X610000D01*
Y1013000D01*
X910000Y763000D02*
Y1013000D01*
X822000Y763000D02*
X910000D01*
X822000D02*
Y1013000D01*
X910001D01*
X865998Y1013000D02*
Y1041000D01*
X866002Y734999D02*
Y763000D01*
X1166002Y734999D02*
Y763000D01*
X1165998Y1013000D02*
Y1041000D01*
X1122000Y1013000D02*
X1210001D01*
X1122000Y763000D02*
Y1013000D01*
Y763000D02*
X1210000D01*
Y1013000D01*
X1311000Y1403400D02*
X1325000D01*
X1300000Y1359400D02*
X1306000D01*
X1303000Y1356400D02*
Y1362400D01*
X1311000Y1376400D02*
Y1395400D01*
X1292998Y1376400D02*
X1292998Y1395400D01*
X1336500Y1329400D02*
X1336500Y1303400D01*
X1315500Y1303400D02*
Y1329400D01*
Y1303400D02*
Y1329400D01*
X1294500Y1303400D02*
Y1329400D01*
X1303000Y1356900D02*
X1329000D01*
X1303000Y1335900D02*
X1329000D01*
X1519500Y345000D02*
X1522000D01*
X1507000D02*
X1509500D01*
X1519500Y335000D02*
Y355000D01*
X1509500D02*
X1519500Y345000D01*
X1509500Y335000D02*
X1519500Y345000D01*
X1509500Y335000D02*
Y355000D01*
X1504000Y359000D02*
X1544000D01*
X1504000Y331000D02*
X1544000D01*
X855000Y1183500D02*
X881000D01*
X855000Y1204500D02*
X881000D01*
X636000Y1315668D02*
Y1324332D01*
X633834Y1326498D01*
X629502D01*
X627336Y1324332D01*
Y1315668D01*
X629502Y1313502D01*
X633834D01*
X631668Y1317834D02*
X636000Y1313502D01*
X633834D02*
X636000Y1315668D01*
X640332Y1313502D02*
X644664D01*
X642498D01*
Y1326498D01*
X640332Y1324332D01*
X705000Y1491332D02*
X702834Y1493498D01*
X698502D01*
X696336Y1491332D01*
Y1489166D01*
X698502Y1487000D01*
X702834D01*
X705000Y1484834D01*
Y1482668D01*
X702834Y1480502D01*
X698502D01*
X696336Y1482668D01*
X709332Y1480502D02*
X713664D01*
X711498D01*
Y1493498D01*
X709332Y1491332D01*
X812750Y1490736D02*
X810584Y1492902D01*
X806252D01*
X804086Y1490736D01*
Y1488570D01*
X806252Y1486404D01*
X810584D01*
X812750Y1484238D01*
Y1482072D01*
X810584Y1479906D01*
X806252D01*
X804086Y1482072D01*
X825746Y1479906D02*
X817082D01*
X825746Y1488570D01*
Y1490736D01*
X823580Y1492902D01*
X819248D01*
X817082Y1490736D01*
X929834Y1489332D02*
X927668Y1491498D01*
X923336D01*
X921170Y1489332D01*
Y1487166D01*
X923336Y1485000D01*
X927668D01*
X929834Y1482834D01*
Y1480668D01*
X927668Y1478502D01*
X923336D01*
X921170Y1480668D01*
X934166Y1489332D02*
X936332Y1491498D01*
X940664D01*
X942830Y1489332D01*
Y1487166D01*
X940664Y1485000D01*
X938498D01*
X940664D01*
X942830Y1482834D01*
Y1480668D01*
X940664Y1478502D01*
X936332D01*
X934166Y1480668D01*
X1429170Y1340498D02*
Y1329668D01*
X1431336Y1327502D01*
X1435668D01*
X1437834Y1329668D01*
Y1340498D01*
X1450830D02*
X1442166D01*
Y1334000D01*
X1446498Y1336166D01*
X1448664D01*
X1450830Y1334000D01*
Y1329668D01*
X1448664Y1327502D01*
X1444332D01*
X1442166Y1329668D01*
X721170Y1340498D02*
Y1329668D01*
X723336Y1327502D01*
X727668D01*
X729834Y1329668D01*
Y1340498D01*
X734166Y1338332D02*
X736332Y1340498D01*
X740664D01*
X742830Y1338332D01*
Y1336166D01*
X740664Y1334000D01*
X738498D01*
X740664D01*
X742830Y1331834D01*
Y1329668D01*
X740664Y1327502D01*
X736332D01*
X734166Y1329668D01*
X1544170Y1378498D02*
Y1367668D01*
X1546336Y1365502D01*
X1550668D01*
X1552834Y1367668D01*
Y1378498D01*
X1565830D02*
X1561498Y1376332D01*
X1557166Y1372000D01*
Y1367668D01*
X1559332Y1365502D01*
X1563664D01*
X1565830Y1367668D01*
Y1369834D01*
X1563664Y1372000D01*
X1557166D01*
X1117838Y1321657D02*
Y1308661D01*
Y1315159D01*
X1126502D01*
Y1321657D01*
Y1308661D01*
X1130834Y1321657D02*
Y1308661D01*
X1139498D01*
X1143830D02*
X1148162D01*
X1145996D01*
Y1321657D01*
X1143830Y1319491D01*
X1076672Y1356498D02*
Y1343502D01*
Y1350000D01*
X1085336D01*
Y1356498D01*
Y1343502D01*
X1089668Y1356498D02*
Y1343502D01*
X1098332D01*
X1111328D02*
X1102664D01*
X1111328Y1352166D01*
Y1354332D01*
X1109162Y1356498D01*
X1104830D01*
X1102664Y1354332D01*
X1249153Y1281342D02*
X1258342Y1272153D01*
X1253747Y1276748D01*
X1259874Y1282874D01*
X1255279Y1287469D01*
X1264468Y1278279D01*
X1258342Y1290532D02*
X1267532Y1281342D01*
X1273658Y1287469D01*
X1269063Y1298190D02*
X1269063Y1301253D01*
X1272126Y1304316D01*
X1275189D01*
X1276721Y1302784D01*
Y1299721D01*
X1275189Y1298190D01*
X1276721Y1299721D01*
X1279784D01*
X1281316Y1298190D01*
Y1295126D01*
X1278253Y1292063D01*
X1275189D01*
X1229153Y1286342D02*
X1238342Y1277153D01*
X1233747Y1281747D01*
X1239874Y1287874D01*
X1235279Y1292469D01*
X1244468Y1283279D01*
X1238342Y1295532D02*
X1247532Y1286342D01*
X1253658Y1292469D01*
X1261316Y1300126D02*
X1252126Y1309316D01*
Y1300126D01*
X1258253Y1306253D01*
X1284153Y1244342D02*
X1293342Y1235153D01*
X1288748Y1239747D01*
X1294874Y1245874D01*
X1290279Y1250469D01*
X1299468Y1241279D01*
X1293342Y1253532D02*
X1302532Y1244342D01*
X1308658Y1250469D01*
Y1268847D02*
X1302532Y1262721D01*
X1307126Y1258126D01*
X1308658Y1262721D01*
X1310190Y1264253D01*
X1313253D01*
X1316316Y1261189D01*
Y1258126D01*
X1313253Y1255063D01*
X1310190D01*
X1267507Y1250342D02*
X1276697Y1241153D01*
X1272102Y1245748D01*
X1278228Y1251874D01*
X1273634Y1256469D01*
X1282823Y1247279D01*
X1276697Y1259532D02*
X1285886Y1250342D01*
X1292012Y1256469D01*
Y1274847D02*
X1290481Y1270253D01*
Y1264126D01*
X1293544Y1261063D01*
X1296607D01*
X1299670Y1264126D01*
Y1267189D01*
X1298139Y1268721D01*
X1295076D01*
X1290481Y1264126D01*
X1322153Y1207342D02*
X1331342Y1198153D01*
X1326747Y1202747D01*
X1332874Y1208874D01*
X1328279Y1213468D01*
X1337468Y1204279D01*
X1331342Y1216532D02*
X1340532Y1207342D01*
X1346658Y1213468D01*
X1340532Y1225721D02*
X1346658Y1231847D01*
X1348189Y1230316D01*
Y1218063D01*
X1349721Y1216532D01*
X1302863Y1215269D02*
X1312052Y1206079D01*
X1307457Y1210674D01*
X1313584Y1216801D01*
X1308989Y1221395D01*
X1318179Y1212206D01*
X1312052Y1224458D02*
X1321242Y1215269D01*
X1327368Y1221395D01*
X1322773Y1232116D02*
X1322773Y1235179D01*
X1325836Y1238242D01*
X1328900D01*
X1330431Y1236711D01*
Y1233648D01*
X1333494D01*
X1335026Y1232116D01*
Y1229053D01*
X1331963Y1225990D01*
X1328900D01*
X1327368Y1227522D01*
Y1230585D01*
X1324305D01*
X1322773Y1232116D01*
X1327368Y1230585D02*
X1330431Y1233648D01*
X1577114Y803310D02*
X1574948Y805476D01*
X1570616D01*
X1568450Y803310D01*
Y794646D01*
X1570616Y792480D01*
X1574948D01*
X1577114Y794646D01*
X1581446Y792480D02*
X1585778D01*
X1583612D01*
Y805476D01*
X1581446Y803310D01*
X1587782Y929294D02*
X1585616Y931460D01*
X1581284D01*
X1579118Y929294D01*
Y920630D01*
X1581284Y918464D01*
X1585616D01*
X1587782Y920630D01*
X1600778Y918464D02*
X1592114D01*
X1600778Y927128D01*
Y929294D01*
X1598612Y931460D01*
X1594280D01*
X1592114Y929294D01*
X1529170Y407498D02*
Y394502D01*
X1535668D01*
X1537834Y396668D01*
Y405332D01*
X1535668Y407498D01*
X1529170D01*
X1542166Y405332D02*
X1544332Y407498D01*
X1548664D01*
X1550830Y405332D01*
Y403166D01*
X1548664Y401000D01*
X1546498D01*
X1548664D01*
X1550830Y398834D01*
Y396668D01*
X1548664Y394502D01*
X1544332D01*
X1542166Y396668D01*
X1561170Y402498D02*
Y389502D01*
X1567668D01*
X1569834Y391668D01*
Y400332D01*
X1567668Y402498D01*
X1561170D01*
X1580664Y389502D02*
Y402498D01*
X1574166Y396000D01*
X1582830D01*
X1601170Y383498D02*
Y370502D01*
X1607668D01*
X1609834Y372668D01*
Y381332D01*
X1607668Y383498D01*
X1601170D01*
X1622830D02*
X1614166D01*
Y377000D01*
X1618498Y379166D01*
X1620664D01*
X1622830Y377000D01*
Y372668D01*
X1620664Y370502D01*
X1616332D01*
X1614166Y372668D01*
X1603170Y315498D02*
Y302502D01*
X1609668D01*
X1611834Y304668D01*
Y313332D01*
X1609668Y315498D01*
X1603170D01*
X1616166D02*
X1624830D01*
Y313332D01*
X1616166Y304668D01*
Y302502D01*
X1454170Y325498D02*
Y312502D01*
X1460668D01*
X1462834Y314668D01*
Y323332D01*
X1460668Y325498D01*
X1454170D01*
X1467166Y323332D02*
X1469332Y325498D01*
X1473664D01*
X1475830Y323332D01*
Y321166D01*
X1473664Y319000D01*
X1475830Y316834D01*
Y314668D01*
X1473664Y312502D01*
X1469332D01*
X1467166Y314668D01*
Y316834D01*
X1469332Y319000D01*
X1467166Y321166D01*
Y323332D01*
X1469332Y319000D02*
X1473664D01*
X1492755Y999498D02*
Y986502D01*
X1499253D01*
X1501419Y988668D01*
Y997332D01*
X1499253Y999498D01*
X1492755D01*
X1505751Y986502D02*
X1510083D01*
X1507917D01*
Y999498D01*
X1505751Y997332D01*
X1516581D02*
X1518747Y999498D01*
X1523079D01*
X1525245Y997332D01*
Y988668D01*
X1523079Y986502D01*
X1518747D01*
X1516581Y988668D01*
Y997332D01*
X1534502Y287498D02*
X1525838D01*
Y281000D01*
X1530170D01*
X1525838D01*
Y274502D01*
X1538834D02*
Y283166D01*
X1543166Y287498D01*
X1547498Y283166D01*
Y274502D01*
Y281000D01*
X1538834D01*
X1551830Y274502D02*
X1556162D01*
X1553996D01*
Y287498D01*
X1551830Y285332D01*
X1440170Y944498D02*
Y931502D01*
X1448834D01*
X1461830D02*
X1453166D01*
X1461830Y940166D01*
Y942332D01*
X1459664Y944498D01*
X1455332D01*
X1453166Y942332D01*
X1032170Y1247498D02*
Y1236668D01*
X1034336Y1234502D01*
X1038668D01*
X1040834Y1236668D01*
Y1247498D01*
X1053830Y1234502D02*
X1045166D01*
X1053830Y1243166D01*
Y1245332D01*
X1051664Y1247498D01*
X1047332D01*
X1045166Y1245332D01*
X1043170Y1338502D02*
Y1351498D01*
X1049668D01*
X1051834Y1349332D01*
Y1345000D01*
X1049668Y1342834D01*
X1043170D01*
X1047502D02*
X1051834Y1338502D01*
X1064830Y1351498D02*
X1056166D01*
Y1345000D01*
X1060498Y1347166D01*
X1062664D01*
X1064830Y1345000D01*
Y1340668D01*
X1062664Y1338502D01*
X1058332D01*
X1056166Y1340668D01*
X1501170Y412498D02*
Y399502D01*
X1507668D01*
X1509834Y401668D01*
Y410332D01*
X1507668Y412498D01*
X1501170D01*
X1522830D02*
X1518498Y410332D01*
X1514166Y406000D01*
Y401668D01*
X1516332Y399502D01*
X1520664D01*
X1522830Y401668D01*
Y403834D01*
X1520664Y406000D01*
X1514166D01*
X1092834Y1276332D02*
X1090668Y1278498D01*
X1086336D01*
X1084170Y1276332D01*
Y1267668D01*
X1086336Y1265502D01*
X1090668D01*
X1092834Y1267668D01*
X1097166Y1276332D02*
X1099332Y1278498D01*
X1103664D01*
X1105830Y1276332D01*
Y1274166D01*
X1103664Y1272000D01*
X1101498D01*
X1103664D01*
X1105830Y1269834D01*
Y1267668D01*
X1103664Y1265502D01*
X1099332D01*
X1097166Y1267668D01*
X986834Y1275332D02*
X984668Y1277498D01*
X980336D01*
X978170Y1275332D01*
Y1266668D01*
X980336Y1264502D01*
X984668D01*
X986834Y1266668D01*
X999830Y1277498D02*
X991166D01*
Y1271000D01*
X995498Y1273166D01*
X997664D01*
X999830Y1271000D01*
Y1266668D01*
X997664Y1264502D01*
X993332D01*
X991166Y1266668D01*
X1576834Y1402332D02*
X1574668Y1404498D01*
X1570336D01*
X1568170Y1402332D01*
Y1393668D01*
X1570336Y1391502D01*
X1574668D01*
X1576834Y1393668D01*
X1589830Y1404498D02*
X1585498Y1402332D01*
X1581166Y1398000D01*
Y1393668D01*
X1583332Y1391502D01*
X1587664D01*
X1589830Y1393668D01*
Y1395834D01*
X1587664Y1398000D01*
X1581166D01*
X861834Y1422332D02*
X859668Y1424498D01*
X855336D01*
X853170Y1422332D01*
Y1413668D01*
X855336Y1411502D01*
X859668D01*
X861834Y1413668D01*
X866166Y1424498D02*
X874830D01*
Y1422332D01*
X866166Y1413668D01*
Y1411502D01*
X899834Y1391332D02*
X897668Y1393498D01*
X893336D01*
X891170Y1391332D01*
Y1382668D01*
X893336Y1380502D01*
X897668D01*
X899834Y1382668D01*
X904166Y1391332D02*
X906332Y1393498D01*
X910664D01*
X912830Y1391332D01*
Y1389166D01*
X910664Y1387000D01*
X912830Y1384834D01*
Y1382668D01*
X910664Y1380502D01*
X906332D01*
X904166Y1382668D01*
Y1384834D01*
X906332Y1387000D01*
X904166Y1389166D01*
Y1391332D01*
X906332Y1387000D02*
X910664D01*
X764834Y1178332D02*
X762668Y1180498D01*
X758336D01*
X756170Y1178332D01*
Y1169668D01*
X758336Y1167502D01*
X762668D01*
X764834Y1169668D01*
X769166D02*
X771332Y1167502D01*
X775664D01*
X777830Y1169668D01*
Y1178332D01*
X775664Y1180498D01*
X771332D01*
X769166Y1178332D01*
Y1176166D01*
X771332Y1174000D01*
X777830D01*
X753419Y1422202D02*
X751253Y1424368D01*
X746921D01*
X744755Y1422202D01*
Y1413538D01*
X746921Y1411372D01*
X751253D01*
X753419Y1413538D01*
X757751Y1411372D02*
X762083D01*
X759917D01*
Y1424368D01*
X757751Y1422202D01*
X768581D02*
X770747Y1424368D01*
X775079D01*
X777245Y1422202D01*
Y1413538D01*
X775079Y1411372D01*
X770747D01*
X768581Y1413538D01*
Y1422202D01*
X732668Y1280585D02*
X730502Y1278419D01*
Y1274087D01*
X732668Y1271921D01*
X741332D01*
X743498Y1274087D01*
Y1278419D01*
X741332Y1280585D01*
X743498Y1284917D02*
Y1289249D01*
Y1287083D01*
X730502D01*
X732668Y1284917D01*
X743498Y1295747D02*
Y1300079D01*
Y1297913D01*
X730502D01*
X732668Y1295747D01*
X603419Y1360332D02*
X601253Y1362498D01*
X596921D01*
X594755Y1360332D01*
Y1351668D01*
X596921Y1349502D01*
X601253D01*
X603419Y1351668D01*
X607751Y1349502D02*
X612083D01*
X609917D01*
Y1362498D01*
X607751Y1360332D01*
X618581D02*
X620747Y1362498D01*
X625079D01*
X627245Y1360332D01*
Y1358166D01*
X625079Y1356000D01*
X622913D01*
X625079D01*
X627245Y1353834D01*
Y1351668D01*
X625079Y1349502D01*
X620747D01*
X618581Y1351668D01*
X602419Y1289332D02*
X600253Y1291498D01*
X595921D01*
X593755Y1289332D01*
Y1280668D01*
X595921Y1278502D01*
X600253D01*
X602419Y1280668D01*
X606751Y1278502D02*
X611083D01*
X608917D01*
Y1291498D01*
X606751Y1289332D01*
X624079Y1278502D02*
Y1291498D01*
X617581Y1285000D01*
X626245D01*
X663419Y1186332D02*
X661253Y1188498D01*
X656921D01*
X654755Y1186332D01*
Y1177668D01*
X656921Y1175502D01*
X661253D01*
X663419Y1177668D01*
X667751Y1175502D02*
X672083D01*
X669917D01*
Y1188498D01*
X667751Y1186332D01*
X687245Y1188498D02*
X678581D01*
Y1182000D01*
X682913Y1184166D01*
X685079D01*
X687245Y1182000D01*
Y1177668D01*
X685079Y1175502D01*
X680747D01*
X678581Y1177668D01*
X1144921Y1297498D02*
Y1284502D01*
X1151419D01*
X1153585Y1286668D01*
Y1295332D01*
X1151419Y1297498D01*
X1144921D01*
X1157917Y1284502D02*
X1162249D01*
X1160083D01*
Y1297498D01*
X1157917Y1295332D01*
X1168747Y1284502D02*
X1173079D01*
X1170913D01*
Y1297498D01*
X1168747Y1295332D01*
X1445514Y1188254D02*
Y1175258D01*
X1452012D01*
X1454178Y1177424D01*
Y1186088D01*
X1452012Y1188254D01*
X1445514D01*
X1458510Y1175258D02*
X1462842D01*
X1460676D01*
Y1188254D01*
X1458510Y1186088D01*
X1478004Y1175258D02*
X1469340D01*
X1478004Y1183922D01*
Y1186088D01*
X1475838Y1188254D01*
X1471506D01*
X1469340Y1186088D01*
X1445514Y1188254D02*
Y1175258D01*
X1452012D01*
X1454178Y1177424D01*
Y1186088D01*
X1452012Y1188254D01*
X1445514D01*
X1458510Y1175258D02*
X1462842D01*
X1460676D01*
Y1188254D01*
X1458510Y1186088D01*
X1469340D02*
X1471506Y1188254D01*
X1475838D01*
X1478004Y1186088D01*
Y1183922D01*
X1475838Y1181756D01*
X1473672D01*
X1475838D01*
X1478004Y1179590D01*
Y1177424D01*
X1475838Y1175258D01*
X1471506D01*
X1469340Y1177424D01*
X1445768Y1238546D02*
Y1225550D01*
X1452266D01*
X1454432Y1227716D01*
Y1236380D01*
X1452266Y1238546D01*
X1445768D01*
X1458764Y1225550D02*
X1463096D01*
X1460930D01*
Y1238546D01*
X1458764Y1236380D01*
X1476091Y1225550D02*
Y1238546D01*
X1469594Y1232048D01*
X1478257D01*
X1445768Y1238546D02*
Y1225550D01*
X1452266D01*
X1454432Y1227716D01*
Y1236380D01*
X1452266Y1238546D01*
X1445768D01*
X1458764Y1225550D02*
X1463096D01*
X1460930D01*
Y1238546D01*
X1458764Y1236380D01*
X1478257Y1238546D02*
X1469594D01*
Y1232048D01*
X1473926Y1234214D01*
X1476091D01*
X1478257Y1232048D01*
Y1227716D01*
X1476091Y1225550D01*
X1471760D01*
X1469594Y1227716D01*
X308502Y462096D02*
X321498D01*
Y468593D01*
X319332Y470760D01*
X310668D01*
X308502Y468593D01*
Y462096D01*
X321498Y475091D02*
Y479423D01*
Y477257D01*
X308502D01*
X310668Y475091D01*
X308502Y485921D02*
Y494585D01*
X310668D01*
X319332Y485921D01*
X321498D01*
X312834Y498917D02*
Y501083D01*
X315000D01*
Y498917D01*
X312834D01*
X319332D02*
Y501083D01*
X321498D01*
Y498917D01*
X319332D01*
X308502Y509747D02*
Y514079D01*
Y511913D01*
X321498D01*
Y509747D01*
Y514079D01*
X308502Y527075D02*
Y522743D01*
X310668Y520577D01*
X319332D01*
X321498Y522743D01*
Y527075D01*
X319332Y529241D01*
X310668D01*
X308502Y527075D01*
X321498Y533573D02*
Y537905D01*
Y535738D01*
X308502D01*
X310668Y533573D01*
X607502Y463930D02*
X620498D01*
Y470428D01*
X618332Y472593D01*
X609668D01*
X607502Y470428D01*
Y463930D01*
X620498Y476926D02*
Y481257D01*
Y479091D01*
X607502D01*
X609668Y476926D01*
X607502Y487755D02*
Y496419D01*
X609668D01*
X618332Y487755D01*
X620498D01*
X611834Y500751D02*
Y502917D01*
X614000D01*
Y500751D01*
X611834D01*
X618332D02*
Y502917D01*
X620498D01*
Y500751D01*
X618332D01*
X607502Y511581D02*
Y515913D01*
Y513747D01*
X620498D01*
Y511581D01*
Y515913D01*
X607502Y528909D02*
Y524577D01*
X609668Y522411D01*
X618332D01*
X620498Y524577D01*
Y528909D01*
X618332Y531075D01*
X609668D01*
X607502Y528909D01*
X620498Y544070D02*
Y535407D01*
X611834Y544070D01*
X609668D01*
X607502Y541904D01*
Y537573D01*
X609668Y535407D01*
X906502Y463930D02*
X919498D01*
Y470428D01*
X917332Y472593D01*
X908668D01*
X906502Y470428D01*
Y463930D01*
X919498Y476926D02*
Y481257D01*
Y479091D01*
X906502D01*
X908668Y476926D01*
X906502Y487755D02*
Y496419D01*
X908668D01*
X917332Y487755D01*
X919498D01*
X910834Y500751D02*
Y502917D01*
X913000D01*
Y500751D01*
X910834D01*
X917332D02*
Y502917D01*
X919498D01*
Y500751D01*
X917332D01*
X906502Y511581D02*
Y515913D01*
Y513747D01*
X919498D01*
Y511581D01*
Y515913D01*
X906502Y528909D02*
Y524577D01*
X908668Y522411D01*
X917332D01*
X919498Y524577D01*
Y528909D01*
X917332Y531075D01*
X908668D01*
X906502Y528909D01*
X908668Y535407D02*
X906502Y537573D01*
Y541904D01*
X908668Y544070D01*
X910834D01*
X913000Y541904D01*
Y539739D01*
Y541904D01*
X915166Y544070D01*
X917332D01*
X919498Y541904D01*
Y537573D01*
X917332Y535407D01*
X1207502Y462930D02*
X1220498D01*
Y469428D01*
X1218332Y471594D01*
X1209668D01*
X1207502Y469428D01*
Y462930D01*
X1220498Y475925D02*
Y480257D01*
Y478091D01*
X1207502D01*
X1209668Y475925D01*
X1207502Y486755D02*
Y495419D01*
X1209668D01*
X1218332Y486755D01*
X1220498D01*
X1211834Y499751D02*
Y501917D01*
X1214000D01*
Y499751D01*
X1211834D01*
X1218332D02*
Y501917D01*
X1220498D01*
Y499751D01*
X1218332D01*
X1207502Y510581D02*
Y514913D01*
Y512747D01*
X1220498D01*
Y510581D01*
Y514913D01*
X1207502Y527909D02*
Y523577D01*
X1209668Y521411D01*
X1218332D01*
X1220498Y523577D01*
Y527909D01*
X1218332Y530075D01*
X1209668D01*
X1207502Y527909D01*
X1220498Y540905D02*
X1207502D01*
X1214000Y534407D01*
Y543070D01*
X371502Y462096D02*
X384498D01*
Y468593D01*
X382332Y470760D01*
X373668D01*
X371502Y468593D01*
Y462096D01*
X384498Y475091D02*
Y479423D01*
Y477257D01*
X371502D01*
X373668Y475091D01*
X382332Y485921D02*
X384498Y488087D01*
Y492419D01*
X382332Y494585D01*
X373668D01*
X371502Y492419D01*
Y488087D01*
X373668Y485921D01*
X375834D01*
X378000Y488087D01*
Y494585D01*
X375834Y498917D02*
Y501083D01*
X378000D01*
Y498917D01*
X375834D01*
X382332D02*
Y501083D01*
X384498D01*
Y498917D01*
X382332D01*
X371502Y509747D02*
Y514079D01*
Y511913D01*
X384498D01*
Y509747D01*
Y514079D01*
X371502Y527075D02*
Y522743D01*
X373668Y520577D01*
X382332D01*
X384498Y522743D01*
Y527075D01*
X382332Y529241D01*
X373668D01*
X371502Y527075D01*
X384498Y533573D02*
Y537905D01*
Y535738D01*
X371502D01*
X373668Y533573D01*
X670502Y463930D02*
X683498D01*
Y470428D01*
X681332Y472593D01*
X672668D01*
X670502Y470428D01*
Y463930D01*
X683498Y476926D02*
Y481257D01*
Y479091D01*
X670502D01*
X672668Y476926D01*
X681332Y487755D02*
X683498Y489921D01*
Y494253D01*
X681332Y496419D01*
X672668D01*
X670502Y494253D01*
Y489921D01*
X672668Y487755D01*
X674834D01*
X677000Y489921D01*
Y496419D01*
X674834Y500751D02*
Y502917D01*
X677000D01*
Y500751D01*
X674834D01*
X681332D02*
Y502917D01*
X683498D01*
Y500751D01*
X681332D01*
X670502Y511581D02*
Y515913D01*
Y513747D01*
X683498D01*
Y511581D01*
Y515913D01*
X670502Y528909D02*
Y524577D01*
X672668Y522411D01*
X681332D01*
X683498Y524577D01*
Y528909D01*
X681332Y531075D01*
X672668D01*
X670502Y528909D01*
X683498Y544070D02*
Y535406D01*
X674834Y544070D01*
X672668D01*
X670502Y541904D01*
Y537573D01*
X672668Y535406D01*
X971502Y462930D02*
X984498D01*
Y469428D01*
X982332Y471594D01*
X973668D01*
X971502Y469428D01*
Y462930D01*
X984498Y475925D02*
Y480257D01*
Y478091D01*
X971502D01*
X973668Y475925D01*
X982332Y486755D02*
X984498Y488921D01*
Y493253D01*
X982332Y495419D01*
X973668D01*
X971502Y493253D01*
Y488921D01*
X973668Y486755D01*
X975834D01*
X978000Y488921D01*
Y495419D01*
X975834Y499751D02*
Y501917D01*
X978000D01*
Y499751D01*
X975834D01*
X982332D02*
Y501917D01*
X984498D01*
Y499751D01*
X982332D01*
X971502Y510581D02*
Y514913D01*
Y512747D01*
X984498D01*
Y510581D01*
Y514913D01*
X971502Y527909D02*
Y523577D01*
X973668Y521411D01*
X982332D01*
X984498Y523577D01*
Y527909D01*
X982332Y530075D01*
X973668D01*
X971502Y527909D01*
X973668Y534407D02*
X971502Y536572D01*
Y540905D01*
X973668Y543070D01*
X975834D01*
X978000Y540905D01*
Y538739D01*
Y540905D01*
X980166Y543070D01*
X982332D01*
X984498Y540905D01*
Y536572D01*
X982332Y534407D01*
X1269502Y462930D02*
X1282498D01*
Y469428D01*
X1280332Y471594D01*
X1271668D01*
X1269502Y469428D01*
Y462930D01*
X1282498Y475925D02*
Y480257D01*
Y478091D01*
X1269502D01*
X1271668Y475925D01*
X1280332Y486755D02*
X1282498Y488921D01*
Y493253D01*
X1280332Y495419D01*
X1271668D01*
X1269502Y493253D01*
Y488921D01*
X1271668Y486755D01*
X1273834D01*
X1276000Y488921D01*
Y495419D01*
X1273834Y499751D02*
Y501917D01*
X1276000D01*
Y499751D01*
X1273834D01*
X1280332D02*
Y501917D01*
X1282498D01*
Y499751D01*
X1280332D01*
X1269502Y510581D02*
Y514913D01*
Y512747D01*
X1282498D01*
Y510581D01*
Y514913D01*
X1269502Y527909D02*
Y523577D01*
X1271668Y521411D01*
X1280332D01*
X1282498Y523577D01*
Y527909D01*
X1280332Y530075D01*
X1271668D01*
X1269502Y527909D01*
X1282498Y540905D02*
X1269502D01*
X1276000Y534407D01*
Y543070D01*
X218502Y416757D02*
Y408093D01*
X225000D01*
Y412425D01*
Y408093D01*
X231498D01*
Y421089D02*
Y425421D01*
Y423255D01*
X218502D01*
X220668Y421089D01*
X222834Y431919D02*
Y434085D01*
X225000D01*
Y431919D01*
X222834D01*
X229332D02*
Y434085D01*
X231498D01*
Y431919D01*
X229332D01*
X218502Y442749D02*
Y447081D01*
Y444915D01*
X231498D01*
Y442749D01*
Y447081D01*
X218502Y460077D02*
Y455745D01*
X220668Y453579D01*
X229332D01*
X231498Y455745D01*
Y460077D01*
X229332Y462243D01*
X220668D01*
X218502Y460077D01*
X231498Y466575D02*
Y470907D01*
Y468741D01*
X218502D01*
X220668Y466575D01*
X515502Y411091D02*
Y402428D01*
X522000D01*
Y406759D01*
Y402428D01*
X528498D01*
Y415423D02*
Y419755D01*
Y417589D01*
X515502D01*
X517668Y415423D01*
X519834Y426253D02*
Y428419D01*
X522000D01*
Y426253D01*
X519834D01*
X526332D02*
Y428419D01*
X528498D01*
Y426253D01*
X526332D01*
X515502Y437083D02*
Y441415D01*
Y439249D01*
X528498D01*
Y437083D01*
Y441415D01*
X515502Y454411D02*
Y450079D01*
X517668Y447913D01*
X526332D01*
X528498Y450079D01*
Y454411D01*
X526332Y456577D01*
X517668D01*
X515502Y454411D01*
X528498Y469572D02*
Y460909D01*
X519834Y469572D01*
X517668D01*
X515502Y467407D01*
Y463075D01*
X517668Y460909D01*
X815502Y411091D02*
Y402428D01*
X822000D01*
Y406759D01*
Y402428D01*
X828498D01*
Y415423D02*
Y419755D01*
Y417589D01*
X815502D01*
X817668Y415423D01*
X819834Y426253D02*
Y428419D01*
X822000D01*
Y426253D01*
X819834D01*
X826332D02*
Y428419D01*
X828498D01*
Y426253D01*
X826332D01*
X815502Y437083D02*
Y441415D01*
Y439249D01*
X828498D01*
Y437083D01*
Y441415D01*
X815502Y454411D02*
Y450079D01*
X817668Y447913D01*
X826332D01*
X828498Y450079D01*
Y454411D01*
X826332Y456577D01*
X817668D01*
X815502Y454411D01*
X817668Y460909D02*
X815502Y463075D01*
Y467407D01*
X817668Y469572D01*
X819834D01*
X822000Y467407D01*
Y465241D01*
Y467407D01*
X824166Y469572D01*
X826332D01*
X828498Y467407D01*
Y463075D01*
X826332Y460909D01*
X1114502Y412091D02*
Y403428D01*
X1121000D01*
Y407760D01*
Y403428D01*
X1127498D01*
Y416423D02*
Y420755D01*
Y418589D01*
X1114502D01*
X1116668Y416423D01*
X1118834Y427253D02*
Y429419D01*
X1121000D01*
Y427253D01*
X1118834D01*
X1125332D02*
Y429419D01*
X1127498D01*
Y427253D01*
X1125332D01*
X1114502Y438083D02*
Y442415D01*
Y440249D01*
X1127498D01*
Y438083D01*
Y442415D01*
X1114502Y455411D02*
Y451079D01*
X1116668Y448913D01*
X1125332D01*
X1127498Y451079D01*
Y455411D01*
X1125332Y457577D01*
X1116668D01*
X1114502Y455411D01*
X1127498Y468407D02*
X1114502D01*
X1121000Y461909D01*
Y470573D01*
X237174Y543498D02*
X228510D01*
Y537000D01*
X232843D01*
X228510D01*
Y530502D01*
X241506Y541332D02*
X243672Y543498D01*
X248004D01*
X250170Y541332D01*
Y539166D01*
X248004Y537000D01*
X245838D01*
X248004D01*
X250170Y534834D01*
Y532668D01*
X248004Y530502D01*
X243672D01*
X241506Y532668D01*
X254502Y539166D02*
X256668D01*
Y537000D01*
X254502D01*
Y539166D01*
Y532668D02*
X256668D01*
Y530502D01*
X254502D01*
Y532668D01*
X265332Y543498D02*
X269664D01*
X267498D01*
Y530502D01*
X265332D01*
X269664D01*
X282660Y543498D02*
X278328D01*
X276162Y541332D01*
Y532668D01*
X278328Y530502D01*
X282660D01*
X284826Y532668D01*
Y541332D01*
X282660Y543498D01*
X289158Y530502D02*
X293489D01*
X291324D01*
Y543498D01*
X289158Y541332D01*
X534008Y543498D02*
X525345D01*
Y537000D01*
X529677D01*
X525345D01*
Y530502D01*
X538340Y541332D02*
X540506Y543498D01*
X544838D01*
X547004Y541332D01*
Y539166D01*
X544838Y537000D01*
X542672D01*
X544838D01*
X547004Y534834D01*
Y532668D01*
X544838Y530502D01*
X540506D01*
X538340Y532668D01*
X551336Y539166D02*
X553502D01*
Y537000D01*
X551336D01*
Y539166D01*
Y532668D02*
X553502D01*
Y530502D01*
X551336D01*
Y532668D01*
X562166Y543498D02*
X566498D01*
X564332D01*
Y530502D01*
X562166D01*
X566498D01*
X579494Y543498D02*
X575162D01*
X572996Y541332D01*
Y532668D01*
X575162Y530502D01*
X579494D01*
X581660Y532668D01*
Y541332D01*
X579494Y543498D01*
X594655Y530502D02*
X585992D01*
X594655Y539166D01*
Y541332D01*
X592490Y543498D01*
X588158D01*
X585992Y541332D01*
X833008Y544498D02*
X824345D01*
Y538000D01*
X828677D01*
X824345D01*
Y531502D01*
X837340Y542332D02*
X839506Y544498D01*
X843838D01*
X846004Y542332D01*
Y540166D01*
X843838Y538000D01*
X841672D01*
X843838D01*
X846004Y535834D01*
Y533668D01*
X843838Y531502D01*
X839506D01*
X837340Y533668D01*
X850336Y540166D02*
X852502D01*
Y538000D01*
X850336D01*
Y540166D01*
Y533668D02*
X852502D01*
Y531502D01*
X850336D01*
Y533668D01*
X861166Y544498D02*
X865498D01*
X863332D01*
Y531502D01*
X861166D01*
X865498D01*
X878494Y544498D02*
X874162D01*
X871996Y542332D01*
Y533668D01*
X874162Y531502D01*
X878494D01*
X880660Y533668D01*
Y542332D01*
X878494Y544498D01*
X884992Y542332D02*
X887158Y544498D01*
X891489D01*
X893655Y542332D01*
Y540166D01*
X891489Y538000D01*
X889324D01*
X891489D01*
X893655Y535834D01*
Y533668D01*
X891489Y531502D01*
X887158D01*
X884992Y533668D01*
X1134008Y544498D02*
X1125345D01*
Y538000D01*
X1129677D01*
X1125345D01*
Y531502D01*
X1138340Y542332D02*
X1140506Y544498D01*
X1144838D01*
X1147004Y542332D01*
Y540166D01*
X1144838Y538000D01*
X1142672D01*
X1144838D01*
X1147004Y535834D01*
Y533668D01*
X1144838Y531502D01*
X1140506D01*
X1138340Y533668D01*
X1151336Y540166D02*
X1153502D01*
Y538000D01*
X1151336D01*
Y540166D01*
Y533668D02*
X1153502D01*
Y531502D01*
X1151336D01*
Y533668D01*
X1162166Y544498D02*
X1166498D01*
X1164332D01*
Y531502D01*
X1162166D01*
X1166498D01*
X1179494Y544498D02*
X1175162D01*
X1172996Y542332D01*
Y533668D01*
X1175162Y531502D01*
X1179494D01*
X1181660Y533668D01*
Y542332D01*
X1179494Y544498D01*
X1192489Y531502D02*
Y544498D01*
X1185992Y538000D01*
X1194656D01*
X464502Y413174D02*
Y404510D01*
X471000D01*
Y408843D01*
Y404510D01*
X477498D01*
Y424004D02*
X464502D01*
X471000Y417506D01*
Y426170D01*
X468834Y430502D02*
Y432668D01*
X471000D01*
Y430502D01*
X468834D01*
X475332D02*
Y432668D01*
X477498D01*
Y430502D01*
X475332D01*
X464502Y441332D02*
Y445664D01*
Y443498D01*
X477498D01*
Y441332D01*
Y445664D01*
X464502Y458660D02*
Y454328D01*
X466668Y452162D01*
X475332D01*
X477498Y454328D01*
Y458660D01*
X475332Y460826D01*
X466668D01*
X464502Y458660D01*
X477498Y465158D02*
Y469490D01*
Y467324D01*
X464502D01*
X466668Y465158D01*
X763502Y409008D02*
Y400345D01*
X770000D01*
Y404677D01*
Y400345D01*
X776498D01*
Y419838D02*
X763502D01*
X770000Y413340D01*
Y422004D01*
X767834Y426336D02*
Y428502D01*
X770000D01*
Y426336D01*
X767834D01*
X774332D02*
Y428502D01*
X776498D01*
Y426336D01*
X774332D01*
X763502Y437166D02*
Y441498D01*
Y439332D01*
X776498D01*
Y437166D01*
Y441498D01*
X763502Y454494D02*
Y450162D01*
X765668Y447996D01*
X774332D01*
X776498Y450162D01*
Y454494D01*
X774332Y456660D01*
X765668D01*
X763502Y454494D01*
X776498Y469655D02*
Y460992D01*
X767834Y469655D01*
X765668D01*
X763502Y467490D01*
Y463158D01*
X765668Y460992D01*
X1063502Y408008D02*
Y399345D01*
X1070000D01*
Y403676D01*
Y399345D01*
X1076498D01*
Y418838D02*
X1063502D01*
X1070000Y412340D01*
Y421004D01*
X1067834Y425336D02*
Y427502D01*
X1070000D01*
Y425336D01*
X1067834D01*
X1074332D02*
Y427502D01*
X1076498D01*
Y425336D01*
X1074332D01*
X1063502Y436166D02*
Y440498D01*
Y438332D01*
X1076498D01*
Y436166D01*
Y440498D01*
X1063502Y453494D02*
Y449162D01*
X1065668Y446996D01*
X1074332D01*
X1076498Y449162D01*
Y453494D01*
X1074332Y455660D01*
X1065668D01*
X1063502Y453494D01*
X1065668Y459992D02*
X1063502Y462158D01*
Y466490D01*
X1065668Y468656D01*
X1067834D01*
X1070000Y466490D01*
Y464324D01*
Y466490D01*
X1072166Y468656D01*
X1074332D01*
X1076498Y466490D01*
Y462158D01*
X1074332Y459992D01*
X1364502Y409008D02*
Y400345D01*
X1371000D01*
Y404677D01*
Y400345D01*
X1377498D01*
Y419838D02*
X1364502D01*
X1371000Y413340D01*
Y422004D01*
X1368834Y426336D02*
Y428502D01*
X1371000D01*
Y426336D01*
X1368834D01*
X1375332D02*
Y428502D01*
X1377498D01*
Y426336D01*
X1375332D01*
X1364502Y437166D02*
Y441498D01*
Y439332D01*
X1377498D01*
Y437166D01*
Y441498D01*
X1364502Y454494D02*
Y450162D01*
X1366668Y447996D01*
X1375332D01*
X1377498Y450162D01*
Y454494D01*
X1375332Y456660D01*
X1366668D01*
X1364502Y454494D01*
X1377498Y467490D02*
X1364502D01*
X1371000Y460992D01*
Y469655D01*
X411174Y543498D02*
X402510D01*
Y537000D01*
X406842D01*
X402510D01*
Y530502D01*
X424170Y543498D02*
X419838Y541332D01*
X415506Y537000D01*
Y532668D01*
X417672Y530502D01*
X422004D01*
X424170Y532668D01*
Y534834D01*
X422004Y537000D01*
X415506D01*
X428502Y539166D02*
X430668D01*
Y537000D01*
X428502D01*
Y539166D01*
Y532668D02*
X430668D01*
Y530502D01*
X428502D01*
Y532668D01*
X439332Y543498D02*
X443664D01*
X441498D01*
Y530502D01*
X439332D01*
X443664D01*
X456660Y543498D02*
X452328D01*
X450162Y541332D01*
Y532668D01*
X452328Y530502D01*
X456660D01*
X458826Y532668D01*
Y541332D01*
X456660Y543498D01*
X463158Y530502D02*
X467490D01*
X465324D01*
Y543498D01*
X463158Y541332D01*
X706008Y542498D02*
X697345D01*
Y536000D01*
X701676D01*
X697345D01*
Y529502D01*
X719004Y542498D02*
X714672Y540332D01*
X710340Y536000D01*
Y531668D01*
X712506Y529502D01*
X716838D01*
X719004Y531668D01*
Y533834D01*
X716838Y536000D01*
X710340D01*
X723336Y538166D02*
X725502D01*
Y536000D01*
X723336D01*
Y538166D01*
Y531668D02*
X725502D01*
Y529502D01*
X723336D01*
Y531668D01*
X734166Y542498D02*
X738498D01*
X736332D01*
Y529502D01*
X734166D01*
X738498D01*
X751494Y542498D02*
X747162D01*
X744996Y540332D01*
Y531668D01*
X747162Y529502D01*
X751494D01*
X753660Y531668D01*
Y540332D01*
X751494Y542498D01*
X766656Y529502D02*
X757992D01*
X766656Y538166D01*
Y540332D01*
X764490Y542498D01*
X760158D01*
X757992Y540332D01*
X1003008Y544498D02*
X994345D01*
Y538000D01*
X998677D01*
X994345D01*
Y531502D01*
X1016004Y544498D02*
X1011672Y542332D01*
X1007340Y538000D01*
Y533668D01*
X1009506Y531502D01*
X1013838D01*
X1016004Y533668D01*
Y535834D01*
X1013838Y538000D01*
X1007340D01*
X1020336Y540166D02*
X1022502D01*
Y538000D01*
X1020336D01*
Y540166D01*
Y533668D02*
X1022502D01*
Y531502D01*
X1020336D01*
Y533668D01*
X1031166Y544498D02*
X1035498D01*
X1033332D01*
Y531502D01*
X1031166D01*
X1035498D01*
X1048494Y544498D02*
X1044162D01*
X1041996Y542332D01*
Y533668D01*
X1044162Y531502D01*
X1048494D01*
X1050660Y533668D01*
Y542332D01*
X1048494Y544498D01*
X1054992Y542332D02*
X1057158Y544498D01*
X1061489D01*
X1063655Y542332D01*
Y540166D01*
X1061489Y538000D01*
X1059324D01*
X1061489D01*
X1063655Y535834D01*
Y533668D01*
X1061489Y531502D01*
X1057158D01*
X1054992Y533668D01*
X1304008Y544498D02*
X1295345D01*
Y538000D01*
X1299677D01*
X1295345D01*
Y531502D01*
X1317004Y544498D02*
X1312672Y542332D01*
X1308340Y538000D01*
Y533668D01*
X1310506Y531502D01*
X1314838D01*
X1317004Y533668D01*
Y535834D01*
X1314838Y538000D01*
X1308340D01*
X1321336Y540166D02*
X1323502D01*
Y538000D01*
X1321336D01*
Y540166D01*
Y533668D02*
X1323502D01*
Y531502D01*
X1321336D01*
Y533668D01*
X1332166Y544498D02*
X1336498D01*
X1334332D01*
Y531502D01*
X1332166D01*
X1336498D01*
X1349494Y544498D02*
X1345162D01*
X1342996Y542332D01*
Y533668D01*
X1345162Y531502D01*
X1349494D01*
X1351660Y533668D01*
Y542332D01*
X1349494Y544498D01*
X1362489Y531502D02*
Y544498D01*
X1355992Y538000D01*
X1364655D01*
X1349153Y1120129D02*
X1358342Y1110940D01*
X1353747Y1115534D01*
X1359874Y1121661D01*
X1355279Y1126255D01*
X1364468Y1117066D01*
X1358342Y1129318D02*
X1367532Y1120129D01*
X1373658Y1126255D01*
X1375189Y1130850D02*
X1378253D01*
X1381316Y1133913D01*
Y1136976D01*
X1375189Y1143103D01*
X1372126D01*
X1369063Y1140039D01*
X1369063Y1136976D01*
X1370595Y1135445D01*
X1373658D01*
X1378253Y1140039D01*
X1339324Y1178513D02*
X1348513Y1169324D01*
X1343918Y1173919D01*
X1350045Y1180045D01*
X1345450Y1184640D01*
X1354639Y1175450D01*
X1348513Y1187703D02*
X1357703Y1178513D01*
X1363829Y1184640D01*
X1366892Y1187703D02*
X1369955Y1190766D01*
X1368424Y1189234D01*
X1359234Y1198424D01*
X1359234Y1195361D01*
X1366892Y1203018D02*
X1366892Y1206081D01*
X1369955Y1209145D01*
X1373018Y1209145D01*
X1379145Y1203018D01*
Y1199955D01*
X1376082Y1196892D01*
X1373018D01*
X1366892Y1203018D01*
X229681Y1094498D02*
Y1081502D01*
Y1088000D01*
X238345D01*
Y1094498D01*
Y1081502D01*
X242677Y1094498D02*
Y1081502D01*
X251340D01*
X255672D02*
X260004D01*
X257838D01*
Y1094498D01*
X255672Y1092332D01*
X266502Y1081502D02*
X270834D01*
X268668D01*
Y1094498D01*
X266502Y1092332D01*
X277332Y1090166D02*
X279498D01*
Y1088000D01*
X277332D01*
Y1090166D01*
Y1083668D02*
X279498D01*
Y1081502D01*
X277332D01*
Y1083668D01*
X288162Y1094498D02*
X292494D01*
X290328D01*
Y1081502D01*
X288162D01*
X292494D01*
X305490Y1094498D02*
X301158D01*
X298992Y1092332D01*
Y1083668D01*
X301158Y1081502D01*
X305490D01*
X307656Y1083668D01*
Y1092332D01*
X305490Y1094498D01*
X311987Y1081502D02*
X316319D01*
X314153D01*
Y1094498D01*
X311987Y1092332D01*
X523515Y1092498D02*
Y1079502D01*
Y1086000D01*
X532179D01*
Y1092498D01*
Y1079502D01*
X536511Y1092498D02*
Y1079502D01*
X545174D01*
X549506D02*
X553838D01*
X551672D01*
Y1092498D01*
X549506Y1090332D01*
X560336Y1079502D02*
X564668D01*
X562502D01*
Y1092498D01*
X560336Y1090332D01*
X571166Y1088166D02*
X573332D01*
Y1086000D01*
X571166D01*
Y1088166D01*
Y1081668D02*
X573332D01*
Y1079502D01*
X571166D01*
Y1081668D01*
X581996Y1092498D02*
X586328D01*
X584162D01*
Y1079502D01*
X581996D01*
X586328D01*
X599324Y1092498D02*
X594992D01*
X592826Y1090332D01*
Y1081668D01*
X594992Y1079502D01*
X599324D01*
X601489Y1081668D01*
Y1090332D01*
X599324Y1092498D01*
X614485Y1079502D02*
X605821D01*
X614485Y1088166D01*
Y1090332D01*
X612319Y1092498D01*
X607987D01*
X605821Y1090332D01*
X815515Y1096498D02*
Y1083502D01*
Y1090000D01*
X824179D01*
Y1096498D01*
Y1083502D01*
X828511Y1096498D02*
Y1083502D01*
X837174D01*
X841506D02*
X845838D01*
X843672D01*
Y1096498D01*
X841506Y1094332D01*
X852336Y1083502D02*
X856668D01*
X854502D01*
Y1096498D01*
X852336Y1094332D01*
X863166Y1092166D02*
X865332D01*
Y1090000D01*
X863166D01*
Y1092166D01*
Y1085668D02*
X865332D01*
Y1083502D01*
X863166D01*
Y1085668D01*
X873996Y1096498D02*
X878328D01*
X876162D01*
Y1083502D01*
X873996D01*
X878328D01*
X891324Y1096498D02*
X886992D01*
X884826Y1094332D01*
Y1085668D01*
X886992Y1083502D01*
X891324D01*
X893490Y1085668D01*
Y1094332D01*
X891324Y1096498D01*
X897822Y1094332D02*
X899987Y1096498D01*
X904319D01*
X906485Y1094332D01*
Y1092166D01*
X904319Y1090000D01*
X902153D01*
X904319D01*
X906485Y1087834D01*
Y1085668D01*
X904319Y1083502D01*
X899987D01*
X897822Y1085668D01*
X1121515Y1094498D02*
Y1081502D01*
Y1088000D01*
X1130179D01*
Y1094498D01*
Y1081502D01*
X1134511Y1094498D02*
Y1081502D01*
X1143174D01*
X1147506D02*
X1151838D01*
X1149672D01*
Y1094498D01*
X1147506Y1092332D01*
X1158336Y1081502D02*
X1162668D01*
X1160502D01*
Y1094498D01*
X1158336Y1092332D01*
X1169166Y1090166D02*
X1171332D01*
Y1088000D01*
X1169166D01*
Y1090166D01*
Y1083668D02*
X1171332D01*
Y1081502D01*
X1169166D01*
Y1083668D01*
X1179996Y1094498D02*
X1184328D01*
X1182162D01*
Y1081502D01*
X1179996D01*
X1184328D01*
X1197324Y1094498D02*
X1192992D01*
X1190826Y1092332D01*
Y1083668D01*
X1192992Y1081502D01*
X1197324D01*
X1199490Y1083668D01*
Y1092332D01*
X1197324Y1094498D01*
X1210319Y1081502D02*
Y1094498D01*
X1203821Y1088000D01*
X1212485D01*
X290502Y920598D02*
X303498D01*
X297000D01*
Y929262D01*
X290502D01*
X303498D01*
X290502Y933594D02*
X303498D01*
Y942257D01*
Y946589D02*
Y950921D01*
Y948755D01*
X290502D01*
X292668Y946589D01*
X303498Y966083D02*
Y957419D01*
X294834Y966083D01*
X292668D01*
X290502Y963917D01*
Y959585D01*
X292668Y957419D01*
X294834Y970415D02*
Y972581D01*
X297000D01*
Y970415D01*
X294834D01*
X301332D02*
Y972581D01*
X303498D01*
Y970415D01*
X301332D01*
X290502Y981245D02*
Y985577D01*
Y983411D01*
X303498D01*
Y981245D01*
Y985577D01*
X290502Y998572D02*
Y994241D01*
X292668Y992075D01*
X301332D01*
X303498Y994241D01*
Y998572D01*
X301332Y1000739D01*
X292668D01*
X290502Y998572D01*
X303498Y1005070D02*
Y1009402D01*
Y1007236D01*
X290502D01*
X292668Y1005070D01*
X589502Y916432D02*
X602498D01*
X596000D01*
Y925096D01*
X589502D01*
X602498D01*
X589502Y929427D02*
X602498D01*
Y938091D01*
Y942423D02*
Y946755D01*
Y944589D01*
X589502D01*
X591668Y942423D01*
X602498Y961917D02*
Y953253D01*
X593834Y961917D01*
X591668D01*
X589502Y959751D01*
Y955419D01*
X591668Y953253D01*
X593834Y966249D02*
Y968415D01*
X596000D01*
Y966249D01*
X593834D01*
X600332D02*
Y968415D01*
X602498D01*
Y966249D01*
X600332D01*
X589502Y977079D02*
Y981411D01*
Y979245D01*
X602498D01*
Y977079D01*
Y981411D01*
X589502Y994407D02*
Y990075D01*
X591668Y987909D01*
X600332D01*
X602498Y990075D01*
Y994407D01*
X600332Y996572D01*
X591668D01*
X589502Y994407D01*
X602498Y1009568D02*
Y1000904D01*
X593834Y1009568D01*
X591668D01*
X589502Y1007402D01*
Y1003070D01*
X591668Y1000904D01*
X890502Y914432D02*
X903498D01*
X897000D01*
Y923096D01*
X890502D01*
X903498D01*
X890502Y927428D02*
X903498D01*
Y936091D01*
Y940423D02*
Y944755D01*
Y942589D01*
X890502D01*
X892668Y940423D01*
X903498Y959917D02*
Y951253D01*
X894834Y959917D01*
X892668D01*
X890502Y957751D01*
Y953419D01*
X892668Y951253D01*
X894834Y964249D02*
Y966415D01*
X897000D01*
Y964249D01*
X894834D01*
X901332D02*
Y966415D01*
X903498D01*
Y964249D01*
X901332D01*
X890502Y975079D02*
Y979411D01*
Y977245D01*
X903498D01*
Y975079D01*
Y979411D01*
X890502Y992406D02*
Y988075D01*
X892668Y985909D01*
X901332D01*
X903498Y988075D01*
Y992406D01*
X901332Y994573D01*
X892668D01*
X890502Y992406D01*
X892668Y998904D02*
X890502Y1001070D01*
Y1005402D01*
X892668Y1007568D01*
X894834D01*
X897000Y1005402D01*
Y1003236D01*
Y1005402D01*
X899166Y1007568D01*
X901332D01*
X903498Y1005402D01*
Y1001070D01*
X901332Y998904D01*
X1189502Y915432D02*
X1202498D01*
X1196000D01*
Y924096D01*
X1189502D01*
X1202498D01*
X1189502Y928428D02*
X1202498D01*
Y937091D01*
Y941423D02*
Y945755D01*
Y943589D01*
X1189502D01*
X1191668Y941423D01*
X1202498Y960917D02*
Y952253D01*
X1193834Y960917D01*
X1191668D01*
X1189502Y958751D01*
Y954419D01*
X1191668Y952253D01*
X1193834Y965249D02*
Y967415D01*
X1196000D01*
Y965249D01*
X1193834D01*
X1200332D02*
Y967415D01*
X1202498D01*
Y965249D01*
X1200332D01*
X1189502Y976079D02*
Y980411D01*
Y978245D01*
X1202498D01*
Y976079D01*
Y980411D01*
X1189502Y993407D02*
Y989075D01*
X1191668Y986909D01*
X1200332D01*
X1202498Y989075D01*
Y993407D01*
X1200332Y995573D01*
X1191668D01*
X1189502Y993407D01*
X1202498Y1006402D02*
X1189502D01*
X1196000Y999904D01*
Y1008568D01*
X378598Y1094498D02*
Y1081502D01*
Y1088000D01*
X387262D01*
Y1094498D01*
Y1081502D01*
X391594Y1094498D02*
Y1081502D01*
X400257D01*
X404589D02*
X408921D01*
X406755D01*
Y1094498D01*
X404589Y1092332D01*
X415419D02*
X417585Y1094498D01*
X421917D01*
X424083Y1092332D01*
Y1090166D01*
X421917Y1088000D01*
X419751D01*
X421917D01*
X424083Y1085834D01*
Y1083668D01*
X421917Y1081502D01*
X417585D01*
X415419Y1083668D01*
X428415Y1090166D02*
X430581D01*
Y1088000D01*
X428415D01*
Y1090166D01*
Y1083668D02*
X430581D01*
Y1081502D01*
X428415D01*
Y1083668D01*
X439245Y1094498D02*
X443577D01*
X441411D01*
Y1081502D01*
X439245D01*
X443577D01*
X456572Y1094498D02*
X452240D01*
X450075Y1092332D01*
Y1083668D01*
X452240Y1081502D01*
X456572D01*
X458739Y1083668D01*
Y1092332D01*
X456572Y1094498D01*
X463070Y1081502D02*
X467402D01*
X465236D01*
Y1094498D01*
X463070Y1092332D01*
X675432Y1095498D02*
Y1082502D01*
Y1089000D01*
X684096D01*
Y1095498D01*
Y1082502D01*
X688428Y1095498D02*
Y1082502D01*
X697091D01*
X701423D02*
X705755D01*
X703589D01*
Y1095498D01*
X701423Y1093332D01*
X712253D02*
X714419Y1095498D01*
X718751D01*
X720917Y1093332D01*
Y1091166D01*
X718751Y1089000D01*
X716585D01*
X718751D01*
X720917Y1086834D01*
Y1084668D01*
X718751Y1082502D01*
X714419D01*
X712253Y1084668D01*
X725249Y1091166D02*
X727415D01*
Y1089000D01*
X725249D01*
Y1091166D01*
Y1084668D02*
X727415D01*
Y1082502D01*
X725249D01*
Y1084668D01*
X736079Y1095498D02*
X740411D01*
X738245D01*
Y1082502D01*
X736079D01*
X740411D01*
X753407Y1095498D02*
X749075D01*
X746909Y1093332D01*
Y1084668D01*
X749075Y1082502D01*
X753407D01*
X755573Y1084668D01*
Y1093332D01*
X753407Y1095498D01*
X768568Y1082502D02*
X759904D01*
X768568Y1091166D01*
Y1093332D01*
X766402Y1095498D01*
X762070D01*
X759904Y1093332D01*
X975432Y1094498D02*
Y1081502D01*
Y1088000D01*
X984096D01*
Y1094498D01*
Y1081502D01*
X988428Y1094498D02*
Y1081502D01*
X997091D01*
X1001423D02*
X1005755D01*
X1003589D01*
Y1094498D01*
X1001423Y1092332D01*
X1012253D02*
X1014419Y1094498D01*
X1018751D01*
X1020917Y1092332D01*
Y1090166D01*
X1018751Y1088000D01*
X1016585D01*
X1018751D01*
X1020917Y1085834D01*
Y1083668D01*
X1018751Y1081502D01*
X1014419D01*
X1012253Y1083668D01*
X1025249Y1090166D02*
X1027415D01*
Y1088000D01*
X1025249D01*
Y1090166D01*
Y1083668D02*
X1027415D01*
Y1081502D01*
X1025249D01*
Y1083668D01*
X1036079Y1094498D02*
X1040411D01*
X1038245D01*
Y1081502D01*
X1036079D01*
X1040411D01*
X1053407Y1094498D02*
X1049075D01*
X1046909Y1092332D01*
Y1083668D01*
X1049075Y1081502D01*
X1053407D01*
X1055573Y1083668D01*
Y1092332D01*
X1053407Y1094498D01*
X1059904Y1092332D02*
X1062070Y1094498D01*
X1066402D01*
X1068568Y1092332D01*
Y1090166D01*
X1066402Y1088000D01*
X1064236D01*
X1066402D01*
X1068568Y1085834D01*
Y1083668D01*
X1066402Y1081502D01*
X1062070D01*
X1059904Y1083668D01*
X1318432Y1079498D02*
Y1066502D01*
Y1073000D01*
X1327096D01*
Y1079498D01*
Y1066502D01*
X1331427Y1079498D02*
Y1066502D01*
X1340091D01*
X1344423D02*
X1348755D01*
X1346589D01*
Y1079498D01*
X1344423Y1077332D01*
X1355253D02*
X1357419Y1079498D01*
X1361751D01*
X1363917Y1077332D01*
Y1075166D01*
X1361751Y1073000D01*
X1359585D01*
X1361751D01*
X1363917Y1070834D01*
Y1068668D01*
X1361751Y1066502D01*
X1357419D01*
X1355253Y1068668D01*
X1368249Y1075166D02*
X1370415D01*
Y1073000D01*
X1368249D01*
Y1075166D01*
Y1068668D02*
X1370415D01*
Y1066502D01*
X1368249D01*
Y1068668D01*
X1379079Y1079498D02*
X1383411D01*
X1381245D01*
Y1066502D01*
X1379079D01*
X1383411D01*
X1396407Y1079498D02*
X1392075D01*
X1389909Y1077332D01*
Y1068668D01*
X1392075Y1066502D01*
X1396407D01*
X1398573Y1068668D01*
Y1077332D01*
X1396407Y1079498D01*
X1409402Y1066502D02*
Y1079498D01*
X1402904Y1073000D01*
X1411568D01*
X389502Y922598D02*
X402498D01*
X396000D01*
Y931262D01*
X389502D01*
X402498D01*
X389502Y935593D02*
X402498D01*
Y944257D01*
Y948589D02*
Y952921D01*
Y950755D01*
X389502D01*
X391668Y948589D01*
X402498Y965917D02*
X389502D01*
X396000Y959419D01*
Y968083D01*
X393834Y972415D02*
Y974581D01*
X396000D01*
Y972415D01*
X393834D01*
X400332D02*
Y974581D01*
X402498D01*
Y972415D01*
X400332D01*
X389502Y983245D02*
Y987577D01*
Y985411D01*
X402498D01*
Y983245D01*
Y987577D01*
X389502Y1000573D02*
Y996241D01*
X391668Y994075D01*
X400332D01*
X402498Y996241D01*
Y1000573D01*
X400332Y1002738D01*
X391668D01*
X389502Y1000573D01*
X402498Y1007070D02*
Y1011402D01*
Y1009236D01*
X389502D01*
X391668Y1007070D01*
X689502Y914432D02*
X702498D01*
X696000D01*
Y923096D01*
X689502D01*
X702498D01*
X689502Y927428D02*
X702498D01*
Y936091D01*
Y940423D02*
Y944755D01*
Y942589D01*
X689502D01*
X691668Y940423D01*
X702498Y957751D02*
X689502D01*
X696000Y951253D01*
Y959917D01*
X693834Y964249D02*
Y966415D01*
X696000D01*
Y964249D01*
X693834D01*
X700332D02*
Y966415D01*
X702498D01*
Y964249D01*
X700332D01*
X689502Y975079D02*
Y979411D01*
Y977245D01*
X702498D01*
Y975079D01*
Y979411D01*
X689502Y992406D02*
Y988075D01*
X691668Y985909D01*
X700332D01*
X702498Y988075D01*
Y992406D01*
X700332Y994573D01*
X691668D01*
X689502Y992406D01*
X702498Y1007568D02*
Y998904D01*
X693834Y1007568D01*
X691668D01*
X689502Y1005402D01*
Y1001070D01*
X691668Y998904D01*
X992502Y914432D02*
X1005498D01*
X999000D01*
Y923096D01*
X992502D01*
X1005498D01*
X992502Y927428D02*
X1005498D01*
Y936091D01*
Y940423D02*
Y944755D01*
Y942589D01*
X992502D01*
X994668Y940423D01*
X1005498Y957751D02*
X992502D01*
X999000Y951253D01*
Y959917D01*
X996834Y964249D02*
Y966415D01*
X999000D01*
Y964249D01*
X996834D01*
X1003332D02*
Y966415D01*
X1005498D01*
Y964249D01*
X1003332D01*
X992502Y975079D02*
Y979411D01*
Y977245D01*
X1005498D01*
Y975079D01*
Y979411D01*
X992502Y992406D02*
Y988075D01*
X994668Y985909D01*
X1003332D01*
X1005498Y988075D01*
Y992406D01*
X1003332Y994573D01*
X994668D01*
X992502Y992406D01*
X994668Y998904D02*
X992502Y1001070D01*
Y1005402D01*
X994668Y1007568D01*
X996834D01*
X999000Y1005402D01*
Y1003236D01*
Y1005402D01*
X1001166Y1007568D01*
X1003332D01*
X1005498Y1005402D01*
Y1001070D01*
X1003332Y998904D01*
X1291502Y916432D02*
X1304498D01*
X1298000D01*
Y925096D01*
X1291502D01*
X1304498D01*
X1291502Y929428D02*
X1304498D01*
Y938091D01*
Y942423D02*
Y946755D01*
Y944589D01*
X1291502D01*
X1293668Y942423D01*
X1304498Y959751D02*
X1291502D01*
X1298000Y953253D01*
Y961917D01*
X1295834Y966249D02*
Y968415D01*
X1298000D01*
Y966249D01*
X1295834D01*
X1302332D02*
Y968415D01*
X1304498D01*
Y966249D01*
X1302332D01*
X1291502Y977079D02*
Y981411D01*
Y979245D01*
X1304498D01*
Y977079D01*
Y981411D01*
X1291502Y994407D02*
Y990075D01*
X1293668Y987909D01*
X1302332D01*
X1304498Y990075D01*
Y994407D01*
X1302332Y996572D01*
X1293668D01*
X1291502Y994407D01*
X1304498Y1007402D02*
X1291502D01*
X1298000Y1000904D01*
Y1009568D01*
X440000Y224498D02*
X435668D01*
X437834D01*
Y213668D01*
X435668Y211502D01*
X433502D01*
X431336Y213668D01*
X444332Y211502D02*
X448664D01*
X446498D01*
Y224498D01*
X444332Y222332D01*
X738834Y224498D02*
X734502D01*
X736668D01*
Y213668D01*
X734502Y211502D01*
X732336D01*
X730170Y213668D01*
X751830Y211502D02*
X743166D01*
X751830Y220166D01*
Y222332D01*
X749664Y224498D01*
X745332D01*
X743166Y222332D01*
X1037834Y224498D02*
X1033502D01*
X1035668D01*
Y213668D01*
X1033502Y211502D01*
X1031336D01*
X1029170Y213668D01*
X1042166Y222332D02*
X1044332Y224498D01*
X1048664D01*
X1050830Y222332D01*
Y220166D01*
X1048664Y218000D01*
X1046498D01*
X1048664D01*
X1050830Y215834D01*
Y213668D01*
X1048664Y211502D01*
X1044332D01*
X1042166Y213668D01*
X1341834Y223498D02*
X1337502D01*
X1339668D01*
Y212668D01*
X1337502Y210502D01*
X1335336D01*
X1333170Y212668D01*
X1352664Y210502D02*
Y223498D01*
X1346166Y217000D01*
X1354830D01*
X1605834Y258498D02*
X1601502D01*
X1603668D01*
Y247668D01*
X1601502Y245502D01*
X1599336D01*
X1597170Y247668D01*
X1618830Y258498D02*
X1610166D01*
Y252000D01*
X1614498Y254166D01*
X1616664D01*
X1618830Y252000D01*
Y247668D01*
X1616664Y245502D01*
X1612332D01*
X1610166Y247668D01*
X1571834Y1335498D02*
X1567502D01*
X1569668D01*
Y1324668D01*
X1567502Y1322502D01*
X1565336D01*
X1563170Y1324668D01*
X1584830Y1335498D02*
X1580498Y1333332D01*
X1576166Y1329000D01*
Y1324668D01*
X1578332Y1322502D01*
X1582664D01*
X1584830Y1324668D01*
Y1326834D01*
X1582664Y1329000D01*
X1576166D01*
X212838Y1536502D02*
Y1549498D01*
X217170Y1545166D01*
X221502Y1549498D01*
Y1536502D01*
X225834Y1549498D02*
Y1536502D01*
Y1543000D01*
X234498D01*
Y1549498D01*
Y1536502D01*
X238830D02*
X243162D01*
X240996D01*
Y1549498D01*
X238830Y1547332D01*
X1571672Y1571502D02*
Y1584498D01*
X1576004Y1580166D01*
X1580336Y1584498D01*
Y1571502D01*
X1584668Y1584498D02*
Y1571502D01*
Y1578000D01*
X1593332D01*
Y1584498D01*
Y1571502D01*
X1606328D02*
X1597664D01*
X1606328Y1580166D01*
Y1582332D01*
X1604162Y1584498D01*
X1599830D01*
X1597664Y1582332D01*
X207672Y222502D02*
Y235498D01*
X212004Y231166D01*
X216336Y235498D01*
Y222502D01*
X220668Y235498D02*
Y222502D01*
Y229000D01*
X229332D01*
Y235498D01*
Y222502D01*
X233664Y233332D02*
X235830Y235498D01*
X240162D01*
X242328Y233332D01*
Y231166D01*
X240162Y229000D01*
X237996D01*
X240162D01*
X242328Y226834D01*
Y224668D01*
X240162Y222502D01*
X235830D01*
X233664Y224668D01*
X1616672Y221502D02*
Y234498D01*
X1621004Y230166D01*
X1625336Y234498D01*
Y221502D01*
X1629668Y234498D02*
Y221502D01*
Y228000D01*
X1638332D01*
Y234498D01*
Y221502D01*
X1649162D02*
Y234498D01*
X1642664Y228000D01*
X1651328D01*
X414013Y584502D02*
Y597498D01*
X418345Y593166D01*
X422677Y597498D01*
Y584502D01*
X427008Y597498D02*
Y584502D01*
Y591000D01*
X435672D01*
Y597498D01*
Y584502D01*
X440004Y586668D02*
X442170Y584502D01*
X446502D01*
X448668Y586668D01*
Y595332D01*
X446502Y597498D01*
X442170D01*
X440004Y595332D01*
Y593166D01*
X442170Y591000D01*
X448668D01*
X453000Y593166D02*
X455166D01*
Y591000D01*
X453000D01*
Y593166D01*
Y586668D02*
X455166D01*
Y584502D01*
X453000D01*
Y586668D01*
X463830Y597498D02*
X468162D01*
X465996D01*
Y584502D01*
X463830D01*
X468162D01*
X481158Y597498D02*
X476826D01*
X474660Y595332D01*
Y586668D01*
X476826Y584502D01*
X481158D01*
X483324Y586668D01*
Y595332D01*
X481158Y597498D01*
X487655Y584502D02*
X491987D01*
X489821D01*
Y597498D01*
X487655Y595332D01*
X708847Y644502D02*
Y657498D01*
X713179Y653166D01*
X717511Y657498D01*
Y644502D01*
X721842Y657498D02*
Y644502D01*
Y651000D01*
X730506D01*
Y657498D01*
Y644502D01*
X734838Y646668D02*
X737004Y644502D01*
X741336D01*
X743502Y646668D01*
Y655332D01*
X741336Y657498D01*
X737004D01*
X734838Y655332D01*
Y653166D01*
X737004Y651000D01*
X743502D01*
X747834Y653166D02*
X750000D01*
Y651000D01*
X747834D01*
Y653166D01*
Y646668D02*
X750000D01*
Y644502D01*
X747834D01*
Y646668D01*
X758664Y657498D02*
X762996D01*
X760830D01*
Y644502D01*
X758664D01*
X762996D01*
X775992Y657498D02*
X771660D01*
X769494Y655332D01*
Y646668D01*
X771660Y644502D01*
X775992D01*
X778158Y646668D01*
Y655332D01*
X775992Y657498D01*
X791153Y644502D02*
X782489D01*
X791153Y653166D01*
Y655332D01*
X788987Y657498D01*
X784656D01*
X782489Y655332D01*
X1003847Y581502D02*
Y594498D01*
X1008179Y590166D01*
X1012511Y594498D01*
Y581502D01*
X1016842Y594498D02*
Y581502D01*
Y588000D01*
X1025506D01*
Y594498D01*
Y581502D01*
X1029838Y583668D02*
X1032004Y581502D01*
X1036336D01*
X1038502Y583668D01*
Y592332D01*
X1036336Y594498D01*
X1032004D01*
X1029838Y592332D01*
Y590166D01*
X1032004Y588000D01*
X1038502D01*
X1042834Y590166D02*
X1045000D01*
Y588000D01*
X1042834D01*
Y590166D01*
Y583668D02*
X1045000D01*
Y581502D01*
X1042834D01*
Y583668D01*
X1053664Y594498D02*
X1057996D01*
X1055830D01*
Y581502D01*
X1053664D01*
X1057996D01*
X1070992Y594498D02*
X1066660D01*
X1064494Y592332D01*
Y583668D01*
X1066660Y581502D01*
X1070992D01*
X1073158Y583668D01*
Y592332D01*
X1070992Y594498D01*
X1077489Y592332D02*
X1079656Y594498D01*
X1083987D01*
X1086153Y592332D01*
Y590166D01*
X1083987Y588000D01*
X1081822D01*
X1083987D01*
X1086153Y585834D01*
Y583668D01*
X1083987Y581502D01*
X1079656D01*
X1077489Y583668D01*
X1410498Y580847D02*
X1397502D01*
X1401834Y585179D01*
X1397502Y589510D01*
X1410498D01*
X1397502Y593843D02*
X1410498D01*
X1404000D01*
Y602506D01*
X1397502D01*
X1410498D01*
X1408332Y606838D02*
X1410498Y609004D01*
Y613336D01*
X1408332Y615502D01*
X1399668D01*
X1397502Y613336D01*
Y609004D01*
X1399668Y606838D01*
X1401834D01*
X1404000Y609004D01*
Y615502D01*
X1401834Y619834D02*
Y622000D01*
X1404000D01*
Y619834D01*
X1401834D01*
X1408332D02*
Y622000D01*
X1410498D01*
Y619834D01*
X1408332D01*
X1397502Y630664D02*
Y634996D01*
Y632830D01*
X1410498D01*
Y630664D01*
Y634996D01*
X1397502Y647992D02*
Y643660D01*
X1399668Y641494D01*
X1408332D01*
X1410498Y643660D01*
Y647992D01*
X1408332Y650158D01*
X1399668D01*
X1397502Y647992D01*
X1410498Y660987D02*
X1397502D01*
X1404000Y654490D01*
Y663153D01*
X258498Y579598D02*
X245502D01*
X249834Y583930D01*
X245502Y588262D01*
X258498D01*
X245502Y592593D02*
X258498D01*
X252000D01*
Y601257D01*
X245502D01*
X258498D01*
Y605589D02*
Y609921D01*
Y607755D01*
X245502D01*
X247668Y605589D01*
Y616419D02*
X245502Y618585D01*
Y622917D01*
X247668Y625083D01*
X256332D01*
X258498Y622917D01*
Y618585D01*
X256332Y616419D01*
X247668D01*
X249834Y629415D02*
Y631581D01*
X252000D01*
Y629415D01*
X249834D01*
X256332D02*
Y631581D01*
X258498D01*
Y629415D01*
X256332D01*
X245502Y640245D02*
Y644577D01*
Y642411D01*
X258498D01*
Y640245D01*
Y644577D01*
X245502Y657572D02*
Y653241D01*
X247668Y651075D01*
X256332D01*
X258498Y653241D01*
Y657572D01*
X256332Y659738D01*
X247668D01*
X245502Y657572D01*
X258498Y664070D02*
Y668402D01*
Y666236D01*
X245502D01*
X247668Y664070D01*
X501432Y640502D02*
Y653498D01*
X505764Y649166D01*
X510096Y653498D01*
Y640502D01*
X514427Y653498D02*
Y640502D01*
Y647000D01*
X523091D01*
Y653498D01*
Y640502D01*
X527423D02*
X531755D01*
X529589D01*
Y653498D01*
X527423Y651332D01*
X538253D02*
X540419Y653498D01*
X544751D01*
X546917Y651332D01*
Y642668D01*
X544751Y640502D01*
X540419D01*
X538253Y642668D01*
Y651332D01*
X551249Y649166D02*
X553415D01*
Y647000D01*
X551249D01*
Y649166D01*
Y642668D02*
X553415D01*
Y640502D01*
X551249D01*
Y642668D01*
X562079Y653498D02*
X566411D01*
X564245D01*
Y640502D01*
X562079D01*
X566411D01*
X579407Y653498D02*
X575075D01*
X572909Y651332D01*
Y642668D01*
X575075Y640502D01*
X579407D01*
X581572Y642668D01*
Y651332D01*
X579407Y653498D01*
X594568Y640502D02*
X585904D01*
X594568Y649166D01*
Y651332D01*
X592402Y653498D01*
X588070D01*
X585904Y651332D01*
X800432Y583502D02*
Y596498D01*
X804764Y592166D01*
X809096Y596498D01*
Y583502D01*
X813428Y596498D02*
Y583502D01*
Y590000D01*
X822091D01*
Y596498D01*
Y583502D01*
X826423D02*
X830755D01*
X828589D01*
Y596498D01*
X826423Y594332D01*
X837253D02*
X839419Y596498D01*
X843751D01*
X845917Y594332D01*
Y585668D01*
X843751Y583502D01*
X839419D01*
X837253Y585668D01*
Y594332D01*
X850249Y592166D02*
X852415D01*
Y590000D01*
X850249D01*
Y592166D01*
Y585668D02*
X852415D01*
Y583502D01*
X850249D01*
Y585668D01*
X861079Y596498D02*
X865411D01*
X863245D01*
Y583502D01*
X861079D01*
X865411D01*
X878407Y596498D02*
X874075D01*
X871909Y594332D01*
Y585668D01*
X874075Y583502D01*
X878407D01*
X880573Y585668D01*
Y594332D01*
X878407Y596498D01*
X884904Y594332D02*
X887070Y596498D01*
X891402D01*
X893568Y594332D01*
Y592166D01*
X891402Y590000D01*
X889236D01*
X891402D01*
X893568Y587834D01*
Y585668D01*
X891402Y583502D01*
X887070D01*
X884904Y585668D01*
X1101432Y645502D02*
Y658498D01*
X1105764Y654166D01*
X1110096Y658498D01*
Y645502D01*
X1114427Y658498D02*
Y645502D01*
Y652000D01*
X1123091D01*
Y658498D01*
Y645502D01*
X1127423D02*
X1131755D01*
X1129589D01*
Y658498D01*
X1127423Y656332D01*
X1138253D02*
X1140419Y658498D01*
X1144751D01*
X1146917Y656332D01*
Y647668D01*
X1144751Y645502D01*
X1140419D01*
X1138253Y647668D01*
Y656332D01*
X1151249Y654166D02*
X1153415D01*
Y652000D01*
X1151249D01*
Y654166D01*
Y647668D02*
X1153415D01*
Y645502D01*
X1151249D01*
Y647668D01*
X1162079Y658498D02*
X1166411D01*
X1164245D01*
Y645502D01*
X1162079D01*
X1166411D01*
X1179407Y658498D02*
X1175075D01*
X1172909Y656332D01*
Y647668D01*
X1175075Y645502D01*
X1179407D01*
X1181572Y647668D01*
Y656332D01*
X1179407Y658498D01*
X1192402Y645502D02*
Y658498D01*
X1185904Y652000D01*
X1194568D01*
X320024Y645668D02*
Y654332D01*
X317858Y656498D01*
X313526D01*
X311360Y654332D01*
Y645668D01*
X313526Y643502D01*
X317858D01*
X315693Y647834D02*
X320024Y643502D01*
X317858D02*
X320024Y645668D01*
X333020Y643502D02*
X324356D01*
X333020Y652166D01*
Y654332D01*
X330854Y656498D01*
X326522D01*
X324356Y654332D01*
X337352Y652166D02*
X339518D01*
Y650000D01*
X337352D01*
Y652166D01*
Y645668D02*
X339518D01*
Y643502D01*
X337352D01*
Y645668D01*
X348182Y656498D02*
X352514D01*
X350348D01*
Y643502D01*
X348182D01*
X352514D01*
X365510Y656498D02*
X361178D01*
X359012Y654332D01*
Y645668D01*
X361178Y643502D01*
X365510D01*
X367676Y645668D01*
Y654332D01*
X365510Y656498D01*
X372008Y643502D02*
X376340D01*
X374174D01*
Y656498D01*
X372008Y654332D01*
X620008Y589668D02*
Y598332D01*
X617842Y600498D01*
X613511D01*
X611345Y598332D01*
Y589668D01*
X613511Y587502D01*
X617842D01*
X615676Y591834D02*
X620008Y587502D01*
X617842D02*
X620008Y589668D01*
X633004Y587502D02*
X624340D01*
X633004Y596166D01*
Y598332D01*
X630838Y600498D01*
X626506D01*
X624340Y598332D01*
X637336Y596166D02*
X639502D01*
Y594000D01*
X637336D01*
Y596166D01*
Y589668D02*
X639502D01*
Y587502D01*
X637336D01*
Y589668D01*
X648166Y600498D02*
X652498D01*
X650332D01*
Y587502D01*
X648166D01*
X652498D01*
X665494Y600498D02*
X661162D01*
X658996Y598332D01*
Y589668D01*
X661162Y587502D01*
X665494D01*
X667660Y589668D01*
Y598332D01*
X665494Y600498D01*
X680656Y587502D02*
X671992D01*
X680656Y596166D01*
Y598332D01*
X678490Y600498D01*
X674158D01*
X671992Y598332D01*
X919008Y645668D02*
Y654332D01*
X916842Y656498D01*
X912511D01*
X910345Y654332D01*
Y645668D01*
X912511Y643502D01*
X916842D01*
X914677Y647834D02*
X919008Y643502D01*
X916842D02*
X919008Y645668D01*
X932004Y643502D02*
X923340D01*
X932004Y652166D01*
Y654332D01*
X929838Y656498D01*
X925506D01*
X923340Y654332D01*
X936336Y652166D02*
X938502D01*
Y650000D01*
X936336D01*
Y652166D01*
Y645668D02*
X938502D01*
Y643502D01*
X936336D01*
Y645668D01*
X947166Y656498D02*
X951498D01*
X949332D01*
Y643502D01*
X947166D01*
X951498D01*
X964494Y656498D02*
X960162D01*
X957996Y654332D01*
Y645668D01*
X960162Y643502D01*
X964494D01*
X966660Y645668D01*
Y654332D01*
X964494Y656498D01*
X970992Y654332D02*
X973158Y656498D01*
X977489D01*
X979656Y654332D01*
Y652166D01*
X977489Y650000D01*
X975324D01*
X977489D01*
X979656Y647834D01*
Y645668D01*
X977489Y643502D01*
X973158D01*
X970992Y645668D01*
X1220008Y589668D02*
Y598332D01*
X1217842Y600498D01*
X1213511D01*
X1211345Y598332D01*
Y589668D01*
X1213511Y587502D01*
X1217842D01*
X1215676Y591834D02*
X1220008Y587502D01*
X1217842D02*
X1220008Y589668D01*
X1233004Y587502D02*
X1224340D01*
X1233004Y596166D01*
Y598332D01*
X1230838Y600498D01*
X1226506D01*
X1224340Y598332D01*
X1237336Y596166D02*
X1239502D01*
Y594000D01*
X1237336D01*
Y596166D01*
Y589668D02*
X1239502D01*
Y587502D01*
X1237336D01*
Y589668D01*
X1248166Y600498D02*
X1252498D01*
X1250332D01*
Y587502D01*
X1248166D01*
X1252498D01*
X1265494Y600498D02*
X1261162D01*
X1258996Y598332D01*
Y589668D01*
X1261162Y587502D01*
X1265494D01*
X1267660Y589668D01*
Y598332D01*
X1265494Y600498D01*
X1278490Y587502D02*
Y600498D01*
X1271992Y594000D01*
X1280656D01*
X980170Y1322502D02*
Y1335498D01*
X986668D01*
X988834Y1333332D01*
Y1329000D01*
X986668Y1326834D01*
X980170D01*
X984502D02*
X988834Y1322502D01*
X1001830D02*
X993166D01*
X1001830Y1331166D01*
Y1333332D01*
X999664Y1335498D01*
X995332D01*
X993166Y1333332D01*
X981170Y1300502D02*
Y1313498D01*
X987668D01*
X989834Y1311332D01*
Y1307000D01*
X987668Y1304834D01*
X981170D01*
X985502D02*
X989834Y1300502D01*
X994166Y1311332D02*
X996332Y1313498D01*
X1000664D01*
X1002830Y1311332D01*
Y1309166D01*
X1000664Y1307000D01*
X998498D01*
X1000664D01*
X1002830Y1304834D01*
Y1302668D01*
X1000664Y1300502D01*
X996332D01*
X994166Y1302668D01*
X1487170Y1414502D02*
Y1427498D01*
X1493668D01*
X1495834Y1425332D01*
Y1421000D01*
X1493668Y1418834D01*
X1487170D01*
X1491502D02*
X1495834Y1414502D01*
X1500166Y1427498D02*
X1508830D01*
Y1425332D01*
X1500166Y1416668D01*
Y1414502D01*
X1484170Y1502502D02*
Y1515498D01*
X1490668D01*
X1492834Y1513332D01*
Y1509000D01*
X1490668Y1506834D01*
X1484170D01*
X1488502D02*
X1492834Y1502502D01*
X1497166Y1513332D02*
X1499332Y1515498D01*
X1503664D01*
X1505830Y1513332D01*
Y1511166D01*
X1503664Y1509000D01*
X1505830Y1506834D01*
Y1504668D01*
X1503664Y1502502D01*
X1499332D01*
X1497166Y1504668D01*
Y1506834D01*
X1499332Y1509000D01*
X1497166Y1511166D01*
Y1513332D01*
X1499332Y1509000D02*
X1503664D01*
X1488170Y1470502D02*
Y1483498D01*
X1494668D01*
X1496834Y1481332D01*
Y1477000D01*
X1494668Y1474834D01*
X1488170D01*
X1492502D02*
X1496834Y1470502D01*
X1501166Y1472668D02*
X1503332Y1470502D01*
X1507664D01*
X1509830Y1472668D01*
Y1481332D01*
X1507664Y1483498D01*
X1503332D01*
X1501166Y1481332D01*
Y1479166D01*
X1503332Y1477000D01*
X1509830D01*
X1478755Y1448502D02*
Y1461498D01*
X1485253D01*
X1487419Y1459332D01*
Y1455000D01*
X1485253Y1452834D01*
X1478755D01*
X1483087D02*
X1487419Y1448502D01*
X1491751D02*
X1496083D01*
X1493917D01*
Y1461498D01*
X1491751Y1459332D01*
X1502581D02*
X1504747Y1461498D01*
X1509079D01*
X1511245Y1459332D01*
Y1450668D01*
X1509079Y1448502D01*
X1504747D01*
X1502581Y1450668D01*
Y1459332D01*
X853921Y1388502D02*
Y1401498D01*
X860419D01*
X862585Y1399332D01*
Y1395000D01*
X860419Y1392834D01*
X853921D01*
X858253D02*
X862585Y1388502D01*
X866917D02*
X871249D01*
X869083D01*
Y1401498D01*
X866917Y1399332D01*
X877747Y1388502D02*
X882079D01*
X879913D01*
Y1401498D01*
X877747Y1399332D01*
X803498Y1426755D02*
X790502D01*
Y1433253D01*
X792668Y1435419D01*
X797000D01*
X799166Y1433253D01*
Y1426755D01*
Y1431087D02*
X803498Y1435419D01*
Y1439751D02*
Y1444083D01*
Y1441917D01*
X790502D01*
X792668Y1439751D01*
X803498Y1459245D02*
Y1450581D01*
X794834Y1459245D01*
X792668D01*
X790502Y1457079D01*
Y1452747D01*
X792668Y1450581D01*
X726498Y1388504D02*
X713502D01*
Y1395002D01*
X715668Y1397168D01*
X720000D01*
X722166Y1395002D01*
Y1388504D01*
Y1392836D02*
X726498Y1397168D01*
Y1401500D02*
Y1405832D01*
Y1403666D01*
X713502D01*
X715668Y1401500D01*
Y1412330D02*
X713502Y1414496D01*
Y1418828D01*
X715668Y1420994D01*
X717834D01*
X720000Y1418828D01*
Y1416662D01*
Y1418828D01*
X722166Y1420994D01*
X724332D01*
X726498Y1418828D01*
Y1414496D01*
X724332Y1412330D01*
X716755Y1215720D02*
Y1228716D01*
X723253D01*
X725419Y1226550D01*
Y1222218D01*
X723253Y1220052D01*
X716755D01*
X721087D02*
X725419Y1215720D01*
X729751D02*
X734083D01*
X731917D01*
Y1228716D01*
X729751Y1226550D01*
X747079Y1215720D02*
Y1228716D01*
X740581Y1222218D01*
X749245D01*
X1147874Y1179684D02*
X1138684Y1188874D01*
X1143279Y1193468D01*
X1146342Y1193468D01*
X1149405Y1190405D01*
Y1187342D01*
X1144811Y1182747D01*
X1147874Y1185811D02*
X1154000Y1185811D01*
X1163189Y1195000D02*
X1157063Y1188874D01*
Y1201126D01*
X1155532Y1202658D01*
X1152468Y1202658D01*
X1149405Y1199595D01*
X1149405Y1196532D01*
X1166253Y1198063D02*
X1169316Y1201126D01*
X1167784Y1199595D01*
X1158595Y1208784D01*
X1158595Y1205721D01*
X1179342Y1140153D02*
X1170153Y1149342D01*
X1174747Y1153937D01*
X1177811Y1153937D01*
X1180874Y1150874D01*
Y1147811D01*
X1176279Y1143216D01*
X1179342Y1146279D02*
X1185468Y1146279D01*
X1194658Y1155469D02*
X1188532Y1149342D01*
Y1161595D01*
X1187000Y1163126D01*
X1183937Y1163126D01*
X1180874Y1160063D01*
X1180874Y1157000D01*
X1203847Y1164658D02*
X1197721Y1158532D01*
Y1170784D01*
X1196189Y1172316D01*
X1193126D01*
X1190063Y1169253D01*
X1190063Y1166189D01*
X1215342Y1103153D02*
X1206153Y1112342D01*
X1210748Y1116937D01*
X1213811Y1116937D01*
X1216874Y1113874D01*
Y1110811D01*
X1212279Y1106216D01*
X1215342Y1109279D02*
X1221468Y1109279D01*
X1230658Y1118468D02*
X1224532Y1112342D01*
Y1124595D01*
X1223000Y1126126D01*
X1219937Y1126126D01*
X1216874Y1123063D01*
X1216874Y1120000D01*
X1226063Y1129190D02*
X1226063Y1132253D01*
X1229126Y1135316D01*
X1232189D01*
X1233721Y1133784D01*
Y1130721D01*
X1232189Y1129190D01*
X1233721Y1130721D01*
X1236784D01*
X1238316Y1129190D01*
Y1126126D01*
X1235253Y1123063D01*
X1232189D01*
X1252342Y1069153D02*
X1243153Y1078342D01*
X1247747Y1082937D01*
X1250811Y1082937D01*
X1253874Y1079874D01*
Y1076811D01*
X1249279Y1072216D01*
X1252342Y1075279D02*
X1258468Y1075279D01*
X1267658Y1084469D02*
X1261532Y1078342D01*
Y1090595D01*
X1260000Y1092126D01*
X1256937Y1092126D01*
X1253874Y1089063D01*
X1253874Y1086000D01*
X1275316Y1092126D02*
X1266126Y1101316D01*
Y1092126D01*
X1272253Y1098253D01*
X1158342Y1161153D02*
X1149153Y1170342D01*
X1153747Y1174937D01*
X1156811Y1174937D01*
X1159874Y1171874D01*
Y1168811D01*
X1155279Y1164216D01*
X1158342Y1167279D02*
X1164469Y1167279D01*
X1173658Y1176469D02*
X1167532Y1170342D01*
Y1182595D01*
X1166000Y1184126D01*
X1162937Y1184126D01*
X1159874Y1181063D01*
X1159874Y1178000D01*
X1173658Y1194847D02*
X1172126Y1190253D01*
Y1184126D01*
X1175190Y1181063D01*
X1178253D01*
X1181316Y1184126D01*
Y1187189D01*
X1179784Y1188721D01*
X1176721D01*
X1172126Y1184126D01*
X1194342Y1124153D02*
X1185153Y1133342D01*
X1189747Y1137937D01*
X1192811Y1137937D01*
X1195874Y1134874D01*
Y1131811D01*
X1191279Y1127216D01*
X1194342Y1130279D02*
X1200468Y1130279D01*
X1209658Y1139469D02*
X1203532Y1133342D01*
Y1145595D01*
X1202000Y1147126D01*
X1198937Y1147126D01*
X1195874Y1144063D01*
X1195874Y1141000D01*
X1203532Y1151721D02*
X1209658Y1157847D01*
X1211189Y1156316D01*
Y1144063D01*
X1212721Y1142532D01*
X1231342Y1089153D02*
X1222153Y1098342D01*
X1226747Y1102937D01*
X1229811Y1102937D01*
X1232874Y1099874D01*
Y1096811D01*
X1228279Y1092216D01*
X1231342Y1095279D02*
X1237468Y1095279D01*
X1246658Y1104469D02*
X1240532Y1098342D01*
Y1110595D01*
X1239000Y1112126D01*
X1235937Y1112126D01*
X1232874Y1109063D01*
X1232874Y1106000D01*
X1242063Y1115190D02*
X1242063Y1118253D01*
X1245126Y1121316D01*
X1248189D01*
X1249721Y1119784D01*
Y1116721D01*
X1252784D01*
X1254316Y1115190D01*
Y1112126D01*
X1251253Y1109063D01*
X1248189D01*
X1246658Y1110595D01*
Y1113658D01*
X1243595D01*
X1242063Y1115190D01*
X1246658Y1113658D02*
X1249721Y1116721D01*
X1243342Y1033153D02*
X1234153Y1042342D01*
X1238747Y1046937D01*
X1241811Y1046937D01*
X1244874Y1043874D01*
Y1040811D01*
X1240279Y1036216D01*
X1243342Y1039279D02*
X1249468Y1039279D01*
X1258658Y1048468D02*
X1252532Y1042342D01*
Y1054595D01*
X1251000Y1056126D01*
X1247937Y1056126D01*
X1244874Y1053063D01*
X1244874Y1050000D01*
X1260190Y1053063D02*
X1263253D01*
X1266316Y1056126D01*
Y1059190D01*
X1260190Y1065316D01*
X1257126D01*
X1254063Y1062253D01*
X1254063Y1059190D01*
X1255595Y1057658D01*
X1258658D01*
X1263253Y1062253D01*
X1164114Y1270679D02*
X1173304Y1279869D01*
X1177899Y1275274D01*
X1177899Y1272211D01*
X1174835Y1269148D01*
X1171772D01*
X1167178Y1273742D01*
X1170241Y1270679D02*
X1170241Y1264553D01*
X1180962Y1269148D02*
X1184025Y1269148D01*
X1187088Y1266085D01*
X1187088Y1263021D01*
X1185556Y1261490D01*
X1182493D01*
X1180962Y1263021D01*
X1182493Y1261490D01*
Y1258427D01*
X1180962Y1256895D01*
X1177899D01*
X1174835Y1259958D01*
Y1263021D01*
X1190151Y1259958D02*
X1193214Y1259958D01*
X1196277Y1256895D01*
Y1253832D01*
X1190151Y1247706D01*
X1187088D01*
X1184025Y1250769D01*
Y1253832D01*
X1190151Y1259958D01*
X1221680Y1202097D02*
X1212491Y1211286D01*
X1217085Y1215881D01*
X1220148Y1215881D01*
X1223212Y1212818D01*
Y1209755D01*
X1218617Y1205160D01*
X1221680Y1208223D02*
X1227806Y1208223D01*
X1223212Y1218944D02*
X1223212Y1222007D01*
X1226275Y1225070D01*
X1229338Y1225070D01*
X1230869Y1223539D01*
Y1220476D01*
X1229338Y1218944D01*
X1230869Y1220476D01*
X1233933D01*
X1235464Y1218944D01*
Y1215881D01*
X1232401Y1212818D01*
X1229338D01*
X1240059Y1220476D02*
X1243122Y1223539D01*
X1241590Y1222007D01*
X1232401Y1231197D01*
X1232401Y1228134D01*
X1255857Y1163619D02*
X1246668Y1172808D01*
X1251263Y1177403D01*
X1254326Y1177403D01*
X1257389Y1174340D01*
Y1171277D01*
X1252794Y1166682D01*
X1255857Y1169745D02*
X1261984Y1169745D01*
X1257389Y1180466D02*
X1257389Y1183529D01*
X1260452Y1186592D01*
X1263515Y1186592D01*
X1265047Y1185061D01*
Y1181998D01*
X1263515Y1180466D01*
X1265047Y1181998D01*
X1268110D01*
X1269641Y1180466D01*
Y1177403D01*
X1266578Y1174340D01*
X1263515D01*
X1280363Y1188124D02*
X1274236Y1181998D01*
Y1194250D01*
X1272705Y1195782D01*
X1269641D01*
X1266578Y1192719D01*
X1266578Y1189656D01*
X1330153Y1106658D02*
X1339342Y1115847D01*
X1343937Y1111253D01*
X1343937Y1108189D01*
X1340874Y1105126D01*
X1337811D01*
X1333216Y1109721D01*
X1336279Y1106658D02*
X1336279Y1100532D01*
X1347000Y1105126D02*
X1350063Y1105126D01*
X1353126Y1102063D01*
X1353126Y1099000D01*
X1351595Y1097468D01*
X1348532D01*
X1347000Y1099000D01*
X1348532Y1097468D01*
Y1094405D01*
X1347000Y1092874D01*
X1343937D01*
X1340874Y1095937D01*
Y1099000D01*
X1356190Y1095937D02*
X1359253Y1095937D01*
X1362316Y1092874D01*
Y1089811D01*
X1360784Y1088279D01*
X1357721D01*
X1356190Y1089811D01*
X1357721Y1088279D01*
Y1085216D01*
X1356190Y1083684D01*
X1353126D01*
X1350063Y1086748D01*
Y1089811D01*
X387096Y881380D02*
Y894376D01*
X393594D01*
X395760Y892210D01*
Y887878D01*
X393594Y885712D01*
X387096D01*
X391428D02*
X395760Y881380D01*
X400092Y892210D02*
X402258Y894376D01*
X406590D01*
X408756Y892210D01*
Y890044D01*
X406590Y887878D01*
X404424D01*
X406590D01*
X408756Y885712D01*
Y883546D01*
X406590Y881380D01*
X402258D01*
X400092Y883546D01*
X421752Y894376D02*
X417420Y892210D01*
X413088Y887878D01*
Y883546D01*
X415254Y881380D01*
X419585D01*
X421752Y883546D01*
Y885712D01*
X419585Y887878D01*
X413088D01*
X426083Y890044D02*
X428249D01*
Y887878D01*
X426083D01*
Y890044D01*
Y883546D02*
X428249D01*
Y881380D01*
X426083D01*
Y883546D01*
X436913Y894376D02*
X441245D01*
X439079D01*
Y881380D01*
X436913D01*
X441245D01*
X454241Y894376D02*
X449909D01*
X447743Y892210D01*
Y883546D01*
X449909Y881380D01*
X454241D01*
X456407Y883546D01*
Y892210D01*
X454241Y894376D01*
X460739Y881380D02*
X465071D01*
X462905D01*
Y894376D01*
X460739Y892210D01*
X684784Y881380D02*
Y894376D01*
X691282D01*
X693448Y892210D01*
Y887878D01*
X691282Y885712D01*
X684784D01*
X689116D02*
X693448Y881380D01*
X697780Y892210D02*
X699946Y894376D01*
X704278D01*
X706444Y892210D01*
Y890044D01*
X704278Y887878D01*
X702112D01*
X704278D01*
X706444Y885712D01*
Y883546D01*
X704278Y881380D01*
X699946D01*
X697780Y883546D01*
X719439Y894376D02*
X715108Y892210D01*
X710776Y887878D01*
Y883546D01*
X712942Y881380D01*
X717273D01*
X719439Y883546D01*
Y885712D01*
X717273Y887878D01*
X710776D01*
X723771Y890044D02*
X725937D01*
Y887878D01*
X723771D01*
Y890044D01*
Y883546D02*
X725937D01*
Y881380D01*
X723771D01*
Y883546D01*
X734601Y894376D02*
X738933D01*
X736767D01*
Y881380D01*
X734601D01*
X738933D01*
X751929Y894376D02*
X747597D01*
X745431Y892210D01*
Y883546D01*
X747597Y881380D01*
X751929D01*
X754095Y883546D01*
Y892210D01*
X751929Y894376D01*
X767091Y881380D02*
X758427D01*
X767091Y890044D01*
Y892210D01*
X764925Y894376D01*
X760593D01*
X758427Y892210D01*
X984758Y881380D02*
Y894376D01*
X991256D01*
X993422Y892210D01*
Y887878D01*
X991256Y885712D01*
X984758D01*
X989090D02*
X993422Y881380D01*
X997754Y892210D02*
X999920Y894376D01*
X1004252D01*
X1006418Y892210D01*
Y890044D01*
X1004252Y887878D01*
X1002086D01*
X1004252D01*
X1006418Y885712D01*
Y883546D01*
X1004252Y881380D01*
X999920D01*
X997754Y883546D01*
X1019414Y894376D02*
X1015082Y892210D01*
X1010750Y887878D01*
Y883546D01*
X1012916Y881380D01*
X1017247D01*
X1019414Y883546D01*
Y885712D01*
X1017247Y887878D01*
X1010750D01*
X1023745Y890044D02*
X1025911D01*
Y887878D01*
X1023745D01*
Y890044D01*
Y883546D02*
X1025911D01*
Y881380D01*
X1023745D01*
Y883546D01*
X1034575Y894376D02*
X1038907D01*
X1036741D01*
Y881380D01*
X1034575D01*
X1038907D01*
X1051903Y894376D02*
X1047571D01*
X1045405Y892210D01*
Y883546D01*
X1047571Y881380D01*
X1051903D01*
X1054069Y883546D01*
Y892210D01*
X1051903Y894376D01*
X1058401Y892210D02*
X1060567Y894376D01*
X1064899D01*
X1067065Y892210D01*
Y890044D01*
X1064899Y887878D01*
X1062733D01*
X1064899D01*
X1067065Y885712D01*
Y883546D01*
X1064899Y881380D01*
X1060567D01*
X1058401Y883546D01*
X1284732Y881380D02*
Y894376D01*
X1291230D01*
X1293396Y892210D01*
Y887878D01*
X1291230Y885712D01*
X1284732D01*
X1289064D02*
X1293396Y881380D01*
X1297728Y892210D02*
X1299894Y894376D01*
X1304226D01*
X1306392Y892210D01*
Y890044D01*
X1304226Y887878D01*
X1302060D01*
X1304226D01*
X1306392Y885712D01*
Y883546D01*
X1304226Y881380D01*
X1299894D01*
X1297728Y883546D01*
X1319388Y894376D02*
X1315056Y892210D01*
X1310724Y887878D01*
Y883546D01*
X1312890Y881380D01*
X1317222D01*
X1319388Y883546D01*
Y885712D01*
X1317222Y887878D01*
X1310724D01*
X1323719Y890044D02*
X1325885D01*
Y887878D01*
X1323719D01*
Y890044D01*
Y883546D02*
X1325885D01*
Y881380D01*
X1323719D01*
Y883546D01*
X1334549Y894376D02*
X1338881D01*
X1336715D01*
Y881380D01*
X1334549D01*
X1338881D01*
X1351877Y894376D02*
X1347545D01*
X1345379Y892210D01*
Y883546D01*
X1347545Y881380D01*
X1351877D01*
X1354043Y883546D01*
Y892210D01*
X1351877Y894376D01*
X1364873Y881380D02*
Y894376D01*
X1358375Y887878D01*
X1367039D01*
X227076Y881380D02*
Y894376D01*
X233574D01*
X235740Y892210D01*
Y887878D01*
X233574Y885712D01*
X227076D01*
X231408D02*
X235740Y881380D01*
X240072Y892210D02*
X242238Y894376D01*
X246570D01*
X248736Y892210D01*
Y890044D01*
X246570Y887878D01*
X244404D01*
X246570D01*
X248736Y885712D01*
Y883546D01*
X246570Y881380D01*
X242238D01*
X240072Y883546D01*
X253068Y894376D02*
X261731D01*
Y892210D01*
X253068Y883546D01*
Y881380D01*
X266063Y890044D02*
X268229D01*
Y887878D01*
X266063D01*
Y890044D01*
Y883546D02*
X268229D01*
Y881380D01*
X266063D01*
Y883546D01*
X276893Y894376D02*
X281225D01*
X279059D01*
Y881380D01*
X276893D01*
X281225D01*
X294221Y894376D02*
X289889D01*
X287723Y892210D01*
Y883546D01*
X289889Y881380D01*
X294221D01*
X296387Y883546D01*
Y892210D01*
X294221Y894376D01*
X300719Y881380D02*
X305051D01*
X302885D01*
Y894376D01*
X300719Y892210D01*
X524764Y881380D02*
Y894376D01*
X531262D01*
X533428Y892210D01*
Y887878D01*
X531262Y885712D01*
X524764D01*
X529096D02*
X533428Y881380D01*
X537760Y892210D02*
X539926Y894376D01*
X544258D01*
X546424Y892210D01*
Y890044D01*
X544258Y887878D01*
X542092D01*
X544258D01*
X546424Y885712D01*
Y883546D01*
X544258Y881380D01*
X539926D01*
X537760Y883546D01*
X550756Y894376D02*
X559420D01*
Y892210D01*
X550756Y883546D01*
Y881380D01*
X563751Y890044D02*
X565917D01*
Y887878D01*
X563751D01*
Y890044D01*
Y883546D02*
X565917D01*
Y881380D01*
X563751D01*
Y883546D01*
X574581Y894376D02*
X578913D01*
X576747D01*
Y881380D01*
X574581D01*
X578913D01*
X591909Y894376D02*
X587577D01*
X585411Y892210D01*
Y883546D01*
X587577Y881380D01*
X591909D01*
X594075Y883546D01*
Y892210D01*
X591909Y894376D01*
X607071Y881380D02*
X598407D01*
X607071Y890044D01*
Y892210D01*
X604905Y894376D01*
X600573D01*
X598407Y892210D01*
X824738Y881380D02*
Y894376D01*
X831236D01*
X833402Y892210D01*
Y887878D01*
X831236Y885712D01*
X824738D01*
X829070D02*
X833402Y881380D01*
X837734Y892210D02*
X839900Y894376D01*
X844232D01*
X846398Y892210D01*
Y890044D01*
X844232Y887878D01*
X842066D01*
X844232D01*
X846398Y885712D01*
Y883546D01*
X844232Y881380D01*
X839900D01*
X837734Y883546D01*
X850730Y894376D02*
X859393D01*
Y892210D01*
X850730Y883546D01*
Y881380D01*
X863725Y890044D02*
X865891D01*
Y887878D01*
X863725D01*
Y890044D01*
Y883546D02*
X865891D01*
Y881380D01*
X863725D01*
Y883546D01*
X874555Y894376D02*
X878887D01*
X876721D01*
Y881380D01*
X874555D01*
X878887D01*
X891883Y894376D02*
X887551D01*
X885385Y892210D01*
Y883546D01*
X887551Y881380D01*
X891883D01*
X894049Y883546D01*
Y892210D01*
X891883Y894376D01*
X898381Y892210D02*
X900547Y894376D01*
X904879D01*
X907045Y892210D01*
Y890044D01*
X904879Y887878D01*
X902713D01*
X904879D01*
X907045Y885712D01*
Y883546D01*
X904879Y881380D01*
X900547D01*
X898381Y883546D01*
X1124966Y881380D02*
Y894376D01*
X1131464D01*
X1133630Y892210D01*
Y887878D01*
X1131464Y885712D01*
X1124966D01*
X1129298D02*
X1133630Y881380D01*
X1137962Y892210D02*
X1140128Y894376D01*
X1144460D01*
X1146626Y892210D01*
Y890044D01*
X1144460Y887878D01*
X1142294D01*
X1144460D01*
X1146626Y885712D01*
Y883546D01*
X1144460Y881380D01*
X1140128D01*
X1137962Y883546D01*
X1150958Y894376D02*
X1159622D01*
Y892210D01*
X1150958Y883546D01*
Y881380D01*
X1163953Y890044D02*
X1166119D01*
Y887878D01*
X1163953D01*
Y890044D01*
Y883546D02*
X1166119D01*
Y881380D01*
X1163953D01*
Y883546D01*
X1174783Y894376D02*
X1179115D01*
X1176949D01*
Y881380D01*
X1174783D01*
X1179115D01*
X1192111Y894376D02*
X1187779D01*
X1185613Y892210D01*
Y883546D01*
X1187779Y881380D01*
X1192111D01*
X1194277Y883546D01*
Y892210D01*
X1192111Y894376D01*
X1205107Y881380D02*
Y894376D01*
X1198609Y887878D01*
X1207273D01*
X1601336Y1414498D02*
X1610000Y1401502D01*
Y1414498D02*
X1601336Y1401502D01*
X1614332D02*
X1618664D01*
X1616498D01*
Y1414498D01*
X1614332Y1412332D01*
X941515Y1363498D02*
X950178Y1350502D01*
Y1363498D02*
X941515Y1350502D01*
X954510Y1361332D02*
X956676Y1363498D01*
X961008D01*
X963174Y1361332D01*
Y1359166D01*
X961008Y1357000D01*
X958842D01*
X961008D01*
X963174Y1354834D01*
Y1352668D01*
X961008Y1350502D01*
X956676D01*
X954510Y1352668D01*
X1342257Y1386898D02*
Y1373902D01*
Y1380400D01*
X1350921D01*
Y1386898D01*
Y1373902D01*
X1355253Y1386898D02*
Y1373902D01*
X1363917D01*
X1368248D02*
X1372581D01*
X1370414D01*
Y1386898D01*
X1368248Y1384732D01*
X1387742Y1386898D02*
X1379078D01*
Y1380400D01*
X1383410Y1382566D01*
X1385576D01*
X1387742Y1380400D01*
Y1376068D01*
X1385576Y1373902D01*
X1381244D01*
X1379078Y1376068D01*
X1241257Y1387498D02*
Y1374502D01*
Y1381000D01*
X1249921D01*
Y1387498D01*
Y1374502D01*
X1254253Y1387498D02*
Y1374502D01*
X1262917D01*
X1267249D02*
X1271581D01*
X1269415D01*
Y1387498D01*
X1267249Y1385332D01*
X1286743Y1387498D02*
X1282411Y1385332D01*
X1278079Y1381000D01*
Y1376668D01*
X1280245Y1374502D01*
X1284577D01*
X1286743Y1376668D01*
Y1378834D01*
X1284577Y1381000D01*
X1278079D01*
X1320672Y1280502D02*
Y1293498D01*
X1327170D01*
X1329336Y1291332D01*
Y1287000D01*
X1327170Y1284834D01*
X1320672D01*
X1325004D02*
X1329336Y1280502D01*
X1342332Y1293498D02*
X1333668D01*
Y1287000D01*
X1338000Y1289166D01*
X1340166D01*
X1342332Y1287000D01*
Y1282668D01*
X1340166Y1280502D01*
X1335834D01*
X1333668Y1282668D01*
X1355328Y1293498D02*
X1350996Y1291332D01*
X1346664Y1287000D01*
Y1282668D01*
X1348830Y1280502D01*
X1353162D01*
X1355328Y1282668D01*
Y1284834D01*
X1353162Y1287000D01*
X1346664D01*
X1255672Y1316502D02*
Y1329498D01*
X1262170D01*
X1264336Y1327332D01*
Y1323000D01*
X1262170Y1320834D01*
X1255672D01*
X1260004D02*
X1264336Y1316502D01*
X1277332Y1329498D02*
X1268668D01*
Y1323000D01*
X1273000Y1325166D01*
X1275166D01*
X1277332Y1323000D01*
Y1318668D01*
X1275166Y1316502D01*
X1270834D01*
X1268668Y1318668D01*
X1281664Y1329498D02*
X1290328D01*
Y1327332D01*
X1281664Y1318668D01*
Y1316502D01*
X1339672Y1340502D02*
Y1353498D01*
X1346170D01*
X1348336Y1351332D01*
Y1347000D01*
X1346170Y1344834D01*
X1339672D01*
X1344004D02*
X1348336Y1340502D01*
X1361332Y1353498D02*
X1352668D01*
Y1347000D01*
X1357000Y1349166D01*
X1359166D01*
X1361332Y1347000D01*
Y1342668D01*
X1359166Y1340502D01*
X1354834D01*
X1352668Y1342668D01*
X1365664Y1351332D02*
X1367830Y1353498D01*
X1372162D01*
X1374328Y1351332D01*
Y1349166D01*
X1372162Y1347000D01*
X1374328Y1344834D01*
Y1342668D01*
X1372162Y1340502D01*
X1367830D01*
X1365664Y1342668D01*
Y1344834D01*
X1367830Y1347000D01*
X1365664Y1349166D01*
Y1351332D01*
X1367830Y1347000D02*
X1372162D01*
X1104170Y1434498D02*
X1112834Y1421502D01*
Y1434498D02*
X1104170Y1421502D01*
X1125830D02*
X1117166D01*
X1125830Y1430166D01*
Y1432332D01*
X1123664Y1434498D01*
X1119332D01*
X1117166Y1432332D01*
X705434Y1584545D02*
X703268Y1586711D01*
X698936D01*
X696770Y1584545D01*
Y1582379D01*
X698936Y1580213D01*
X703268D01*
X705434Y1578047D01*
Y1575881D01*
X703268Y1573715D01*
X698936D01*
X696770Y1575881D01*
X716264Y1573715D02*
Y1586711D01*
X709766Y1580213D01*
X718430D01*
X815834Y1585332D02*
X813668Y1587498D01*
X809336D01*
X807170Y1585332D01*
Y1583166D01*
X809336Y1581000D01*
X813668D01*
X815834Y1578834D01*
Y1576668D01*
X813668Y1574502D01*
X809336D01*
X807170Y1576668D01*
X828830Y1587498D02*
X820166D01*
Y1581000D01*
X824498Y1583166D01*
X826664D01*
X828830Y1581000D01*
Y1576668D01*
X826664Y1574502D01*
X822332D01*
X820166Y1576668D01*
X929234Y1585007D02*
X927068Y1587173D01*
X922736D01*
X920570Y1585007D01*
Y1582842D01*
X922736Y1580676D01*
X927068D01*
X929234Y1578510D01*
Y1576344D01*
X927068Y1574178D01*
X922736D01*
X920570Y1576344D01*
X942230Y1587173D02*
X937898Y1585007D01*
X933566Y1580676D01*
Y1576344D01*
X935732Y1574178D01*
X940064D01*
X942230Y1576344D01*
Y1578510D01*
X940064Y1580676D01*
X933566D01*
X1602336Y351498D02*
Y338502D01*
X1608834D01*
X1611000Y340668D01*
Y349332D01*
X1608834Y351498D01*
X1602336D01*
X1615332Y338502D02*
X1619664D01*
X1617498D01*
Y351498D01*
X1615332Y349332D01*
X1551170Y362498D02*
Y349502D01*
X1557668D01*
X1559834Y351668D01*
Y360332D01*
X1557668Y362498D01*
X1551170D01*
X1572830Y349502D02*
X1564166D01*
X1572830Y358166D01*
Y360332D01*
X1570664Y362498D01*
X1566332D01*
X1564166Y360332D01*
X861419Y1177332D02*
X859253Y1179498D01*
X854921D01*
X852755Y1177332D01*
Y1168668D01*
X854921Y1166502D01*
X859253D01*
X861419Y1168668D01*
X865751Y1166502D02*
X870083D01*
X867917D01*
Y1179498D01*
X865751Y1177332D01*
X885245Y1166502D02*
X876581D01*
X885245Y1175166D01*
Y1177332D01*
X883079Y1179498D01*
X878747D01*
X876581Y1177332D01*
D12*
X1598000Y1520500D02*
X1620000D01*
X1598000Y1421499D02*
X1620000D01*
X1666000D02*
Y1520500D01*
X1653000D02*
X1666000D01*
X1653000Y1421499D02*
X1666000D01*
X1570000Y1493500D02*
Y1501500D01*
Y1440500D02*
Y1448500D01*
X694000Y1385000D02*
X709000D01*
Y1255000D02*
Y1385000D01*
X694000Y1255000D02*
X709000D01*
X649000D02*
X664000D01*
X649000D02*
Y1385000D01*
X664000D01*
X1374900Y1268200D02*
X1454000D01*
X1374900Y1319200D02*
X1444900D01*
X768250Y1351750D02*
X861750D01*
Y1258250D02*
Y1351750D01*
X768250Y1258250D02*
X861750D01*
X768250D02*
Y1351750D01*
X1497000Y377000D02*
X1509000D01*
X1524000D02*
X1539000D01*
X1509000Y362000D02*
Y392000D01*
Y377000D02*
X1524000Y362000D01*
X1509000Y377000D02*
X1524000Y392000D01*
Y362000D02*
Y392000D01*
X1524000Y362000D02*
Y392000D01*
X1509000Y377000D02*
X1524000Y392000D01*
X1509000Y377000D02*
X1524000Y362000D01*
X1509000D02*
Y392000D01*
X1524000Y377000D02*
X1577000D01*
X1450000D02*
X1509000D01*
X1494000Y325000D02*
X1534000D01*
X1494000Y293000D02*
X1534000D01*
X1496000Y908000D02*
X1526000D01*
X1496000D02*
X1511000Y893000D01*
X1526000Y908000D01*
X1496000Y893000D02*
X1526000D01*
X1511000Y908000D02*
Y961000D01*
Y834000D02*
Y893000D01*
X1506300Y277750D02*
Y284250D01*
X1060000Y1260000D02*
Y1288000D01*
X1055000Y1260000D02*
X1060000D01*
X1024000D02*
X1029000D01*
X1024000D02*
Y1266000D01*
X1496000Y395000D02*
X1524000D01*
Y390000D02*
Y395000D01*
Y359000D02*
Y364000D01*
X1518000Y359000D02*
X1524000D01*
X1140000Y1279000D02*
X1146000D01*
Y1274000D02*
Y1279000D01*
Y1243000D02*
Y1248000D01*
X1140000Y1243000D02*
X1146000D01*
X1441842Y1165750D02*
X1481842D01*
X1441842Y1197750D02*
X1481842D01*
X1442000Y1216000D02*
X1482000D01*
X1442000Y1248000D02*
X1482000D01*
X271000Y175000D02*
X421000D01*
X271000Y270000D02*
X421000D01*
X271000Y175000D02*
Y270000D01*
X421000Y175000D02*
Y250000D01*
Y256000D02*
Y270000D01*
X426500Y244500D02*
Y261500D01*
X421000Y256000D02*
X426500Y261500D01*
X421000Y250000D02*
X426500Y244500D01*
X571000Y175000D02*
X721000D01*
X571000Y270000D02*
X721000D01*
X571000Y175000D02*
Y270000D01*
X721000Y175000D02*
Y250000D01*
Y256000D02*
Y270000D01*
X726500Y244500D02*
Y261500D01*
X721000Y256000D02*
X726500Y261500D01*
X721000Y250000D02*
X726500Y244500D01*
X871000Y175000D02*
X1021000D01*
X871000Y270000D02*
X1021000D01*
X871000Y175000D02*
Y270000D01*
X1021000Y175000D02*
Y250000D01*
Y256000D02*
Y270000D01*
X1026500Y244500D02*
Y261500D01*
X1021000Y256000D02*
X1026500Y261500D01*
X1021000Y250000D02*
X1026500Y244500D01*
X1171000Y175000D02*
X1321000D01*
X1171000Y270000D02*
X1321000D01*
X1171000Y175000D02*
Y270000D01*
X1321000Y175000D02*
Y250000D01*
Y256000D02*
Y270000D01*
X1326500Y244500D02*
Y261500D01*
X1321000Y256000D02*
X1326500Y261500D01*
X1321000Y250000D02*
X1326500Y244500D01*
X1439000Y175000D02*
X1589000D01*
X1439000Y270000D02*
X1589000D01*
X1439000Y175000D02*
Y270000D01*
X1589000Y175000D02*
Y250000D01*
Y256000D02*
Y270000D01*
X1594500Y244500D02*
Y261500D01*
X1589000Y256000D02*
X1594500Y261500D01*
X1589000Y250000D02*
X1594500Y244500D01*
X1576000Y1306750D02*
X1581500Y1312250D01*
X1564500D02*
X1570000Y1306750D01*
X1564500Y1312250D02*
X1581500D01*
X1556000Y1306750D02*
X1570000D01*
X1576000D02*
X1651000D01*
X1556000Y1156750D02*
X1651000D01*
X1556000D02*
Y1306750D01*
X1651000Y1156750D02*
Y1306750D01*
X327000Y640000D02*
X330000Y637000D01*
X627000Y640000D02*
X630000Y637000D01*
X927000Y640000D02*
X930000Y637000D01*
X1227000Y640000D02*
X1230000Y637000D01*
X937344Y1346344D02*
X947344D01*
X937344Y1336344D02*
Y1346344D01*
X967344Y1336344D02*
Y1346344D01*
X957344D02*
X967344D01*
X957344Y1265544D02*
X967344D01*
Y1275544D01*
X937344Y1265544D02*
X947344D01*
X937344D02*
Y1289544D01*
X1072000Y1376600D02*
X1082000Y1376600D01*
X1072000Y1376600D02*
X1072000Y1386600D01*
X1102000D02*
X1102000Y1376600D01*
X1092000Y1376600D02*
X1102000Y1376600D01*
X1072000Y1482800D02*
X1082000Y1482800D01*
X1072000Y1472800D02*
X1072000Y1482800D01*
X1092000Y1482800D02*
X1102000Y1482800D01*
Y1455100D02*
Y1482800D01*
X1504000Y330000D02*
Y360000D01*
Y330000D02*
X1519000Y345000D01*
X1504000Y360000D02*
X1519000Y345000D01*
Y330000D02*
Y360000D01*
X1451000Y345000D02*
X1504000D01*
X1519000D02*
X1578000D01*
D13*
X1478000Y1265750D02*
X1538000D01*
Y1381750D01*
X1478000D02*
X1538000D01*
X1478000Y1265750D02*
Y1381750D01*
X1480000Y293000D02*
X1548000D01*
X1480000Y325000D02*
X1548000D01*
X1454000Y309000D02*
X1480000D01*
X1532000Y293000D02*
X1548000Y309000D01*
X1574000D01*
X1480000Y293000D02*
Y325000D01*
X1548000Y293000D02*
Y325000D01*
X1427842Y1197750D02*
X1495842D01*
X1427842Y1165750D02*
X1495842D01*
Y1181750D02*
X1521842D01*
X1427842D02*
X1443842Y1197750D01*
X1401842Y1181750D02*
X1427842D01*
X1495842Y1165750D02*
Y1197750D01*
X1427842Y1165750D02*
Y1197750D01*
X1428000Y1216000D02*
Y1248000D01*
X1496000Y1216000D02*
Y1248000D01*
X1402000Y1232000D02*
X1428000D01*
X1444000Y1248000D01*
X1496000Y1232000D02*
X1522000D01*
X1428000Y1216000D02*
X1496000D01*
X1428000Y1248000D02*
X1496000D01*
X330000Y339000D02*
Y407000D01*
X298000Y339000D02*
Y407000D01*
X314000Y313000D02*
Y339000D01*
Y407000D02*
X330000Y391000D01*
X314000Y407000D02*
Y433000D01*
X298000Y339000D02*
X330000D01*
X298000Y407000D02*
X330000D01*
X598000D02*
X630000D01*
X598000Y339000D02*
X630000D01*
X614000Y407000D02*
Y433000D01*
Y407000D02*
X630000Y391000D01*
X614000Y313000D02*
Y339000D01*
X598000D02*
Y407000D01*
X630000Y339000D02*
Y407000D01*
X930000Y339000D02*
Y407000D01*
X898000Y339000D02*
Y407000D01*
X914000Y313000D02*
Y339000D01*
Y407000D02*
X930000Y391000D01*
X914000Y407000D02*
Y433000D01*
X898000Y339000D02*
X930000D01*
X898000Y407000D02*
X930000D01*
X1198000D02*
X1230000D01*
X1198000Y339000D02*
X1230000D01*
X1214000Y407000D02*
Y433000D01*
Y407000D02*
X1230000Y391000D01*
X1214000Y313000D02*
Y339000D01*
X1198000D02*
Y407000D01*
X1230000Y339000D02*
Y407000D01*
X394000Y339000D02*
Y407000D01*
X362000Y339000D02*
Y407000D01*
X378000Y313000D02*
Y339000D01*
Y407000D02*
X394000Y391000D01*
X378000Y407000D02*
Y433000D01*
X362000Y339000D02*
X394000D01*
X362000Y407000D02*
X394000D01*
X662000D02*
X694000D01*
X662000Y339000D02*
X694000D01*
X678000Y407000D02*
Y433000D01*
Y407000D02*
X694000Y391000D01*
X678000Y313000D02*
Y339000D01*
X662000D02*
Y407000D01*
X694000Y339000D02*
Y407000D01*
X994000Y339000D02*
Y407000D01*
X962000Y339000D02*
Y407000D01*
X978000Y313000D02*
Y339000D01*
Y407000D02*
X994000Y391000D01*
X978000Y407000D02*
Y433000D01*
X962000Y339000D02*
X994000D01*
X962000Y407000D02*
X994000D01*
X1262000D02*
X1294000D01*
X1262000Y339000D02*
X1294000D01*
X1278000Y407000D02*
Y433000D01*
Y407000D02*
X1294000Y391000D01*
X1278000Y313000D02*
Y339000D01*
X1262000D02*
Y407000D01*
X1294000Y339000D02*
Y407000D01*
X245000Y469500D02*
X275000D01*
X245000Y329500D02*
Y469500D01*
Y329500D02*
X275000D01*
Y469500D01*
X575000Y329500D02*
Y469500D01*
X545000Y329500D02*
X575000D01*
X545000D02*
Y469500D01*
X575000D01*
X845000D02*
X875000D01*
X845000Y329500D02*
Y469500D01*
Y329500D02*
X875000D01*
Y469500D01*
X1175000Y329500D02*
Y469500D01*
X1145000Y329500D02*
X1175000D01*
X1145000D02*
Y469500D01*
X1175000D01*
X417000Y469500D02*
X447000D01*
X417000Y329500D02*
Y469500D01*
Y329500D02*
X447000D01*
Y469500D01*
X747000Y329500D02*
Y469500D01*
X717000Y329500D02*
X747000D01*
X717000D02*
Y469500D01*
X747000D01*
X1017000D02*
X1047000D01*
X1017000Y329500D02*
Y469500D01*
Y329500D02*
X1047000D01*
Y469500D01*
X1347000Y329500D02*
Y469500D01*
X1317000Y329500D02*
X1347000D01*
X1317000D02*
Y469500D01*
X1347000D01*
X1474000Y1358750D02*
Y1361416D01*
Y1360083D01*
X1466003D01*
X1467336Y1358750D01*
D14*
X757600Y1500200D02*
Y1568200D01*
X657600Y1500200D02*
X757600D01*
X657600D02*
Y1568200D01*
X757600D01*
X721479Y1559200D02*
Y1568200D01*
X693721Y1559200D02*
Y1568200D01*
Y1559200D02*
X721479D01*
X805521D02*
X833279D01*
X805521D02*
Y1568200D01*
X833279Y1559200D02*
Y1568200D01*
X769400D02*
X869400D01*
X769400Y1500200D02*
Y1568200D01*
Y1500200D02*
X869400D01*
Y1568200D01*
X917521Y1559200D02*
X945279D01*
X917521D02*
Y1568200D01*
X945279Y1559200D02*
Y1568200D01*
X881400D02*
X981400D01*
X881400Y1500200D02*
Y1568200D01*
Y1500200D02*
X981400D01*
Y1568200D01*
M02*
